<svg 
 xmlns="http://www.w3.org/2000/svg"
 xmlns:xlink="http://www.w3.org/1999/xlink"
 width="58px" height="60px">
<defs>
<filter id="Filter_0">
    <feFlood flood-color="rgb(0, 179, 179)" flood-opacity="1" result="floodOut" />
    <feComposite operator="atop" in="floodOut" in2="SourceGraphic" result="compOut" />
    <feBlend mode="normal" in="compOut" in2="SourceGraphic" />
</filter>

</defs>
<g filter="url(#Filter_0)">
<path fill-rule="evenodd"  fill="rgb(97, 99, 121)"
 d="M55.621,14.766 C55.433,14.954 55.179,15.060 54.914,15.060 C54.649,15.060 54.394,14.954 54.207,14.766 L50.111,10.671 L48.427,12.355 C53.105,17.213 56.000,23.800 56.000,31.060 C56.000,40.959 50.628,49.608 42.662,54.308 L45.707,57.353 C46.097,57.743 46.097,58.376 45.707,58.767 C45.511,58.962 45.256,59.060 45.000,59.060 C44.744,59.060 44.488,58.962 44.293,58.767 L40.822,55.296 C37.246,57.048 33.243,58.060 29.000,58.060 C24.756,58.060 20.754,57.048 17.178,55.296 L13.707,58.767 C13.512,58.962 13.256,59.060 13.000,59.060 C12.744,59.060 12.488,58.962 12.293,58.767 C11.902,58.376 11.902,57.743 12.293,57.353 L15.338,54.308 C7.372,49.608 2.000,40.959 2.000,31.060 C2.000,23.800 4.895,17.213 9.573,12.355 L7.888,10.671 L3.793,14.766 C3.605,14.954 3.351,15.060 3.086,15.060 C2.821,15.060 2.566,14.954 2.379,14.766 C-0.788,11.601 -0.788,6.447 2.379,3.281 C3.912,1.748 5.952,0.903 8.121,0.903 C10.290,0.903 12.330,1.748 13.864,3.281 C14.051,3.469 14.156,3.723 14.156,3.989 C14.156,4.254 14.051,4.507 13.864,4.695 L9.303,9.257 L11.020,10.974 C15.800,6.690 22.091,4.060 29.000,4.060 C35.908,4.060 42.199,6.690 46.979,10.974 L48.697,9.257 L44.136,4.695 C43.948,4.507 43.843,4.254 43.843,3.989 C43.843,3.723 43.948,3.469 44.136,3.281 C45.670,1.748 47.709,0.903 49.878,0.903 C52.048,0.903 54.087,1.748 55.621,3.281 C58.787,6.447 58.787,11.601 55.621,14.766 ZM11.685,4.046 C10.653,3.304 9.418,2.903 8.121,2.903 C6.486,2.903 4.949,3.540 3.793,4.695 C1.647,6.842 1.430,10.197 3.143,12.588 L11.685,4.046 ZM29.000,6.060 C15.215,6.060 4.000,17.275 4.000,31.060 C4.000,44.844 15.215,56.060 29.000,56.060 C42.785,56.060 54.000,44.844 54.000,31.060 C54.000,17.275 42.785,6.060 29.000,6.060 ZM54.207,4.695 C53.051,3.540 51.514,2.903 49.878,2.903 C48.582,2.903 47.347,3.304 46.314,4.046 L54.856,12.588 C56.569,10.197 56.353,6.842 54.207,4.695 ZM48.952,42.460 C48.938,42.492 48.937,42.528 48.919,42.559 C48.907,42.579 48.886,42.586 48.873,42.604 C46.876,46.017 44.023,48.873 40.613,50.879 C40.573,50.911 40.545,50.952 40.500,50.979 C40.471,50.995 40.438,50.990 40.408,51.003 C37.042,52.937 33.153,54.060 29.000,54.060 C24.840,54.060 20.943,52.942 17.577,51.000 C17.552,50.988 17.524,50.993 17.500,50.979 C17.474,50.964 17.460,50.939 17.436,50.922 C14.019,48.918 11.162,46.056 9.158,42.636 C9.136,42.606 9.100,42.592 9.081,42.559 C9.060,42.524 9.059,42.484 9.043,42.447 C7.117,39.085 6.000,35.204 6.000,31.060 C6.000,26.909 7.113,23.020 9.047,19.660 C9.062,19.627 9.062,19.592 9.081,19.560 C9.095,19.535 9.119,19.521 9.136,19.498 C11.133,16.093 13.982,13.244 17.386,11.241 C17.425,11.209 17.454,11.167 17.500,11.141 C17.536,11.119 17.577,11.118 17.615,11.102 C20.976,9.177 24.857,8.060 29.000,8.060 C33.149,8.060 37.037,9.172 40.397,11.106 C40.431,11.121 40.467,11.122 40.500,11.141 C40.525,11.155 40.540,11.180 40.563,11.197 C43.969,13.194 46.817,16.044 48.820,19.448 C48.851,19.487 48.893,19.515 48.919,19.560 C48.939,19.596 48.941,19.636 48.957,19.673 C50.882,23.035 52.000,26.916 52.000,31.060 C52.000,35.210 50.887,39.099 48.952,42.460 ZM47.624,21.462 L46.820,21.926 C46.662,22.017 46.491,22.059 46.321,22.059 C45.975,22.059 45.639,21.880 45.454,21.559 C45.178,21.082 45.342,20.470 45.820,20.194 L46.622,19.730 C44.997,17.210 42.846,15.064 40.330,13.436 L39.866,14.239 C39.680,14.559 39.344,14.740 38.999,14.740 C38.829,14.740 38.657,14.696 38.500,14.606 C38.022,14.330 37.858,13.718 38.134,13.240 L38.603,12.427 C36.005,11.079 33.092,10.257 30.000,10.110 L30.000,11.060 C30.000,11.612 29.552,12.060 29.000,12.060 C28.448,12.060 28.000,11.612 28.000,11.060 L28.000,10.110 C24.909,10.257 22.003,11.092 19.402,12.436 L19.866,13.240 C20.142,13.718 19.978,14.330 19.500,14.606 C19.342,14.696 19.170,14.740 19.001,14.740 C18.655,14.740 18.319,14.559 18.134,14.239 L17.671,13.438 C15.151,15.062 13.026,17.227 11.398,19.742 L12.179,20.194 C12.658,20.470 12.822,21.082 12.546,21.559 C12.360,21.880 12.024,22.059 11.678,22.059 C11.509,22.059 11.337,22.017 11.179,21.926 L10.395,21.474 C9.047,24.071 8.196,26.967 8.049,30.060 L9.000,30.060 C9.552,30.060 10.000,30.507 10.000,31.060 C10.000,31.613 9.552,32.060 9.000,32.060 L8.049,32.060 C8.196,35.151 9.031,38.057 10.376,40.657 L11.179,40.193 C11.658,39.915 12.269,40.082 12.546,40.560 C12.822,41.038 12.658,41.650 12.179,41.926 L11.377,42.389 C13.003,44.909 15.153,47.056 17.670,48.683 L18.134,47.880 C18.409,47.402 19.019,47.237 19.500,47.514 C19.978,47.790 20.142,48.401 19.866,48.880 L19.397,49.693 C21.994,51.040 24.907,51.862 28.000,52.009 L28.000,51.059 C28.000,50.507 28.448,50.060 29.000,50.060 C29.552,50.060 30.000,50.507 30.000,51.059 L30.000,52.009 C33.091,51.862 35.997,51.027 38.597,49.683 L38.134,48.880 C37.858,48.401 38.022,47.790 38.500,47.514 C38.978,47.237 39.589,47.402 39.866,47.880 L40.329,48.682 C42.848,47.057 44.974,44.892 46.602,42.377 L45.820,41.926 C45.342,41.650 45.178,41.038 45.454,40.560 C45.730,40.082 46.340,39.915 46.820,40.193 L47.604,40.646 C48.953,38.048 49.804,35.152 49.950,32.060 L49.000,32.060 C48.448,32.060 48.000,31.613 48.000,31.060 C48.000,30.507 48.448,30.060 49.000,30.060 L49.951,30.060 C49.804,26.969 48.969,24.063 47.624,21.462 ZM40.000,32.060 L32.858,32.060 C32.410,33.780 30.858,35.060 29.000,35.060 C26.794,35.060 25.000,33.266 25.000,31.060 C25.000,29.201 26.279,27.649 28.000,27.202 L28.000,17.060 C28.000,16.507 28.448,16.060 29.000,16.060 C29.552,16.060 30.000,16.507 30.000,17.060 L30.000,27.202 C31.399,27.565 32.494,28.661 32.858,30.060 L40.000,30.060 C40.552,30.060 41.000,30.507 41.000,31.060 C41.000,31.613 40.552,32.060 40.000,32.060 ZM29.000,29.060 C27.897,29.060 27.000,29.957 27.000,31.060 C27.000,32.163 27.897,33.059 29.000,33.059 C30.103,33.059 31.000,32.163 31.000,31.060 C31.000,29.957 30.103,29.060 29.000,29.060 Z"/>
</g>
</svg>