<svg xmlns="http://www.w3.org/2000/svg" xmlns:xlink="http://www.w3.org/1999/xlink" width="57.969" height="58.15" viewBox="0 0 57.969 58.15">
  <metadata><?xpacket begin="﻿" id="W5M0MpCehiHzreSzNTczkc9d"?>
<x:xmpmeta xmlns:x="adobe:ns:meta/" x:xmptk="Adobe XMP Core 5.6-c138 79.159824, 2016/09/14-01:09:01        ">
   <rdf:RDF xmlns:rdf="http://www.w3.org/1999/02/22-rdf-syntax-ns#">
      <rdf:Description rdf:about=""/>
   </rdf:RDF>
</x:xmpmeta>
                                                                                                    
                                                                                                    
                                                                                                    
                                                                                                    
                                                                                                    
                                                                                                    
                                                                                                    
                                                                                                    
                                                                                                    
                                                                                                    
                                                                                                    
                                                                                                    
                                                                                                    
                                                                                                    
                                                                                                    
                                                                                                    
                                                                                                    
                                                                                                    
                                                                                                    
                                                                                                    
                           
<?xpacket end="w"?></metadata>
<defs>
    <style>
      .cls-1 {
        fill: #616379;
        fill-rule: evenodd;
        filter: url(#filter);
      }
    </style>
    <filter id="filter" x="395.031" y="2211.91" width="57.969" height="58.15" filterUnits="userSpaceOnUse">
      <feFlood result="flood" flood-color="#00b3b3"/>
      <feComposite result="composite" operator="in" in2="SourceGraphic"/>
      <feBlend result="blend" in2="SourceGraphic"/>
    </filter>
  </defs>
  <path id="icon" class="cls-1" d="M435,2243.06h-8a1,1,0,0,1,0-2h8A1,1,0,0,1,435,2243.06Zm-11-3a1,1,0,0,1-1-1v-11a1,1,0,0,1,2,0v11A1,1,0,0,1,424,2240.06Zm-16,30a1,1,0,0,1-.707-1.71l3.932-3.93a1,1,0,0,1,1.414,1.41l-3.932,3.94A1.016,1.016,0,0,1,408,2270.06Zm32,0a1.016,1.016,0,0,1-.707-0.29l-3.963-3.97a1,1,0,0,1,1.414-1.41l3.963,3.96A1,1,0,0,1,440,2270.06Zm9.914-44a1.029,1.029,0,0,1-.707-0.29l-10.071-10.07a1.018,1.018,0,0,1-.293-0.71,1,1,0,0,1,.293-0.71,8.123,8.123,0,1,1,11.485,11.49A1.031,1.031,0,0,1,449.914,2226.06Zm-8.6-11.01,8.542,8.54a6.129,6.129,0,0,0-4.978-9.69A6.033,6.033,0,0,0,441.314,2215.05Zm0.779,9.22a0.974,0.974,0,0,1-.707-0.29,0.994,0.994,0,0,1,0-1.41l3-3a1,1,0,0,1,1.414,1.41l-3,3A0.974,0.974,0,0,1,442.093,2224.27Zm-44.007,1.79a1.029,1.029,0,0,1-.707-0.29,8.123,8.123,0,1,1,11.485-11.49,1,1,0,0,1,.292.71,1.022,1.022,0,0,1-.292.71l-10.071,10.07A1.031,1.031,0,0,1,398.086,2226.06Zm5.035-12.16a6.129,6.129,0,0,0-4.978,9.69l8.542-8.54A6.028,6.028,0,0,0,403.121,2213.9Zm2.785,10.37a0.977,0.977,0,0,1-.707-0.29l-3-3a1,1,0,0,1,1.415-1.41l3,3a1,1,0,0,1,0,1.41A0.978,0.978,0,0,1,405.906,2224.27ZM424,2269.06a27,27,0,1,1,27-27A27.029,27.029,0,0,1,424,2269.06Zm0-52a25,25,0,1,0,25,25A25.025,25.025,0,0,0,424,2217.06Zm0,29a4,4,0,1,1,4-4A4,4,0,0,1,424,2246.06Zm0-6a2,2,0,1,0,2,2A2,2,0,0,0,424,2240.06Zm0,25a23,23,0,1,1,23-23A23.028,23.028,0,0,1,424,2265.06Zm0-44a21,21,0,1,0,21,21A21.023,21.023,0,0,0,424,2221.06Zm0,2a1,1,0,0,1-1-1v-2a1,1,0,0,1,2,0v2A1,1,0,0,1,424,2223.06Zm0,42a1,1,0,0,1-1-1v-2a1,1,0,0,1,2,0v2A1,1,0,0,1,424,2265.06Zm22-22h-2a1,1,0,0,1,0-2h2A1,1,0,0,1,446,2243.06Zm-42,0h-2a1,1,0,0,1,0-2h2A1,1,0,0,1,404,2243.06Zm10-17.32a1,1,0,0,1-.867-0.5l-1-1.73a1,1,0,1,1,1.732-1l1,1.73A1,1,0,0,1,414,2225.74Zm21,36.37a1,1,0,0,1-.867-0.5l-1-1.73a1,1,0,1,1,1.732-1l1,1.73A1,1,0,0,1,435,2262.11Zm-28.323-29.05a1,1,0,0,1-.5-0.13l-1.732-1a1,1,0,0,1,1-1.74l1.732,1A1,1,0,0,1,406.678,2233.06Zm36.374,21a1,1,0,0,1-.5-0.13l-1.732-1a1,1,0,0,1,1-1.74l1.733,1A1,1,0,0,1,443.052,2254.06Zm-38.1,0a1,1,0,0,1-.5-1.87l1.732-1a1,1,0,0,1,1,1.74l-1.732,1A1,1,0,0,1,404.948,2254.06Zm36.373-21a1,1,0,0,1-.5-1.87l1.732-1a1,1,0,0,1,1,1.74l-1.733,1A1,1,0,0,1,441.321,2233.06ZM413,2262.11a1,1,0,0,1-.865-1.5l1-1.73a1,1,0,1,1,1.732,1l-1,1.73A1,1,0,0,1,413,2262.11Zm21-36.37a1,1,0,0,1-.865-1.5l1-1.73a1,1,0,0,1,1.366-.37,1.006,1.006,0,0,1,.366,1.37l-1,1.73A1,1,0,0,1,434,2225.74Z" transform="translate(-395.031 -2211.91)"/>
</svg>
