<svg id="4d14b44b-1ae7-488e-9f25-4a635ef0f051" data-name="Layer 1" xmlns="http://www.w3.org/2000/svg" xmlns:xlink="http://www.w3.org/1999/xlink" viewBox="0 0 64 49"><defs><clipPath id="198b37a4-db0a-4bc9-ad0a-6551984f399b" transform="translate(0)"><rect width="64" height="49" style="fill:none"/></clipPath></defs><title>two-bed</title><g style="clip-path:url(#198b37a4-db0a-4bc9-ad0a-6551984f399b)"><path d="M64,37.5v-12c0-2.2-1.8-3.5-4-3.5H59V1.5C59,.4,58.1,0,57,0H7C5.9,0,5,.4,5,1.5V22H4c-2.2,0-4,1.3-4,3.5v12a4,4,0,0,0,3.2,3.9L1.1,47.1a1.26,1.26,0,0,0,.1,1.2c.2.3.5.7.8.7H5a.89.89,0,0,0,.8-.5L9.9,42H54l4.1,6.5a1,1,0,0,0,.8.5h3c.3,0,.6-.4.8-.7a1.18,1.18,0,0,0,.1-1l-2.1-5.8a4.16,4.16,0,0,0,3.3-4M9,4H55V22H51V17.5c0-1.7-1.3-2.5-3-2.5H37c-1.7,0-3,.8-3,2.5V22H30V17.5c0-1.7-1.3-2.5-3-2.5H16c-1.7,0-3,.8-3,2.5V22H9ZM49,22H36V17.5c0-.6.4-.5,1-.5H48c.6,0,1-.1,1,.5ZM28,22H15V17.5c0-.6.4-.5,1-.5H27c.6,0,1-.1,1,.5ZM4,26H60V38H4Zm.4,21h-1l1.9-5H7.6Zm55.2,0-3.1-5h2.3l1.9,5Z" transform="translate(0)"/></g></svg>