<svg id="fc4f0210-a6ce-4326-9985-561869c30494" data-name="Layer 1" xmlns="http://www.w3.org/2000/svg" viewBox="0 0 32 35"><title>calendar</title><path d="M1,4H31V34H1ZM0,35H32V3H0Z" style="fill:#b8b8b8"/><rect x="5.5" y="0.5" width="5" height="6" style="fill:#fff"/><path d="M6,1h4V6H6ZM5,7h6V0H5Z" style="fill:#b8b8b8"/><rect x="21.5" y="0.5" width="5" height="6" style="fill:#fff"/><path d="M22,1h4V6H22ZM21,7h6V0H21Z" style="fill:#b8b8b8"/><rect x="5" y="9" width="6" height="6" style="fill:#b8b8b8"/><rect x="13" y="9" width="6" height="6" style="fill:#b8b8b8"/><rect x="21" y="9" width="6" height="6" style="fill:#b8b8b8"/><rect x="5" y="17" width="6" height="6" style="fill:#b8b8b8"/><rect x="13" y="17" width="6" height="6" style="fill:#b8b8b8"/><rect x="21" y="17" width="6" height="6" style="fill:#b8b8b8"/><rect x="5" y="25" width="6" height="6" style="fill:#b8b8b8"/><rect x="13" y="25" width="6" height="6" style="fill:#b8b8b8"/><rect x="21" y="25" width="6" height="6" style="fill:#b8b8b8"/></svg>