<svg id="e4b0a3d2-08ee-4880-af0f-62ea33b3be72" data-name="Слой 1" xmlns="http://www.w3.org/2000/svg" viewBox="0 0 74.35 80.67"><title>conditioner</title><path d="M86.75,60.34a3,3,0,0,0-4.12-1L77,62.69l-3.16-1.82L79,57.66a3,3,0,0,0-3.14-5.11l-8,4.91-3.09-1.78V44.32l3.09-1.78,8,4.91A3,3,0,0,0,79,42.34l-5.22-3.21L77,37.31l5.65,3.38a3,3,0,0,0,3.08-5.15l-2.79-1.67L84,33.25a2.5,2.5,0,1,0-2.5-4.33l-1.09.63-.05-3.25a3,3,0,0,0-3-3h-.05a3,3,0,0,0-2.95,3L74.48,33,71.33,34.8l-.17-6.12a3,3,0,0,0-6,.17l.26,9.36L62.33,40,52.5,34.32V30.75l8.24-4.45A3,3,0,0,0,57.89,21L52.5,23.93V20.28l5.75-3.2a3,3,0,0,0-2.91-5.25L52.5,13.42V12.17a2.5,2.5,0,0,0-5,0v1.25l-2.84-1.58a3,3,0,0,0-2.91,5.25l5.75,3.2v3.65L42.11,21a3,3,0,0,0-2.85,5.28l8.24,4.45v3.57L37.67,40l-3.09-1.78.26-9.36a3,3,0,0,0-2.92-3.08h-.09a3,3,0,0,0-3,2.92l-.17,6.12L25.52,33l.11-6.58a3,3,0,0,0-3-3h-.05a3,3,0,0,0-3,3l-.05,3.25-1.09-.63A2.5,2.5,0,0,0,16,33.25l1.09.63-2.78,1.67a3,3,0,1,0,3.08,5.15L23,37.31l3.16,1.82L21,42.34a3,3,0,0,0,3.15,5.11l8-4.91,3.09,1.78V55.68l-3.09,1.78-8-4.91A3,3,0,0,0,21,57.66l5.22,3.21L23,62.7l-5.65-3.38a3,3,0,0,0-3.08,5.15l2.78,1.67L16,66.76a2.5,2.5,0,1,0,2.5,4.33l1.09-.63.05,3.25a3,3,0,0,0,3,3h.05a3,3,0,0,0,3-3L25.52,67l3.16-1.82.17,6.12a3,3,0,0,0,3,2.92h.09a3,3,0,0,0,2.91-3.08l-.26-9.36L37.67,60l9.83,5.68v3.57l-8.24,4.46A3,3,0,0,0,42.11,79l5.39-2.91v3.64l-5.75,3.2a3,3,0,0,0,2.91,5.25l2.84-1.58v1.25a2.5,2.5,0,1,0,5,0V86.58l2.84,1.58a3,3,0,0,0,2.91-5.25l-5.75-3.2V76.07L57.89,79a3,3,0,0,0,2.85-5.28L52.5,69.25V65.68L62.33,60l3.09,1.78-.26,9.36a3,3,0,0,0,2.92,3.08h.09a3,3,0,0,0,3-2.92l.17-6.12L74.48,67l-.11,6.58a3,3,0,0,0,2.95,3h.05a3,3,0,0,0,3-3l.05-3.25,1.09.63A2.5,2.5,0,1,0,84,66.75l-1.09-.63,2.79-1.67A3,3,0,0,0,86.75,60.34ZM58.83,55.1,50,60.2l-8.83-5.1V44.9L50,39.8l8.83,5.1Z" transform="translate(-12.83 -9.67)"/></svg>