<svg 
 xmlns="http://www.w3.org/2000/svg"
 xmlns:xlink="http://www.w3.org/1999/xlink"
 width="60px" height="40px">
<defs>
<filter id="Filter_0">
    <feFlood flood-color="rgb(0, 179, 179)" flood-opacity="1" result="floodOut" />
    <feComposite operator="atop" in="floodOut" in2="SourceGraphic" result="compOut" />
    <feBlend mode="normal" in="compOut" in2="SourceGraphic" />
</filter>

</defs>
<g filter="url(#Filter_0)">
<path fill-rule="evenodd"  fill="rgb(97, 99, 121)"
 d="M56.280,20.159 C58.740,21.805 60.000,23.779 60.000,26.047 C60.000,29.321 57.837,39.999 30.000,39.999 C9.388,39.999 -0.000,32.767 -0.000,26.047 C-0.000,23.738 1.261,21.749 3.719,20.116 C3.600,19.707 3.523,19.293 3.523,18.871 C3.523,18.212 3.724,17.555 4.031,16.906 C3.702,16.238 3.523,15.551 3.523,14.848 C3.523,14.194 3.722,13.541 4.026,12.896 C3.700,12.232 3.523,11.548 3.523,10.850 C3.523,10.010 3.775,9.169 4.272,8.348 C7.646,3.413 18.214,-0.001 30.000,-0.001 C41.786,-0.001 52.353,3.413 55.697,8.302 C56.225,9.169 56.477,10.010 56.477,10.850 C56.477,11.555 56.308,12.247 55.985,12.919 C56.281,13.557 56.477,14.202 56.477,14.848 C56.477,15.557 56.306,16.252 55.978,16.927 C56.279,17.569 56.477,18.219 56.477,18.871 C56.477,19.306 56.404,19.735 56.280,20.159 ZM54.016,9.385 C51.520,5.738 42.449,1.999 30.000,1.999 C17.551,1.999 8.479,5.738 5.953,9.431 C5.674,9.894 5.523,10.374 5.523,10.850 C5.523,14.132 12.578,17.960 23.205,19.150 C23.230,19.153 23.254,19.157 23.280,19.159 C23.977,19.236 24.693,19.300 25.420,19.353 C25.492,19.359 25.561,19.366 25.634,19.371 C26.418,19.426 27.216,19.468 28.031,19.493 C28.571,19.511 29.000,19.953 29.000,20.493 L29.000,24.047 C29.000,24.874 29.673,25.547 30.500,25.547 C31.327,25.547 32.000,24.874 32.000,24.047 C32.000,23.494 32.447,23.047 33.000,23.047 C33.553,23.047 34.000,23.494 34.000,24.047 L34.000,27.547 C34.000,27.731 34.036,27.930 34.110,28.156 C34.113,28.164 34.110,28.172 34.112,28.180 C34.379,28.972 35.120,29.547 36.000,29.547 C37.102,29.547 38.000,28.649 38.000,27.547 C38.000,26.994 38.447,26.547 39.000,26.547 C39.553,26.547 40.000,26.994 40.000,27.547 L40.000,27.999 C40.000,28.551 40.448,28.999 41.000,28.999 C41.552,28.999 42.000,28.551 42.000,27.999 L42.000,23.107 L42.000,19.109 C42.000,18.643 42.320,18.240 42.772,18.135 C43.402,17.988 44.007,17.827 44.599,17.660 C44.729,17.623 44.860,17.587 44.988,17.549 C45.541,17.387 46.076,17.217 46.590,17.040 C46.722,16.994 46.847,16.946 46.977,16.900 C47.394,16.749 47.797,16.594 48.186,16.434 C48.306,16.384 48.433,16.336 48.550,16.286 C48.985,16.099 49.394,15.906 49.788,15.709 C49.923,15.641 50.055,15.573 50.185,15.504 C50.573,15.299 50.946,15.091 51.286,14.877 C51.348,14.838 51.402,14.798 51.462,14.760 C51.795,14.543 52.106,14.323 52.388,14.100 C52.425,14.070 52.465,14.042 52.501,14.012 C52.817,13.754 53.100,13.492 53.344,13.226 C53.357,13.213 53.368,13.200 53.380,13.186 C53.629,12.912 53.841,12.634 54.009,12.354 C54.012,12.348 54.020,12.346 54.023,12.340 C54.318,11.843 54.476,11.343 54.476,10.850 C54.476,10.374 54.326,9.894 54.016,9.385 ZM30.000,29.548 C18.976,29.548 9.513,26.815 5.535,22.943 C5.657,27.020 16.074,31.547 30.000,31.547 C30.838,31.547 31.662,31.529 32.474,31.497 C33.232,31.466 33.975,31.420 34.707,31.365 C34.752,31.361 34.799,31.360 34.843,31.356 C34.069,31.121 33.400,30.662 32.903,30.048 C32.863,29.999 32.819,29.952 32.781,29.900 C32.703,29.793 32.635,29.682 32.567,29.568 C32.553,29.543 32.541,29.517 32.526,29.492 C31.664,29.526 30.825,29.548 30.000,29.548 ZM32.000,27.514 L32.000,27.209 C31.569,27.415 31.088,27.526 30.583,27.538 C31.051,27.533 31.518,27.529 32.000,27.514 ZM30.000,27.548 C30.135,27.548 30.278,27.542 30.414,27.541 C29.024,27.506 27.835,26.660 27.302,25.457 C17.405,25.046 9.159,22.422 5.525,18.880 C5.539,22.974 16.001,27.548 30.000,27.548 ZM27.000,23.452 L27.000,21.455 C26.282,21.422 25.575,21.373 24.873,21.316 C24.602,21.294 24.335,21.269 24.067,21.244 C23.645,21.204 23.227,21.160 22.812,21.111 C22.501,21.076 22.189,21.041 21.883,21.001 C21.480,20.948 21.086,20.887 20.691,20.827 C20.130,20.741 19.580,20.647 19.038,20.546 C18.792,20.501 18.545,20.456 18.303,20.407 C17.930,20.332 17.563,20.254 17.201,20.172 C16.957,20.117 16.718,20.059 16.478,20.001 C16.095,19.908 15.714,19.815 15.344,19.715 C14.872,19.588 14.410,19.456 13.959,19.317 C13.749,19.252 13.547,19.183 13.341,19.115 C12.953,18.988 12.573,18.857 12.202,18.722 C12.064,18.671 11.926,18.621 11.791,18.569 C9.120,17.550 6.956,16.316 5.524,14.930 C5.652,18.574 14.382,22.851 27.000,23.452 ZM37.930,31.029 C38.570,30.944 39.180,30.839 39.791,30.735 C39.493,30.603 39.216,30.431 38.978,30.214 C38.921,30.278 38.849,30.327 38.788,30.388 C38.772,30.403 38.755,30.416 38.739,30.431 C38.500,30.659 38.235,30.855 37.945,31.018 C37.939,31.021 37.935,31.026 37.930,31.029 ZM44.000,23.887 L44.000,25.849 C50.262,24.187 54.398,21.479 54.469,18.938 C52.399,20.952 48.800,22.680 44.000,23.887 ZM54.471,14.942 C52.668,16.699 49.698,18.236 45.786,19.401 C45.752,19.412 45.719,19.422 45.685,19.433 C45.139,19.593 44.581,19.749 44.000,19.895 L44.000,21.829 C50.240,20.172 54.371,17.478 54.471,14.942 ZM44.000,27.909 L44.000,27.999 C44.000,28.796 43.683,29.516 43.175,30.054 C43.195,30.049 43.216,30.044 43.237,30.039 C43.668,29.933 44.090,29.823 44.501,29.708 C44.634,29.671 44.763,29.633 44.894,29.595 C45.304,29.476 45.709,29.355 46.097,29.228 C46.113,29.223 46.128,29.217 46.145,29.212 C46.942,28.949 47.684,28.668 48.382,28.376 C48.511,28.321 48.648,28.268 48.774,28.213 C49.040,28.096 49.291,27.975 49.541,27.854 C49.719,27.768 49.897,27.682 50.066,27.594 C50.285,27.481 50.496,27.367 50.700,27.251 C50.887,27.144 51.063,27.036 51.237,26.928 C51.406,26.823 51.580,26.719 51.736,26.612 C52.012,26.424 52.267,26.234 52.503,26.042 C52.608,25.957 52.701,25.871 52.798,25.786 C52.986,25.618 53.167,25.451 53.325,25.281 C53.406,25.194 53.475,25.107 53.548,25.020 C53.675,24.867 53.791,24.714 53.892,24.561 C53.950,24.475 54.004,24.388 54.053,24.301 C54.147,24.134 54.222,23.966 54.284,23.798 C54.310,23.729 54.343,23.660 54.364,23.591 C54.423,23.388 54.448,23.185 54.459,22.983 C52.388,24.989 48.784,26.706 44.000,27.909 ZM30.000,33.547 C15.400,33.547 3.523,28.757 3.523,22.870 C3.523,22.850 3.524,22.825 3.526,22.800 C2.512,23.787 2.000,24.873 2.000,26.047 C2.000,30.852 9.457,37.999 30.000,37.999 C43.536,37.999 58.000,34.860 58.000,26.047 C58.000,24.903 57.489,23.833 56.477,22.850 C56.477,22.856 56.477,22.863 56.477,22.870 C56.477,28.757 44.599,33.547 30.000,33.547 ZM33.577,16.774 C33.024,16.774 32.577,16.326 32.577,15.774 C32.577,15.221 33.024,14.774 33.577,14.774 C42.842,14.774 49.764,11.997 49.764,9.515 C49.764,8.962 50.212,8.515 50.764,8.515 C51.317,8.515 51.765,8.962 51.765,9.515 C51.765,14.230 42.394,16.774 33.577,16.774 ZM27.000,12.547 L24.000,12.547 C23.647,12.547 23.314,12.475 23.000,12.363 L23.000,12.547 C23.000,14.201 21.654,15.547 20.000,15.547 L17.000,15.547 C15.346,15.547 14.000,14.201 14.000,12.547 L14.000,9.547 C14.000,7.892 15.346,6.547 17.000,6.547 L20.000,6.547 C20.352,6.547 20.686,6.619 21.000,6.731 L21.000,6.547 C21.000,4.893 22.346,3.547 24.000,3.547 L27.000,3.547 C28.654,3.547 30.000,4.893 30.000,6.547 L30.000,9.547 C30.000,11.201 28.654,12.547 27.000,12.547 ZM21.000,9.547 C21.000,8.995 20.552,8.547 20.000,8.547 L17.000,8.547 C16.448,8.547 16.000,8.995 16.000,9.547 L16.000,12.547 C16.000,13.099 16.448,13.547 17.000,13.547 L20.000,13.547 C20.552,13.547 21.000,13.099 21.000,12.547 L21.000,9.547 ZM28.000,6.547 C28.000,5.995 27.552,5.547 27.000,5.547 L24.000,5.547 C23.448,5.547 23.000,5.995 23.000,6.547 L23.000,9.547 C23.000,10.099 23.448,10.547 24.000,10.547 L27.000,10.547 C27.552,10.547 28.000,10.099 28.000,9.547 L28.000,6.547 Z"/>
</g>
</svg>