<svg 
 xmlns="http://www.w3.org/2000/svg"
 xmlns:xlink="http://www.w3.org/1999/xlink"
 width="57px" height="55px">
<defs>
<filter id="Filter_0">
    <feFlood flood-color="rgb(0, 179, 179)" flood-opacity="1" result="floodOut" />
    <feComposite operator="atop" in="floodOut" in2="SourceGraphic" result="compOut" />
    <feBlend mode="normal" in="compOut" in2="SourceGraphic" />
</filter>

</defs>
<g filter="url(#Filter_0)">
<path fill-rule="evenodd"  fill="rgb(97, 99, 121)"
 d="M57.000,25.000 L53.000,25.000 L53.000,54.999 L5.000,54.999 L5.000,25.000 L-0.000,25.000 L-0.000,10.999 L14.727,10.999 C13.910,9.833 13.458,8.452 13.458,6.993 C13.458,5.118 14.184,3.360 15.501,2.042 C16.819,0.725 18.577,-0.001 20.451,-0.001 C22.326,-0.001 24.083,0.725 25.401,2.042 L28.229,4.871 L31.058,2.042 C32.375,0.725 34.133,-0.001 36.007,-0.001 C37.882,-0.001 39.639,0.725 40.957,2.042 C42.274,3.360 43.000,5.118 43.000,6.993 C43.000,8.452 42.548,9.833 41.731,10.999 L57.000,10.999 L57.000,25.000 ZM7.000,36.999 L28.000,36.999 L28.000,25.000 L7.000,25.000 L7.000,36.999 ZM30.000,36.999 L51.000,36.999 L51.000,25.000 L30.000,25.000 L30.000,36.999 ZM51.000,52.999 L51.000,38.999 L30.000,38.999 L30.000,52.999 L51.000,52.999 ZM28.000,52.999 L28.000,38.999 L7.000,38.999 L7.000,52.999 L28.000,52.999 ZM2.000,13.000 L2.000,22.999 L5.000,22.999 L28.000,22.999 L28.000,13.000 L23.548,13.000 L21.292,13.000 L16.559,13.000 L2.000,13.000 ZM23.987,3.456 C23.047,2.517 21.791,1.999 20.451,1.999 C19.111,1.999 17.855,2.517 16.915,3.456 C15.976,4.397 15.458,5.651 15.458,6.993 C15.458,8.332 15.976,9.588 16.915,10.528 L17.387,10.999 L22.359,10.999 C22.639,10.546 22.942,10.157 23.279,9.820 L26.815,6.285 L23.987,3.456 ZM39.543,3.456 C38.603,2.517 37.348,1.999 36.007,1.999 C34.667,1.999 33.411,2.517 32.472,3.456 L29.643,6.285 L29.643,6.285 L24.929,10.999 L39.071,10.999 L39.543,10.528 C40.482,9.588 41.000,8.332 41.000,6.993 C41.000,5.651 40.482,4.397 39.543,3.456 ZM55.000,13.000 L39.899,13.000 L30.000,13.000 L30.000,22.999 L53.000,22.999 L55.000,22.999 L55.000,13.000 Z"/>
</g>
</svg>