<svg xmlns="http://www.w3.org/2000/svg" xmlns:xlink="http://www.w3.org/1999/xlink" width="57" height="55" viewBox="0 0 57 55">
  <metadata><?xpacket begin="﻿" id="W5M0MpCehiHzreSzNTczkc9d"?>
<x:xmpmeta xmlns:x="adobe:ns:meta/" x:xmptk="Adobe XMP Core 5.6-c138 79.159824, 2016/09/14-01:09:01        ">
   <rdf:RDF xmlns:rdf="http://www.w3.org/1999/02/22-rdf-syntax-ns#">
      <rdf:Description rdf:about=""/>
   </rdf:RDF>
</x:xmpmeta>
                                                                                                    
                                                                                                    
                                                                                                    
                                                                                                    
                                                                                                    
                                                                                                    
                                                                                                    
                                                                                                    
                                                                                                    
                                                                                                    
                                                                                                    
                                                                                                    
                                                                                                    
                                                                                                    
                                                                                                    
                                                                                                    
                                                                                                    
                                                                                                    
                                                                                                    
                                                                                                    
                           
<?xpacket end="w"?></metadata>
<defs>
    <style>
      .cls-1 {
        fill: #616379;
        fill-rule: evenodd;
        filter: url(#filter);
      }
    </style>
    <filter id="filter" x="1185" y="2214" width="57" height="55" filterUnits="userSpaceOnUse">
      <feFlood result="flood" flood-color="#00b3b3"/>
      <feComposite result="composite" operator="in" in2="SourceGraphic"/>
      <feBlend result="blend" in2="SourceGraphic"/>
    </filter>
  </defs>
  <path id="icon" class="cls-1" d="M1242,2239h-57v-14h57v14Zm-55-2h53v-10h-53v10Zm37.9-10h-18.61l0.76-1.46a6.771,6.771,0,0,1,1.23-1.72l7.78-7.78a7.026,7.026,0,0,1,9.9,0,7.026,7.026,0,0,1,0,9.9Zm-14.97-2h14.14l0.47-.47a5,5,0,0,0-7.07-7.07Zm-1.38,2h-6.99l-1.06-1.06a7,7,0,0,1,9.9-9.9l4.24,4.25-4.95,4.94a5.219,5.219,0,0,0-.86,1.23Zm-6.16-2h4.97a6.509,6.509,0,0,1,.92-1.18l3.53-3.53-2.82-2.83a5,5,0,0,0-7.07,7.07Zm35.61,44h-48v-32h48v32Zm-46-2h44v-28h-44v28Zm22,2a1,1,0,0,1-1-1v-42a1,1,0,0,1,2,0v42A1,1,0,0,1,1214,2269Zm23-16h-46a1,1,0,0,1,0-2h46A1,1,0,0,1,1237,2253Z" transform="translate(-1185 -2214)"/>
</svg>
