<svg xmlns="http://www.w3.org/2000/svg" xmlns:xlink="http://www.w3.org/1999/xlink" width="52" height="60" viewBox="0 0 52 60">
  <metadata><?xpacket begin="﻿" id="W5M0MpCehiHzreSzNTczkc9d"?>
<x:xmpmeta xmlns:x="adobe:ns:meta/" x:xmptk="Adobe XMP Core 5.6-c138 79.159824, 2016/09/14-01:09:01        ">
   <rdf:RDF xmlns:rdf="http://www.w3.org/1999/02/22-rdf-syntax-ns#">
      <rdf:Description rdf:about=""/>
   </rdf:RDF>
</x:xmpmeta>
                                                                                                    
                                                                                                    
                                                                                                    
                                                                                                    
                                                                                                    
                                                                                                    
                                                                                                    
                                                                                                    
                                                                                                    
                                                                                                    
                                                                                                    
                                                                                                    
                                                                                                    
                                                                                                    
                                                                                                    
                                                                                                    
                                                                                                    
                                                                                                    
                                                                                                    
                                                                                                    
                           
<?xpacket end="w"?></metadata>
<defs>
    <style>
      .cls-1 {
        fill: #616379;
        fill-rule: evenodd;
        filter: url(#filter);
      }
    </style>
    <filter id="filter" x="398" y="1969" width="52" height="60" filterUnits="userSpaceOnUse">
      <feFlood result="flood" flood-color="#00b3b3"/>
      <feComposite result="composite" operator="in" in2="SourceGraphic"/>
      <feBlend result="blend" in2="SourceGraphic"/>
    </filter>
  </defs>
  <path id="icon" class="cls-1" d="M415.465,2012.54a4.54,4.54,0,0,1-3.207-7.75l2.5-2.5a1,1,0,0,1,1.414,0l2.5,2.5A4.54,4.54,0,0,1,415.465,2012.54Zm0-8.13-1.793,1.8a2.528,2.528,0,0,0,0,3.58,2.593,2.593,0,0,0,3.586,0,2.534,2.534,0,0,0,0-3.58Zm9.443,14.59h-1.816c-13.836,0-25.092-12.99-25.092-28.95V1984a1,1,0,0,1,2,0v6.05c0,14.86,10.359,26.95,23.092,26.95h1.816c12.732,0,23.092-12.09,23.092-26.95V1984a1,1,0,0,1,2,0v6.05C450,2006.01,438.744,2019,424.908,2019ZM415,2001a4.342,4.342,0,0,1-.8-0.08,4.08,4.08,0,0,1-3.2-4.05v-0.21a3.5,3.5,0,0,1-5-3.25v-12.22c-5.31-1.28-8-3.03-8-5.19,0-4.6,13.08-7,26-7s26,2.4,26,7c0,4.48-12.414,6.87-25,6.99v4.88a4.081,4.081,0,0,1-3.2,4.05,4.329,4.329,0,0,1-.8.08h0a3.988,3.988,0,0,1-2-.54V1997A4.008,4.008,0,0,1,415,2001Zm-2-7.5v3.37a2.106,2.106,0,0,0,1.59,2.09A2,2,0,0,0,417,1997v-9a1,1,0,0,1,2,0,2,2,0,0,0,2,2h0a1.922,1.922,0,0,0,.409-0.04,2.106,2.106,0,0,0,1.591-2.09V1982a1,1,0,0,1,1-1c15.757,0,24-3.26,24-5s-8.243-5-24-5-24,3.25-24,5c0,0.63,1.519,2.16,7.271,3.43a1,1,0,0,1,.768,1.16,1.933,1.933,0,0,0-.039.37v12.45a1.565,1.565,0,0,0,1.08,1.53,1.514,1.514,0,0,0,1.92-1.44A1,1,0,0,1,413,1993.5Zm-6-7.1a0.813,0.813,0,0,1-.218-0.03c-5.827-1.3-8.782-3.1-8.782-5.37v-5a1,1,0,0,1,2,0c0,0.63,1.519,2.16,7.271,3.43a1,1,0,0,1,.768,1.16,1.933,1.933,0,0,0-.039.37v4.44a1.007,1.007,0,0,1-.374.78A1.026,1.026,0,0,1,407,1986.4Zm-7-7.48V1981c0,0.58,1.29,1.92,6,3.13v-2.94A19.821,19.821,0,0,1,400,1978.92Zm24,9.08a1,1,0,0,1-1-1v-5a1,1,0,0,1,1-1c15.757,0,24-3.26,24-5a1,1,0,0,1,2,0v5C450,1985.6,436.92,1988,424,1988Zm1-5.01v3c15.106-.13,23-3.28,23-4.99v-2.12C443.993,1981.5,434.546,1982.9,425,1982.99ZM424,2029c-12.92,0-26-2.4-26-7v-46a1,1,0,0,1,2,0,0.6,0.6,0,0,0,.013.11l0.044,0.13-0.057.05v0.18l0.133-.09-0.133.12v0.11l0.2-.15c0.04,0.06.065,0.09,0.1,0.13,0,0,.074.07,0.076,0.07,0.046,0.05.088,0.09,0.137,0.14l0.084,0.07a1.7,1.7,0,0,0,.2.16l0.125,0.09c0.083,0.06.159,0.11,0.24,0.16l0.14,0.09c0.094,0.05.183,0.11,0.276,0.16l0.163,0.08c0.108,0.06.216,0.11,0.327,0.17l0.181,0.08c0.119,0.06.247,0.11,0.379,0.17l0.179,0.07c0.142,0.06.288,0.12,0.436,0.17l0.183,0.07c0.157,0.06.326,0.12,0.5,0.18l0.17,0.06c0.185,0.06.378,0.12,0.572,0.18l0.145,0.04c0.212,0.06.43,0.13,0.653,0.19l-0.138,1,0.26-.97c0.243,0.07.492,0.13,0.747,0.19,0.357,0.09.644,0.16,0.939,0.22a1,1,0,0,1,.77,1.16,1.933,1.933,0,0,0-.039.37v12.45a1.565,1.565,0,0,0,1.08,1.53,1.514,1.514,0,0,0,1.92-1.44,1,1,0,0,1,2,0v3.37a2.106,2.106,0,0,0,1.59,2.09A2,2,0,0,0,417,1997v-9a1,1,0,0,1,2,0,2.008,2.008,0,0,0,2.409,1.96,2.106,2.106,0,0,0,1.591-2.09V1982a1,1,0,0,1,1-1c15.757,0,24-3.26,24-5a1,1,0,0,1,2,0v46C450,2026.6,436.92,2029,424,2029Zm-24-50.08V2022c0,1.74,8.243,5,24,5s24-3.26,24-5v-43.12c-4.007,2.62-13.454,4.02-23,4.11v4.88a4.081,4.081,0,0,1-3.2,4.05,4.012,4.012,0,0,1-2.8-.46V1997a4.008,4.008,0,0,1-4,4,4.342,4.342,0,0,1-.8-0.08,4.08,4.08,0,0,1-3.2-4.05v-0.21a3.5,3.5,0,0,1-5-3.25v-12.22c-0.025-.01-0.048-0.01-0.073-0.02-0.344-.08-0.607-0.15-0.864-0.22,0,0-.1-0.03-0.1-0.03-0.261-.07-0.494-0.14-0.722-0.2l-0.12-.04c-0.247-.07-0.455-0.14-0.657-0.21l-0.192-.06c-0.175-.06-0.358-0.12-0.535-0.19l-0.212-.08c-0.156-.06-0.319-0.12-0.478-0.19l-0.146-.06c-0.2-.08-0.348-0.15-0.489-0.21l-0.2-.1c-0.134-.06-0.265-0.13-0.392-0.19l-0.2-.11c-0.118-.06-0.234-0.13-0.349-0.2l-0.18-.11A0.473,0.473,0,0,0,400,1978.92Zm13-5.92a1,1,0,1,1-1-1A1,1,0,0,1,413,1973Zm-9,3a1,1,0,1,1-1-1A1,1,0,0,1,404,1976Zm9,3a1,1,0,1,1-1-1A1,1,0,0,1,413,1979Zm12,0a1,1,0,1,1-1-1A1,1,0,0,1,425,1979Zm-15-3a1,1,0,1,1-1-1A1,1,0,0,1,410,1976Zm9-3a1,1,0,1,1-1-1A1,1,0,0,1,419,1973Zm6,0a1,1,0,1,1-1-1A1,1,0,0,1,425,1973Zm-9,3a1,1,0,1,1-1-1A1,1,0,0,1,416,1976Zm3,3a1,1,0,1,1-1-1A1,1,0,0,1,419,1979Zm3-3a1,1,0,1,1-1-1A1,1,0,0,1,422,1976Zm9-3a1,1,0,1,1-1-1A1,1,0,0,1,431,1973Zm6,0a1,1,0,1,1-1-1A1,1,0,0,1,437,1973Zm-9,3a1,1,0,1,1-1-1A1,1,0,0,1,428,1976Zm3,3a1,1,0,1,1-1-1A1,1,0,0,1,431,1979Zm6,0a1,1,0,1,1-1-1A1,1,0,0,1,437,1979Zm-3-3a1,1,0,1,1-1-1A1,1,0,0,1,434,1976Zm6,0a1,1,0,1,1-1-1A1,1,0,0,1,440,1976Zm6,0a1,1,0,1,1-1-1A1,1,0,0,1,446,1976Z" transform="translate(-398 -1969)"/>
</svg>
