<svg 
 xmlns="http://www.w3.org/2000/svg"
 xmlns:xlink="http://www.w3.org/1999/xlink"
 width="52px" height="60px">
<defs>
<filter id="Filter_0">
    <feFlood flood-color="rgb(0, 179, 179)" flood-opacity="1" result="floodOut" />
    <feComposite operator="atop" in="floodOut" in2="SourceGraphic" result="compOut" />
    <feBlend mode="normal" in="compOut" in2="SourceGraphic" />
</filter>

</defs>
<g filter="url(#Filter_0)">
<path fill-rule="evenodd"  fill="rgb(97, 99, 121)"
 d="M26.000,59.999 C13.080,59.999 -0.000,57.595 -0.000,52.999 L-0.000,21.052 L-0.000,14.999 L-0.000,11.999 L-0.000,6.999 C-0.000,2.404 13.080,-0.000 26.000,-0.000 C38.920,-0.000 52.000,2.404 52.000,6.999 L52.000,11.999 L52.000,14.999 L52.000,21.052 L52.000,52.999 C52.000,57.595 38.920,59.999 26.000,59.999 ZM2.000,11.999 C2.000,12.579 3.290,13.925 8.000,15.130 L8.000,12.191 C7.982,12.187 7.967,12.182 7.950,12.178 C7.942,12.176 7.935,12.175 7.927,12.173 C7.583,12.088 7.320,12.021 7.063,11.951 C7.059,11.950 6.964,11.924 6.960,11.923 C6.902,11.907 6.855,11.893 6.799,11.877 C6.659,11.838 6.522,11.799 6.386,11.759 C6.339,11.745 6.285,11.731 6.238,11.717 L6.118,11.680 C5.887,11.610 5.694,11.550 5.505,11.488 C5.375,11.445 5.250,11.401 5.124,11.358 C4.994,11.313 4.863,11.268 4.734,11.222 L4.522,11.142 C4.476,11.125 4.429,11.105 4.382,11.087 C4.289,11.051 4.196,11.015 4.106,10.978 C4.085,10.970 4.064,10.962 4.044,10.954 L3.898,10.893 C3.695,10.807 3.550,10.742 3.409,10.679 L3.300,10.627 C3.275,10.615 3.245,10.604 3.221,10.592 C3.194,10.580 3.161,10.568 3.135,10.556 C3.081,10.529 3.041,10.501 2.990,10.475 C2.932,10.445 2.872,10.418 2.816,10.388 L2.617,10.281 C2.499,10.218 2.383,10.150 2.268,10.081 L2.088,9.971 C2.082,9.968 2.077,9.964 2.071,9.961 C2.050,9.949 2.026,9.937 2.007,9.925 C2.005,9.923 2.002,9.922 2.000,9.921 L2.000,11.999 ZM26.000,1.999 C10.243,1.999 2.000,5.254 2.000,6.999 C2.000,7.036 2.006,7.076 2.017,7.119 L2.030,7.158 C2.059,7.249 2.113,7.351 2.196,7.463 L2.198,7.461 C2.221,7.492 2.236,7.510 2.253,7.532 C2.271,7.555 2.288,7.577 2.308,7.600 C2.328,7.619 2.368,7.661 2.370,7.662 C2.416,7.709 2.458,7.754 2.507,7.798 L2.591,7.868 C2.672,7.937 2.729,7.986 2.793,8.031 L2.918,8.120 C2.998,8.177 3.072,8.227 3.150,8.277 C3.198,8.308 3.252,8.339 3.304,8.370 C3.396,8.426 3.483,8.477 3.574,8.526 L3.627,8.554 C3.668,8.576 3.711,8.599 3.755,8.622 C3.857,8.675 3.959,8.727 4.064,8.776 C4.123,8.805 4.185,8.834 4.247,8.862 C4.366,8.917 4.493,8.973 4.624,9.028 L4.766,9.088 C4.780,9.094 4.794,9.099 4.808,9.105 C4.949,9.163 5.092,9.219 5.239,9.274 L5.360,9.320 C5.383,9.328 5.406,9.337 5.430,9.345 C5.585,9.402 5.751,9.460 5.921,9.518 L5.981,9.538 C6.045,9.559 6.109,9.581 6.174,9.602 C6.334,9.654 6.496,9.705 6.661,9.756 C6.777,9.791 6.898,9.826 7.019,9.861 C7.162,9.902 7.305,9.944 7.454,9.984 C7.621,10.030 7.796,10.075 7.973,10.121 C8.076,10.147 8.176,10.175 8.281,10.201 C8.597,10.279 8.926,10.356 9.271,10.433 C9.388,10.458 9.491,10.510 9.586,10.570 C9.598,10.578 9.614,10.580 9.626,10.588 C9.717,10.651 9.791,10.734 9.856,10.823 C9.865,10.835 9.880,10.843 9.888,10.856 C9.956,10.958 10.003,11.072 10.030,11.193 C10.031,11.196 10.033,11.199 10.034,11.202 C10.060,11.326 10.063,11.458 10.039,11.590 C10.016,11.712 10.000,11.835 10.000,11.964 L10.000,16.396 L10.000,24.411 C10.000,25.131 10.454,25.774 11.080,25.943 C12.065,26.207 13.000,25.464 13.000,24.500 C13.000,23.946 13.447,23.499 14.000,23.499 C14.553,23.499 15.000,23.946 15.000,24.500 L15.000,27.869 C15.000,28.880 15.683,29.778 16.590,29.958 C17.875,30.212 19.000,29.236 19.000,27.999 L19.000,18.999 C19.000,18.447 19.447,17.999 20.000,17.999 C20.552,17.999 21.000,18.447 21.000,18.999 C21.000,19.146 21.018,19.289 21.049,19.428 C21.058,19.469 21.074,19.506 21.086,19.546 C21.113,19.643 21.143,19.738 21.185,19.828 C21.203,19.867 21.226,19.904 21.247,19.942 C21.293,20.027 21.343,20.111 21.401,20.189 C21.425,20.220 21.451,20.250 21.477,20.281 C21.543,20.358 21.613,20.431 21.690,20.498 C21.716,20.521 21.743,20.543 21.771,20.565 C21.855,20.631 21.945,20.691 22.040,20.743 C22.067,20.758 22.093,20.773 22.121,20.787 C22.222,20.837 22.329,20.877 22.439,20.910 C22.466,20.918 22.492,20.928 22.520,20.935 C22.635,20.964 22.755,20.979 22.877,20.987 C22.904,20.989 22.929,20.994 22.955,20.995 C23.103,20.999 23.255,20.988 23.409,20.958 C24.316,20.778 25.000,19.880 25.000,18.868 L25.000,17.999 L25.000,12.999 C25.000,12.446 25.447,11.999 26.000,11.999 C41.757,11.999 50.000,8.744 50.000,6.999 C50.000,5.254 41.757,1.999 26.000,1.999 ZM50.000,9.876 C49.974,9.893 49.942,9.908 49.915,9.925 C49.905,9.932 49.892,9.939 49.880,9.946 C49.582,10.135 49.251,10.316 48.898,10.492 C48.898,10.492 48.898,10.492 48.898,10.492 C48.846,10.518 48.790,10.544 48.737,10.570 C48.390,10.737 48.021,10.899 47.628,11.054 C47.523,11.096 47.424,11.139 47.315,11.180 C47.315,11.180 47.315,11.180 47.315,11.180 C46.888,11.340 46.438,11.494 45.964,11.641 C45.964,11.641 45.964,11.641 45.964,11.641 C45.893,11.663 45.818,11.684 45.744,11.705 C45.327,11.831 44.893,11.952 44.444,12.068 C44.444,12.068 44.444,12.068 44.444,12.068 C44.382,12.084 44.318,12.099 44.254,12.115 C43.656,12.266 43.035,12.409 42.388,12.542 C42.342,12.552 42.296,12.562 42.249,12.572 C42.249,12.572 42.249,12.572 42.249,12.572 C41.681,12.687 41.099,12.796 40.498,12.897 L40.498,12.897 C40.479,12.900 40.460,12.903 40.440,12.906 C39.850,13.005 39.243,13.096 38.626,13.182 C38.626,13.182 38.626,13.182 38.626,13.182 C38.426,13.210 38.224,13.236 38.022,13.262 C38.022,13.262 38.022,13.262 38.022,13.262 C37.550,13.324 37.072,13.381 36.588,13.435 L36.588,13.435 C36.570,13.437 36.552,13.439 36.534,13.441 C35.686,13.534 34.826,13.619 33.947,13.689 C33.901,13.692 33.854,13.695 33.807,13.699 C33.807,13.699 33.807,13.699 33.807,13.699 C33.189,13.747 32.565,13.789 31.936,13.825 C31.936,13.825 31.936,13.825 31.936,13.825 C31.739,13.837 31.541,13.847 31.343,13.857 C30.815,13.885 30.285,13.908 29.752,13.927 C29.752,13.927 29.752,13.927 29.752,13.927 C29.543,13.935 29.335,13.943 29.126,13.949 C29.126,13.949 29.126,13.949 29.126,13.949 C28.419,13.971 27.710,13.987 27.000,13.994 L27.000,16.994 C42.106,16.860 50.000,13.707 50.000,11.999 L50.000,9.876 ZM50.000,14.999 L50.000,14.868 C45.997,17.498 36.547,18.903 26.989,18.993 C26.989,18.993 26.989,18.993 26.989,18.993 C26.961,19.955 26.621,20.845 26.056,21.540 C26.042,21.556 26.026,21.569 26.013,21.585 C25.884,21.740 25.747,21.888 25.597,22.021 C25.551,22.061 25.497,22.093 25.449,22.132 C25.324,22.232 25.199,22.334 25.062,22.419 C24.966,22.479 24.859,22.523 24.757,22.574 C24.658,22.624 24.564,22.682 24.460,22.723 C24.248,22.807 24.028,22.874 23.799,22.919 C23.547,22.969 23.293,22.993 23.042,22.995 C23.028,22.995 23.014,22.999 23.000,22.999 C22.999,22.999 22.999,22.999 22.999,22.999 C22.951,22.999 22.908,22.982 22.861,22.981 C22.602,22.971 22.350,22.936 22.103,22.879 C22.007,22.857 21.913,22.834 21.820,22.805 C21.533,22.717 21.254,22.609 21.000,22.462 L21.000,27.999 C21.000,30.204 19.206,31.999 17.001,31.999 C16.734,31.999 16.466,31.972 16.200,31.919 C14.346,31.552 13.000,29.848 13.000,27.869 L13.000,27.661 C12.280,28.004 11.402,28.101 10.562,27.874 C9.053,27.470 8.000,26.046 8.000,24.411 L8.000,17.178 C5.337,16.532 3.331,15.771 2.000,14.897 L2.000,14.999 L2.000,21.052 C2.000,35.911 12.359,47.999 25.092,47.999 L26.908,47.999 C39.640,47.999 50.000,35.911 50.000,21.052 L50.000,14.999 ZM50.000,32.369 C46.173,42.722 37.264,49.999 26.908,49.999 L25.092,49.999 C14.735,49.999 5.827,42.722 2.000,32.369 L2.000,52.999 C2.000,54.744 10.243,57.999 26.000,57.999 C41.757,57.999 50.000,54.744 50.000,52.999 L50.000,32.369 ZM17.465,43.535 C16.253,43.535 15.113,43.063 14.258,42.206 C12.489,40.437 12.489,37.561 14.258,35.792 L16.758,33.292 C17.148,32.902 17.781,32.902 18.172,33.292 L20.672,35.792 C22.439,37.561 22.439,40.437 20.672,42.206 C19.815,43.063 18.676,43.535 17.465,43.535 ZM19.258,37.206 L17.465,35.413 L15.672,37.206 C15.193,37.686 14.929,38.322 14.929,38.999 C14.929,39.676 15.193,40.313 15.672,40.792 C16.628,41.749 18.298,41.749 19.258,40.792 C20.245,39.804 20.245,38.195 19.258,37.206 ZM47.000,7.999 C46.447,7.999 46.000,7.551 46.000,6.999 C46.000,6.447 46.447,5.999 47.000,5.999 C47.552,5.999 48.000,6.447 48.000,6.999 C48.000,7.551 47.552,7.999 47.000,7.999 ZM41.000,7.999 C40.448,7.999 40.000,7.551 40.000,6.999 C40.000,6.447 40.448,5.999 41.000,5.999 C41.552,5.999 42.000,6.447 42.000,6.999 C42.000,7.551 41.552,7.999 41.000,7.999 ZM38.000,10.999 C37.447,10.999 37.000,10.552 37.000,9.999 C37.000,9.447 37.447,8.999 38.000,8.999 C38.552,8.999 39.000,9.447 39.000,9.999 C39.000,10.552 38.552,10.999 38.000,10.999 ZM38.000,4.999 C37.447,4.999 37.000,4.551 37.000,3.999 C37.000,3.447 37.447,2.999 38.000,2.999 C38.552,2.999 39.000,3.447 39.000,3.999 C39.000,4.551 38.552,4.999 38.000,4.999 ZM35.000,7.999 C34.447,7.999 34.000,7.551 34.000,6.999 C34.000,6.447 34.447,5.999 35.000,5.999 C35.552,5.999 36.000,6.447 36.000,6.999 C36.000,7.551 35.552,7.999 35.000,7.999 ZM32.000,10.999 C31.447,10.999 31.000,10.552 31.000,9.999 C31.000,9.447 31.447,8.999 32.000,8.999 C32.552,8.999 33.000,9.447 33.000,9.999 C33.000,10.552 32.552,10.999 32.000,10.999 ZM32.000,4.999 C31.447,4.999 31.000,4.551 31.000,3.999 C31.000,3.447 31.447,2.999 32.000,2.999 C32.552,2.999 33.000,3.447 33.000,3.999 C33.000,4.551 32.552,4.999 32.000,4.999 ZM29.000,7.999 C28.447,7.999 28.000,7.551 28.000,6.999 C28.000,6.447 28.447,5.999 29.000,5.999 C29.552,5.999 30.000,6.447 30.000,6.999 C30.000,7.551 29.552,7.999 29.000,7.999 ZM26.000,10.999 C25.448,10.999 25.000,10.552 25.000,9.999 C25.000,9.447 25.448,8.999 26.000,8.999 C26.552,8.999 27.000,9.447 27.000,9.999 C27.000,10.552 26.552,10.999 26.000,10.999 ZM26.000,4.999 C25.448,4.999 25.000,4.551 25.000,3.999 C25.000,3.447 25.448,2.999 26.000,2.999 C26.552,2.999 27.000,3.447 27.000,3.999 C27.000,4.551 26.552,4.999 26.000,4.999 ZM23.000,7.999 C22.447,7.999 22.000,7.551 22.000,6.999 C22.000,6.447 22.447,5.999 23.000,5.999 C23.552,5.999 24.000,6.447 24.000,6.999 C24.000,7.551 23.552,7.999 23.000,7.999 ZM20.000,10.999 C19.447,10.999 19.000,10.552 19.000,9.999 C19.000,9.447 19.447,8.999 20.000,8.999 C20.552,8.999 21.000,9.447 21.000,9.999 C21.000,10.552 20.552,10.999 20.000,10.999 ZM20.000,4.999 C19.447,4.999 19.000,4.551 19.000,3.999 C19.000,3.447 19.447,2.999 20.000,2.999 C20.552,2.999 21.000,3.447 21.000,3.999 C21.000,4.551 20.552,4.999 20.000,4.999 ZM17.000,7.999 C16.447,7.999 16.000,7.551 16.000,6.999 C16.000,6.447 16.447,5.999 17.000,5.999 C17.552,5.999 18.000,6.447 18.000,6.999 C18.000,7.551 17.552,7.999 17.000,7.999 ZM14.000,10.999 C13.447,10.999 13.000,10.552 13.000,9.999 C13.000,9.447 13.447,8.999 14.000,8.999 C14.552,8.999 15.000,9.447 15.000,9.999 C15.000,10.552 14.552,10.999 14.000,10.999 ZM14.000,4.999 C13.447,4.999 13.000,4.551 13.000,3.999 C13.000,3.447 13.447,2.999 14.000,2.999 C14.552,2.999 15.000,3.447 15.000,3.999 C15.000,4.551 14.552,4.999 14.000,4.999 ZM11.000,7.999 C10.448,7.999 10.000,7.551 10.000,6.999 C10.000,6.447 10.448,5.999 11.000,5.999 C11.552,5.999 12.000,6.447 12.000,6.999 C12.000,7.551 11.552,7.999 11.000,7.999 ZM5.000,7.999 C4.448,7.999 4.000,7.551 4.000,6.999 C4.000,6.447 4.448,5.999 5.000,5.999 C5.552,5.999 6.000,6.447 6.000,6.999 C6.000,7.551 5.552,7.999 5.000,7.999 Z"/>
</g>
</svg>