<svg 
 xmlns="http://www.w3.org/2000/svg"
 xmlns:xlink="http://www.w3.org/1999/xlink"
 width="50px" height="49px">
<defs>
<filter id="Filter_0">
    <feFlood flood-color="rgb(0, 179, 179)" flood-opacity="1" result="floodOut" />
    <feComposite operator="atop" in="floodOut" in2="SourceGraphic" result="compOut" />
    <feBlend mode="normal" in="compOut" in2="SourceGraphic" />
</filter>

</defs>
<g filter="url(#Filter_0)">
<path fill-rule="evenodd"  fill="rgb(97, 99, 121)"
 d="M38.187,48.097 C37.608,48.097 37.048,47.958 36.521,47.681 L25.706,41.995 C25.256,41.760 24.686,41.758 24.234,41.995 L13.420,47.681 C11.931,48.463 10.071,48.076 9.005,46.810 C8.318,45.996 8.041,44.965 8.223,43.905 L10.289,31.863 C10.377,31.351 10.206,30.828 9.833,30.463 L1.084,21.935 C0.101,20.977 -0.246,19.570 0.178,18.264 C0.602,16.957 1.710,16.024 3.069,15.826 L15.160,14.070 C15.676,13.994 16.121,13.671 16.351,13.204 L21.759,2.247 C22.366,1.015 23.598,0.252 24.970,0.252 C26.343,0.252 27.574,1.015 28.181,2.247 L33.589,13.204 C33.819,13.671 34.264,13.994 34.779,14.070 L46.871,15.826 C48.230,16.024 49.338,16.957 49.763,18.264 C50.186,19.570 49.840,20.977 48.856,21.935 L40.107,30.463 C39.734,30.828 39.563,31.351 39.651,31.863 L41.717,43.905 C41.899,44.964 41.622,45.996 40.935,46.810 C40.246,47.628 39.244,48.097 38.187,48.097 ZM24.970,39.814 C25.548,39.814 26.125,39.957 26.637,40.225 L37.452,45.912 C38.117,46.262 38.934,46.081 39.406,45.521 C39.706,45.165 39.826,44.712 39.746,44.243 L37.681,32.201 C37.481,31.039 37.866,29.854 38.711,29.031 L47.460,20.503 C47.901,20.073 48.051,19.467 47.860,18.882 C47.670,18.296 47.193,17.894 46.584,17.805 L34.492,16.048 C33.325,15.879 32.317,15.146 31.796,14.089 L26.389,3.132 C26.116,2.580 25.586,2.251 24.970,2.251 C24.354,2.251 23.824,2.580 23.552,3.132 L18.144,14.089 C17.623,15.146 16.614,15.879 15.447,16.048 L3.356,17.805 C2.747,17.894 2.270,18.296 2.080,18.882 C1.889,19.467 2.039,20.073 2.480,20.503 L11.229,29.031 C12.074,29.854 12.459,31.039 12.260,32.201 L10.194,44.243 C10.114,44.712 10.234,45.166 10.534,45.521 C11.007,46.081 11.823,46.262 12.489,45.912 L23.303,40.226 C23.815,39.957 24.391,39.814 24.970,39.814 Z"/>
</g>
</svg>