<svg xmlns="http://www.w3.org/2000/svg" xmlns:xlink="http://www.w3.org/1999/xlink" width="49.94" height="47.84" viewBox="0 0 49.94 47.84">
  <metadata><?xpacket begin="﻿" id="W5M0MpCehiHzreSzNTczkc9d"?>
<x:xmpmeta xmlns:x="adobe:ns:meta/" x:xmptk="Adobe XMP Core 5.6-c138 79.159824, 2016/09/14-01:09:01        ">
   <rdf:RDF xmlns:rdf="http://www.w3.org/1999/02/22-rdf-syntax-ns#">
      <rdf:Description rdf:about=""/>
   </rdf:RDF>
</x:xmpmeta>
                                                                                                    
                                                                                                    
                                                                                                    
                                                                                                    
                                                                                                    
                                                                                                    
                                                                                                    
                                                                                                    
                                                                                                    
                                                                                                    
                                                                                                    
                                                                                                    
                                                                                                    
                                                                                                    
                                                                                                    
                                                                                                    
                                                                                                    
                                                                                                    
                                                                                                    
                                                                                                    
                           
<?xpacket end="w"?></metadata>
<defs>
    <style>
      .cls-1 {
        fill: #616379;
        fill-rule: evenodd;
        filter: url(#filter);
      }
    </style>
    <filter id="filter" x="1189" y="1975.25" width="49.94" height="47.84" filterUnits="userSpaceOnUse">
      <feFlood result="flood" flood-color="#00b3b3"/>
      <feComposite result="composite" operator="in" in2="SourceGraphic"/>
      <feBlend result="blend" in2="SourceGraphic"/>
    </filter>
  </defs>
  <path id="icon" class="cls-1" d="M1227.19,2023.1a3.537,3.537,0,0,1-1.67-.42l-10.81-5.68a1.611,1.611,0,0,0-1.48,0l-10.81,5.68a3.625,3.625,0,0,1-4.42-.87,3.525,3.525,0,0,1-.78-2.9l2.07-12.05a1.568,1.568,0,0,0-.46-1.4l-8.75-8.53a3.578,3.578,0,0,1,1.99-6.1l12.09-1.76a1.582,1.582,0,0,0,1.19-.87l5.41-10.95a3.576,3.576,0,0,1,6.42,0l5.41,10.95a1.582,1.582,0,0,0,1.19.87l12.09,1.76a3.578,3.578,0,0,1,1.99,6.1l-8.75,8.53a1.568,1.568,0,0,0-.46,1.4l2.07,12.05a3.534,3.534,0,0,1-.78,2.9A3.6,3.6,0,0,1,1227.19,2023.1Zm-13.22-8.29a3.744,3.744,0,0,1,1.67.41l10.81,5.69a1.606,1.606,0,0,0,1.96-.39,1.552,1.552,0,0,0,.34-1.28l-2.07-12.04a3.59,3.59,0,0,1,1.03-3.17l8.75-8.53a1.55,1.55,0,0,0,.4-1.62,1.57,1.57,0,0,0-1.28-1.08l-12.09-1.75a3.574,3.574,0,0,1-2.69-1.96l-5.41-10.96a1.586,1.586,0,0,0-2.84,0l-5.41,10.96a3.574,3.574,0,0,1-2.69,1.96l-12.09,1.75a1.57,1.57,0,0,0-1.28,1.08,1.55,1.55,0,0,0,.4,1.62l8.75,8.53a3.59,3.59,0,0,1,1.03,3.17l-2.07,12.04a1.543,1.543,0,0,0,.34,1.28,1.606,1.606,0,0,0,1.96.39l10.81-5.68A3.627,3.627,0,0,1,1213.97,2014.81Z" transform="translate(-1189 -1975.25)"/>
</svg>
