<svg id="d743d61e-e3fa-42e1-a458-499aaa8798a5" data-name="Слой 1" xmlns="http://www.w3.org/2000/svg" viewBox="0 0 91 58.97"><title>two-bed</title><path d="M86.08,35.69c-.28,0-.57,0-.84,0V34A13.74,13.74,0,0,0,71.5,20.27h-40A13.74,13.74,0,0,0,17.77,34v1.74c-.28,0-.56,0-.84,0a10.42,10.42,0,0,0-4.07,20v2.36a8.87,8.87,0,0,0,2.59,6.27,4.44,4.44,0,0,0,1.86,8.48H22v3.9a1.52,1.52,0,1,0,3,0v-3.9H78.19v3.9a1.52,1.52,0,1,0,3,0v-3.9h4.45a4.44,4.44,0,0,0,1.86-8.48,8.87,8.87,0,0,0,2.59-6.27V55.7a10.42,10.42,0,0,0-4.07-20ZM20.82,34h0A10.68,10.68,0,0,1,31.5,23.32h40A10.68,10.68,0,0,1,82.18,34v2.46a10.44,10.44,0,0,0-6.53,9.66c0,.17,0,.34,0,.51H27.32c0-.17,0-.34,0-.51a10.43,10.43,0,0,0-6.53-9.66ZM13.38,52.55A7.36,7.36,0,1,1,24.3,46.12c0,.17,0,.34,0,.51H21.75A8.91,8.91,0,0,0,13.38,52.55ZM85.7,69.76H17.3a1.4,1.4,0,1,1,0-2.8H85.7a1.4,1.4,0,1,1,0,2.8Zm1.4-11.7a5.85,5.85,0,0,1-5.85,5.85H21.75a5.85,5.85,0,0,1-5.85-5.85V55.52a5.85,5.85,0,0,1,5.85-5.85H81.25a5.85,5.85,0,0,1,5.85,5.85Zm2.53-5.51a8.91,8.91,0,0,0-8.38-5.93H78.73c0-.17,0-.34,0-.51a7.37,7.37,0,1,1,10.92,6.44Z" transform="translate(-6 -19.77)" style="stroke:#000;stroke-miterlimit:10"/><text transform="translate(30.8 24.74)" style="font-size:26.85784912109375px;font-family:ProximaNova-Bold, Proxima Nova;font-weight:700">x2</text></svg>