<svg id="05d98f38-153c-4386-8f01-49095e31dc6d" data-name="Слой 1" xmlns="http://www.w3.org/2000/svg" viewBox="0 0 86.27 82.71"><title>two-adults</title><circle cx="19.3" cy="8.4" r="8.4"/><path d="M45.42,66.75c-.3-1.87-2.92-18.36-3.54-21.12-1.53-6.86-7.61-6.86-10.89-6.86H21.33c-3.27,0-9.36,0-10.89,6.86-.62,2.76-3.24,19.25-3.54,21.12a3.65,3.65,0,0,0,7.21,1.15c.69-4.34,2.41-15,3.17-19.21V99.75a3.65,3.65,0,1,0,7.3,0V74.18h3.14V99.75a3.65,3.65,0,0,0,7.3,0V48.68c.76,4.22,2.48,14.87,3.17,19.21a3.65,3.65,0,0,0,7.21-1.15Z" transform="translate(-6.86 -20.7)"/><circle cx="66.97" cy="8.4" r="8.4"/><path d="M93.09,66.75c-.3-1.87-2.92-18.36-3.54-21.12-1.53-6.86-7.61-6.86-10.89-6.86H69c-3.27,0-9.36,0-10.89,6.86-.62,2.76-3.24,19.25-3.54,21.12a3.65,3.65,0,0,0,7.21,1.15c.69-4.34,2.41-15,3.17-19.21V99.75a3.65,3.65,0,0,0,7.3,0V74.18H75.4V99.75a3.65,3.65,0,0,0,7.3,0V48.68c.76,4.22,2.48,14.87,3.17,19.21a3.65,3.65,0,0,0,7.21-1.15Z" transform="translate(-6.86 -20.7)"/></svg>