<svg id="f0e2ec82-b3ee-4e90-bb1b-0cfea30180f5" data-name="Layer 1" xmlns="http://www.w3.org/2000/svg" xmlns:xlink="http://www.w3.org/1999/xlink" viewBox="0 0 165.84 82.71"><defs><clipPath id="ba2849c4-84bb-4814-a320-b50a4fab1423" transform="translate(0 0)"><rect width="165.84" height="82.71" style="fill:none"/></clipPath></defs><title>two-adults_one-child</title><g style="clip-path:url(#ba2849c4-84bb-4814-a320-b50a4fab1423)"><path d="M19.3,0a8.4,8.4,0,1,1-8.4,8.4A8.4,8.4,0,0,1,19.3,0" transform="translate(0 0)"/><path d="M38.56,46.05c-.3-1.87-2.92-18.36-3.54-21.12-1.53-6.86-7.61-6.86-10.88-6.86H14.47c-3.27,0-9.36,0-10.89,6.86C3,27.69.34,44.18,0,46.05A3.65,3.65,0,0,0,7.26,47.2c.69-4.34,2.41-15,3.17-19.21V79.05a3.65,3.65,0,1,0,7.3,0V53.49h3.14V79.05a3.65,3.65,0,1,0,7.3,0V28c.76,4.22,2.48,14.87,3.17,19.21a3.65,3.65,0,0,0,7.21-1.15" transform="translate(0 0)"/><path d="M67,0a8.4,8.4,0,1,1-8.4,8.4A8.4,8.4,0,0,1,67,0" transform="translate(0 0)"/><path d="M86.22,46.05c-.3-1.87-2.92-18.36-3.54-21.12-1.53-6.86-7.61-6.86-10.89-6.86H62.14c-3.27,0-9.36,0-10.89,6.86-.61,2.76-3.24,19.25-3.54,21.12a3.65,3.65,0,0,0,7.21,1.15c.69-4.34,2.4-15,3.17-19.21V79.05a3.65,3.65,0,1,0,7.3,0V53.49h3.14V79.05a3.65,3.65,0,1,0,7.3,0V28C76.6,32.21,78.32,42.86,79,47.2a3.65,3.65,0,0,0,7.21-1.15" transform="translate(0 0)"/><path d="M152,23.36a6,6,0,1,1-6,6,6,6,0,0,1,6-6" transform="translate(0 0)"/><path d="M165.81,56.4c-.21-1.34-2.1-13.17-2.54-15.16-1.1-4.93-5.46-4.93-7.81-4.93h-6.93c-2.35,0-6.72,0-7.81,4.93-.44,2-2.33,13.81-2.54,15.16a2.62,2.62,0,0,0,5.18.82c.49-3.11,1.73-10.76,2.27-13.78V80.09a2.62,2.62,0,0,0,5.24,0V61.74h2.25V80.08a2.62,2.62,0,0,0,5.24,0V43.44c.55,3,1.78,10.67,2.27,13.78a2.62,2.62,0,0,0,2.58,2.21,2.66,2.66,0,0,0,.42,0,2.62,2.62,0,0,0,2.18-3" transform="translate(0 0)"/><rect x="97.8" y="42" width="28.5" height="7.5"/><rect x="108.3" y="31.5" width="7.5" height="28.5"/></g></svg>