<svg id="3cb7d840-9128-4e05-9a18-74fd27327c9e" data-name="Layer 1" xmlns="http://www.w3.org/2000/svg" xmlns:xlink="http://www.w3.org/1999/xlink" viewBox="0 0 1379.65 1379.65"><defs><clipPath id="0f75d703-8be2-4bac-9738-3dae9a2f1e6c" transform="translate(0 0)"><rect width="1379.65" height="1379.65" style="fill:none"/></clipPath></defs><title>vk-2</title><g style="clip-path:url(#0f75d703-8be2-4bac-9738-3dae9a2f1e6c)"><path d="M1379.65,689.83c0,381-308.85,689.82-689.82,689.82S0,1070.81,0,689.83,308.84,0,689.82,0s689.82,308.84,689.82,689.82" transform="translate(0 0)" style="fill:#fff"/><path d="M787.26,666.84S898.57,558.29,840.62,443.3s-228.14-97.51-228.14-97.51H476.33c-75.43,0-59.79,130.63-59.79,130.63v548.27H704.47c115,0,184-118.67,184-211.58S787.26,666.84,787.26,666.84M610.64,455.26c68.07,0,123.27,12,123.27,71.75s-37.72,93.83-76.35,93.83H545.23V504s-2.67-48.76,65.4-48.76m46,460H545.32V780s-4.6-56.11,51.52-56.11,161.9-8.28,161.9,87.39-72.67,104-102.11,104" transform="translate(0 0)" style="fill:#00b3b3"/><path d="M1118.12,955.39A79.42,79.42,0,1,1,1038.7,876a79.42,79.42,0,0,1,79.42,79.42" transform="translate(0 0)" style="fill:#00b3b3"/></g></svg>