<svg id="1df956db-6e62-438d-be68-46fa64b602f4" data-name="Layer 1" xmlns="http://www.w3.org/2000/svg" viewBox="0 0 1379.65 1379.65"><title>vk</title><circle cx="689.82" cy="689.82" r="689.82" style="fill:#fff"/><path d="M-2212.12-961.64s109.06-153.84,119.9-204.39c3.61-18.05-4.33-28.17-23.11-28.17h-94.61c-21.67,0-29.61,9.39-36.11,23.11,0,0-51.15,109-113.39,177.68-20,22.2-30.14,28.89-41.17,28.89-8.89,0-13-7.42-13-27.45v-175.5c0-24.55-2.89-31.78-23.11-31.78H-2588.4c-11.56,0-18.78,6.72-18.78,15.89,0,23.13,35.39,28.35,35.39,91v129.28c0,26-1.44,36.11-13.72,36.11-32.5,0-109.78-111.95-153.11-239.06-8.67-26-18.06-33.22-42.61-33.22h-94.61c-13.72,0-23.83,9.39-23.83,23.11,0,25.28,29.61,142.28,145.9,299,78,105.45,180.56,162.5,273,162.5,56.34,0,70.06-9.39,70.06-33.22v-80.89c0-20.22,7.94-28.89,19.5-28.89,13,0,35.94,4.18,89.56,57.06,63.56,60.67,67.89,85.95,102.56,85.95h106.17c10.83,0,20.95-5.05,20.95-23.11,0-23.84-31.06-66.45-78.73-117-19.5-26-51.28-54.17-61.39-67.17C-2226.56-937.09-2222.23-945.76-2212.12-961.64Z" transform="translate(3175.67 1646.77)" style="fill:#00b3b3"/></svg>