<svg xmlns="http://www.w3.org/2000/svg" xmlns:xlink="http://www.w3.org/1999/xlink" width="84" height="76" viewBox="0 0 84 76">
  <metadata><?xpacket begin="﻿" id="W5M0MpCehiHzreSzNTczkc9d"?>
<x:xmpmeta xmlns:x="adobe:ns:meta/" x:xmptk="Adobe XMP Core 5.6-c138 79.159824, 2016/09/14-01:09:01        ">
   <rdf:RDF xmlns:rdf="http://www.w3.org/1999/02/22-rdf-syntax-ns#">
      <rdf:Description rdf:about=""/>
   </rdf:RDF>
</x:xmpmeta>
                                                                                                    
                                                                                                    
                                                                                                    
                                                                                                    
                                                                                                    
                                                                                                    
                                                                                                    
                                                                                                    
                                                                                                    
                                                                                                    
                                                                                                    
                                                                                                    
                                                                                                    
                                                                                                    
                                                                                                    
                                                                                                    
                                                                                                    
                                                                                                    
                                                                                                    
                                                                                                    
                           
<?xpacket end="w"?></metadata>
<defs>
    <style>
      .cls-1 {
        fill: #616379;
        fill-rule: evenodd;
        filter: url(#filter);
      }
    </style>
    <filter id="filter" x="1063" y="2896" width="84" height="76" filterUnits="userSpaceOnUse">
      <feFlood result="flood" flood-color="#ffba00"/>
      <feComposite result="composite" operator="in" in2="SourceGraphic"/>
      <feBlend result="blend" in2="SourceGraphic"/>
    </filter>
  </defs>
  <path id="Seaside_Sunset" data-name="Seaside Sunset" class="cls-1" d="M1105,2907.17a1.4,1.4,0,0,0,1.4-1.4v-8.37a1.4,1.4,0,1,0-2.8,0v8.37A1.4,1.4,0,0,0,1105,2907.17Zm40.6,29.32h-8.4a1.4,1.4,0,1,0,0,2.79h8.4A1.4,1.4,0,1,0,1145.6,2936.49Zm-81.2,2.79h8.4a1.4,1.4,0,1,0,0-2.79h-8.4A1.4,1.4,0,1,0,1064.4,2939.28Zm63.37-22.71a1.36,1.36,0,0,0,.99-0.41l8.03-8.01a1.382,1.382,0,0,0,0-1.97,1.412,1.412,0,0,0-1.98,0l-8.03,8.01a1.382,1.382,0,0,0,0,1.97A1.36,1.36,0,0,0,1127.77,2916.57Zm-46.53-.41a1.4,1.4,0,0,0,1.98,0,1.382,1.382,0,0,0,0-1.97l-8.03-8.01a1.412,1.412,0,0,0-1.98,0,1.382,1.382,0,0,0,0,1.97Zm52.11,9.72a1.412,1.412,0,0,0,1.29.85,1.351,1.351,0,0,0,.55-0.11l3.86-1.64a1.392,1.392,0,0,0,.75-1.83,1.411,1.411,0,0,0-1.84-.74l-3.87,1.64A1.4,1.4,0,0,0,1133.35,2925.88Zm-62.62-.3,3.89,1.57a1.372,1.372,0,0,0,.52.1,1.4,1.4,0,0,0,.53-2.69l-3.9-1.57A1.4,1.4,0,1,0,1070.73,2925.58Zm20.4-16.71a1.4,1.4,0,0,0,1.29.85,1.351,1.351,0,0,0,.55-0.11,1.4,1.4,0,0,0,.74-1.83l-1.64-3.86a1.4,1.4,0,0,0-2.58,1.09Zm25.41,0.53a1.373,1.373,0,0,0,1.82-.77l1.57-3.88a1.4,1.4,0,0,0-2.59-1.05l-1.58,3.89A1.385,1.385,0,0,0,1116.54,2909.4Zm16.99,35.49a29.382,29.382,0,1,0-57.93-7.01,28.6,28.6,0,0,0,.92,7.17,14.845,14.845,0,0,0-13.13,4.43,1.4,1.4,0,0,0,2.02,1.94,12.138,12.138,0,0,1,8.79-3.76,11.977,11.977,0,0,1,3.44.5l0.47,0.16c0.46,0.16.9,0.34,1.34,0.54,0.01,0.01.03,0.02,0.04,0.03a10.967,10.967,0,0,1,1.12.61c0.07,0.05.14,0.09,0.21,0.14,0.31,0.2.6,0.41,0.89,0.64,0.09,0.07.18,0.13,0.26,0.2a10.052,10.052,0,0,1,1.02.94l1.01,1.04,1.01-1.04a12.225,12.225,0,0,1,2.13-1.76l0.37-.22a12.079,12.079,0,0,1,13.64.72l0.38,0.29h0a10.783,10.783,0,0,1,1.06.97l1.01,1.04,1.01-1.04a10.783,10.783,0,0,1,1.06-.97h0l0.38-.29a12.093,12.093,0,0,1,14.7,0l0.38,0.29h0a10.783,10.783,0,0,1,1.06.97l1.01,1.04,1.01-1.04a10.718,10.718,0,0,1,.85-0.8c0.14-.12.29-0.23,0.44-0.35s0.29-.23.44-0.34c0.2-.14.4-0.26,0.6-0.39l0.33-.21c0.23-.13.45-0.25,0.68-0.37,0.1-.05.2-0.1,0.31-0.15,0.23-.11.47-0.21,0.71-0.31l0.33-.12c0.24-.08.47-0.16,0.71-0.23a3.392,3.392,0,0,1,.43-0.11c0.21-.06.43-0.12,0.65-0.16s0.47-.08.7-0.11c0.14-.01.27-0.04,0.41-0.06,0.4-.03.8-0.05,1.2-0.05a12.138,12.138,0,0,1,8.79,3.76,1.4,1.4,0,0,0,2.02-1.94A14.963,14.963,0,0,0,1133.53,2944.89Zm-55.13-7.01a26.6,26.6,0,1,1,52.2,7.18c-0.02,0-.05.01-0.07,0.01a14.558,14.558,0,0,0-1.87.45,1.424,1.424,0,0,0-.16.05,14.837,14.837,0,0,0-3.03,1.33,22.053,22.053,0,0,0,1.93-9.02,22.4,22.4,0,0,0-44.8,0,22.139,22.139,0,0,0,2.35,9.89c-0.32.24-.64,0.49-0.95,0.76a15.011,15.011,0,0,0-4.32-2.62A26.122,26.122,0,0,1,1078.4,2937.88Zm54.6,16.76a14.9,14.9,0,0,0-9.8,3.66,14.95,14.95,0,0,0-19.6,0,14.95,14.95,0,0,0-19.6,0,14.966,14.966,0,0,0-20.61.95,1.4,1.4,0,0,0,2.02,1.94,12.154,12.154,0,0,1,17.58,0l1.01,1.04,1.01-1.04a12.154,12.154,0,0,1,17.58,0l1.01,1.04,1.01-1.04a12.154,12.154,0,0,1,17.58,0l1.01,1.04,1.01-1.04a12.154,12.154,0,0,1,17.58,0,1.4,1.4,0,0,0,2.02-1.94A14.952,14.952,0,0,0,1133,2954.64Zm0,9.77a14.9,14.9,0,0,0-9.8,3.66,14.95,14.95,0,0,0-19.6,0,14.95,14.95,0,0,0-19.6,0,14.966,14.966,0,0,0-20.61.95,1.4,1.4,0,1,0,2.02,1.94,12.154,12.154,0,0,1,17.58,0L1084,2972l1.01-1.04a12.154,12.154,0,0,1,17.58,0l1.01,1.04,1.01-1.04a12.154,12.154,0,0,1,17.58,0l1.01,1.04,1.01-1.04a12.154,12.154,0,0,1,17.58,0,1.4,1.4,0,0,0,2.02-1.94A14.991,14.991,0,0,0,1133,2964.41Z" transform="translate(-1063 -2896)"/>
</svg>
