<svg 
 xmlns="http://www.w3.org/2000/svg"
 xmlns:xlink="http://www.w3.org/1999/xlink"
 width="56px" height="40px">
<defs>
<filter id="Filter_0">
    <feFlood flood-color="rgb(0, 179, 179)" flood-opacity="1" result="floodOut" />
    <feComposite operator="atop" in="floodOut" in2="SourceGraphic" result="compOut" />
    <feBlend mode="normal" in="compOut" in2="SourceGraphic" />
</filter>

</defs>
<g filter="url(#Filter_0)">
<path fill-rule="evenodd"  fill="rgb(97, 99, 121)"
 d="M54.720,13.517 C54.524,13.712 54.268,13.810 54.013,13.810 C53.757,13.810 53.501,13.712 53.306,13.517 C46.439,6.650 37.296,2.869 27.559,2.869 C17.821,2.869 8.677,6.650 1.811,13.517 C1.421,13.908 0.788,13.908 0.397,13.517 C0.007,13.126 0.007,12.494 0.397,12.103 C7.641,4.858 17.287,0.870 27.559,0.870 C37.830,0.870 47.477,4.858 54.720,12.103 C55.110,12.494 55.110,13.126 54.720,13.517 ZM48.841,17.981 C49.231,18.371 49.231,19.004 48.841,19.395 C48.450,19.785 47.817,19.785 47.427,19.395 C36.471,8.439 18.645,8.439 7.690,19.395 C7.495,19.590 7.239,19.688 6.983,19.688 C6.727,19.688 6.471,19.590 6.276,19.395 C5.885,19.004 5.885,18.371 6.276,17.981 C18.012,6.244 37.106,6.246 48.841,17.981 ZM27.559,17.488 C33.384,17.488 38.854,19.751 42.962,23.860 C43.353,24.250 43.353,24.883 42.962,25.273 C42.767,25.469 42.511,25.567 42.255,25.567 C41.999,25.567 41.744,25.469 41.548,25.273 C37.818,21.543 32.849,19.489 27.559,19.489 C22.268,19.489 17.300,21.543 13.569,25.273 C13.178,25.664 12.545,25.664 12.155,25.273 C11.764,24.883 11.764,24.250 12.155,23.860 C16.263,19.751 21.734,17.488 27.559,17.488 ZM27.559,26.896 C31.171,26.896 34.110,29.835 34.110,33.447 C34.110,37.059 31.171,39.999 27.559,39.999 C23.946,39.999 21.007,37.059 21.007,33.447 C21.007,29.835 23.946,26.896 27.559,26.896 ZM27.559,37.999 C30.068,37.999 32.110,35.957 32.110,33.447 C32.110,30.937 30.068,28.895 27.559,28.895 C25.049,28.895 23.007,30.937 23.007,33.447 C23.007,35.957 25.049,37.999 27.559,37.999 Z"/>
</g>
</svg>