<svg id="d1a146fa-7209-4f6b-bc06-f15a6f799607" data-name="Layer 1" xmlns="http://www.w3.org/2000/svg" xmlns:xlink="http://www.w3.org/1999/xlink" viewBox="0 0 90 63.37"><defs><clipPath id="3494fe34-3a36-43ad-8c13-388cb97d996d" transform="translate(0 0)"><rect width="90" height="63.37" style="fill:none"/></clipPath></defs><title>wifi</title><g style="clip-path:url(#3494fe34-3a36-43ad-8c13-388cb97d996d)"><path d="M71.57,34.33a37.73,37.73,0,0,0-53.29,0l-1.07,1.07c-1,1.26-.38,3.8,1.46,5.65l1.43,1.43c1.85,1.85,4.18,2.3,5.17,1l1.08-1.08a26.31,26.31,0,0,1,37.15,0l1.08,1.08c1,1.3,3.32.85,5.17-1l1.43-1.43c1.85-1.85,2.51-4.4,1.47-5.65Z" transform="translate(0 0)"/><path d="M38.2,47.13a9.51,9.51,0,1,1,0,13.45,9.51,9.51,0,0,1,0-13.45" transform="translate(0 0)"/><path d="M89.73,19.57,89,18.81l-.94-1a61.08,61.08,0,0,0-86.28,0l-.56.57-.86.89c-.89,1-.1,3.35,1.75,5.19l1.37,1.37c1.85,1.85,4.1,2.5,5,1.44l.89-.92.47-.47a49.65,49.65,0,0,1,70.14,0q.49.49,1,1l.71.76c.74.86,2.86.06,4.71-1.79l1.37-1.37c1.85-1.85,2.75-4.07,2-4.92" transform="translate(0 0)"/></g></svg>