<svg xmlns="http://www.w3.org/2000/svg" width="57.969" height="58.15" viewBox="0 0 57.969 58.15"><defs><style>.cls-1{fill:#616379;fill-rule:evenodd;filter:url(#filter)}</style><filter id="filter" x="395.031" y="2211.91" width="57.969" height="58.15" filterUnits="userSpaceOnUse"><feFlood result="flood" flood-color="#00b3b3"/><feComposite result="composite" operator="in" in2="SourceGraphic"/><feBlend result="blend" in2="SourceGraphic"/></filter></defs><path id="icon" class="cls-1" d="M435 2243.06h-8a1 1 0 0 1 0-2h8a1 1 0 0 1 0 2zm-11-3a1 1 0 0 1-1-1v-11a1 1 0 0 1 2 0v11a1 1 0 0 1-1 1zm-16 30a1 1 0 0 1-.707-1.71l3.932-3.93a1 1 0 0 1 1.414 1.41l-3.932 3.94a1.016 1.016 0 0 1-.707.29zm32 0a1.016 1.016 0 0 1-.707-.29l-3.963-3.97a1 1 0 0 1 1.414-1.41l3.963 3.96a1 1 0 0 1-.707 1.71zm9.914-44a1.029 1.029 0 0 1-.707-.29l-10.071-10.07a1.018 1.018 0 0 1-.293-.71 1 1 0 0 1 .293-.71 8.123 8.123 0 1 1 11.485 11.49 1.031 1.031 0 0 1-.707.29zm-8.6-11.01l8.542 8.54a6.129 6.129 0 0 0-4.978-9.69 6.033 6.033 0 0 0-3.564 1.15zm.779 9.22a.974.974 0 0 1-.707-.29.994.994 0 0 1 0-1.41l3-3a1 1 0 0 1 1.414 1.41l-3 3a.974.974 0 0 1-.707.29zm-44.007 1.79a1.029 1.029 0 0 1-.707-.29 8.123 8.123 0 1 1 11.485-11.49 1 1 0 0 1 .292.71 1.022 1.022 0 0 1-.292.71l-10.071 10.07a1.031 1.031 0 0 1-.707.29zm5.035-12.16a6.129 6.129 0 0 0-4.978 9.69l8.542-8.54a6.028 6.028 0 0 0-3.564-1.15zm2.785 10.37a.977.977 0 0 1-.707-.29l-3-3a1 1 0 0 1 1.415-1.41l3 3a1 1 0 0 1 0 1.41.978.978 0 0 1-.708.29zM424 2269.06a27 27 0 1 1 27-27 27.029 27.029 0 0 1-27 27zm0-52a25 25 0 1 0 25 25 25.025 25.025 0 0 0-25-25zm0 29a4 4 0 1 1 4-4 4 4 0 0 1-4 4zm0-6a2 2 0 1 0 2 2 2 2 0 0 0-2-2zm0 25a23 23 0 1 1 23-23 23.028 23.028 0 0 1-23 23zm0-44a21 21 0 1 0 21 21 21.023 21.023 0 0 0-21-21zm0 2a1 1 0 0 1-1-1v-2a1 1 0 0 1 2 0v2a1 1 0 0 1-1 1zm0 42a1 1 0 0 1-1-1v-2a1 1 0 0 1 2 0v2a1 1 0 0 1-1 1zm22-22h-2a1 1 0 0 1 0-2h2a1 1 0 0 1 0 2zm-42 0h-2a1 1 0 0 1 0-2h2a1 1 0 0 1 0 2zm10-17.32a1 1 0 0 1-.867-.5l-1-1.73a1 1 0 1 1 1.732-1l1 1.73a1 1 0 0 1-.865 1.5zm21 36.37a1 1 0 0 1-.867-.5l-1-1.73a1 1 0 1 1 1.732-1l1 1.73a1 1 0 0 1-.865 1.5zm-28.323-29.05a1 1 0 0 1-.5-.13l-1.732-1a1 1 0 0 1 1-1.74l1.732 1a1 1 0 0 1-.499 1.87zm36.374 21a1 1 0 0 1-.5-.13l-1.732-1a1 1 0 0 1 1-1.74l1.733 1a1 1 0 0 1-.5 1.87zm-38.1 0a1 1 0 0 1-.5-1.87l1.732-1a1 1 0 0 1 1 1.74l-1.732 1a1 1 0 0 1-.503.13zm36.373-21a1 1 0 0 1-.5-1.87l1.732-1a1 1 0 0 1 1 1.74l-1.733 1a1 1 0 0 1-.502.13zM413 2262.11a1 1 0 0 1-.865-1.5l1-1.73a1 1 0 1 1 1.732 1l-1 1.73a1 1 0 0 1-.867.5zm21-36.37a1 1 0 0 1-.865-1.5l1-1.73a1 1 0 0 1 1.366-.37 1.006 1.006 0 0 1 .366 1.37l-1 1.73a1 1 0 0 1-.867.5z" transform="translate(-395.031 -2211.91)"/></svg>