<svg xmlns="http://www.w3.org/2000/svg" width="58" height="60"><defs><filter id="a"><feFlood flood-color="#00B3B3" flood-opacity="1" result="floodOut"/><feComposite operator="atop" in="floodOut" in2="SourceGraphic" result="compOut"/><feBlend in="compOut" in2="SourceGraphic"/></filter></defs><path fill-rule="evenodd" fill="#616379" d="M55.621 14.766a1 1 0 0 1-1.414 0l-4.096-4.095-1.684 1.684C53.105 17.213 56 23.8 56 31.06c0 9.899-5.372 18.548-13.338 23.248l3.045 3.045a1 1 0 0 1-1.414 1.414l-3.471-3.471C37.246 57.048 33.243 58.06 29 58.06c-4.244 0-8.246-1.012-11.822-2.764l-3.471 3.471a.997.997 0 0 1-1.414 0 .999.999 0 0 1 0-1.414l3.045-3.045C7.372 49.608 2 40.959 2 31.06c0-7.26 2.895-13.847 7.573-18.705l-1.685-1.684-4.095 4.095a1 1 0 0 1-1.414 0c-3.167-3.165-3.167-8.319 0-11.485A8.069 8.069 0 0 1 8.121.903c2.169 0 4.209.845 5.743 2.378a1.003 1.003 0 0 1 0 1.414L9.303 9.257l1.717 1.717C15.8 6.69 22.091 4.06 29 4.06c6.908 0 13.199 2.63 17.979 6.914l1.718-1.717-4.561-4.562a.997.997 0 0 1 0-1.414A8.07 8.07 0 0 1 49.878.903c2.17 0 4.209.845 5.743 2.378 3.166 3.166 3.166 8.32 0 11.485zM11.685 4.046a6.077 6.077 0 0 0-3.564-1.143 6.084 6.084 0 0 0-4.328 1.792 6.133 6.133 0 0 0-.65 7.893l8.542-8.542zM29 6.06c-13.785 0-25 11.215-25 25 0 13.784 11.215 25 25 25s25-11.216 25-25c0-13.785-11.215-25-25-25zm25.207-1.365a6.085 6.085 0 0 0-4.329-1.792 6.082 6.082 0 0 0-3.564 1.143l8.542 8.542a6.133 6.133 0 0 0-.649-7.893zM48.952 42.46c-.014.032-.015.068-.033.099-.012.02-.033.027-.046.045a23.226 23.226 0 0 1-8.26 8.275c-.04.032-.068.073-.113.1-.029.016-.062.011-.092.024A22.825 22.825 0 0 1 29 54.06c-4.16 0-8.057-1.118-11.423-3.06-.025-.012-.053-.007-.077-.021-.026-.015-.04-.04-.064-.057a23.234 23.234 0 0 1-8.278-8.286c-.022-.03-.058-.044-.077-.077-.021-.035-.022-.075-.038-.112A22.832 22.832 0 0 1 6 31.06c0-4.151 1.113-8.04 3.047-11.4.015-.033.015-.068.034-.1.014-.025.038-.039.055-.062a23.236 23.236 0 0 1 8.25-8.257c.039-.032.068-.074.114-.1.036-.022.077-.023.115-.039a22.834 22.834 0 0 1 22.782.004c.034.015.07.016.103.035.025.014.04.039.063.056a23.231 23.231 0 0 1 8.257 8.251c.031.039.073.067.099.112.02.036.022.076.038.113a22.842 22.842 0 0 1-.005 22.787zm-1.328-20.998l-.804.464a.998.998 0 0 1-1-1.732l.802-.464a21.177 21.177 0 0 0-6.292-6.294l-.464.803a1.004 1.004 0 0 1-1.366.367 1 1 0 0 1-.366-1.366l.469-.813A20.779 20.779 0 0 0 30 10.11v.95a1 1 0 0 1-2 0v-.95a20.842 20.842 0 0 0-8.598 2.326l.464.804a1 1 0 1 1-1.732.999l-.463-.801c-2.52 1.624-4.645 3.789-6.273 6.304l.781.452a.999.999 0 1 1-1 1.732l-.784-.452c-1.348 2.597-2.199 5.493-2.346 8.586H9a1 1 0 1 1 0 2h-.951a20.82 20.82 0 0 0 2.327 8.597l.803-.464a1 1 0 1 1 1 1.733l-.802.463a21.169 21.169 0 0 0 6.293 6.294l.464-.803a1 1 0 0 1 1.732 1l-.469.813A20.785 20.785 0 0 0 28 52.009v-.95a1 1 0 0 1 2 0v.95a20.834 20.834 0 0 0 8.597-2.326l-.463-.803a1 1 0 0 1 1.732-1l.463.802c2.519-1.625 4.645-3.79 6.273-6.305l-.782-.451a1 1 0 0 1 1-1.733l.784.453c1.349-2.598 2.2-5.494 2.346-8.586H49a1 1 0 1 1 0-2h.951a20.828 20.828 0 0 0-2.327-8.598zM40 32.06h-7.142c-.448 1.72-2 3-3.858 3-2.206 0-4-1.794-4-4 0-1.859 1.279-3.411 3-3.858V17.06a1 1 0 1 1 2 0v10.142a3.993 3.993 0 0 1 2.858 2.858H40a1 1 0 1 1 0 2zm-11-3c-1.103 0-2 .897-2 2a2.001 2.001 0 0 0 4 0c0-1.103-.897-2-2-2z" filter="url(#a)"/></svg>