<svg data-name="Layer 1" xmlns="http://www.w3.org/2000/svg" viewBox="0 0 64 49"><defs><clipPath id="a"><path fill="none" d="M0 0h64v49H0z"/></clipPath></defs><title>two-bed</title><g clip-path="url(#a)"><path d="M64 37.5v-12c0-2.2-1.8-3.5-4-3.5h-1V1.5C59 .4 58.1 0 57 0H7C5.9 0 5 .4 5 1.5V22H4c-2.2 0-4 1.3-4 3.5v12a4 4 0 0 0 3.2 3.9l-2.1 5.7a1.26 1.26 0 0 0 .1 1.2c.2.3.5.7.8.7h3a.89.89 0 0 0 .8-.5L9.9 42H54l4.1 6.5a1 1 0 0 0 .8.5h3c.3 0 .6-.4.8-.7a1.18 1.18 0 0 0 .1-1l-2.1-5.8a4.16 4.16 0 0 0 3.3-4M9 4h46v18h-4v-4.5c0-1.7-1.3-2.5-3-2.5H37c-1.7 0-3 .8-3 2.5V22h-4v-4.5c0-1.7-1.3-2.5-3-2.5H16c-1.7 0-3 .8-3 2.5V22H9zm40 18H36v-4.5c0-.6.4-.5 1-.5h11c.6 0 1-.1 1 .5zm-21 0H15v-4.5c0-.6.4-.5 1-.5h11c.6 0 1-.1 1 .5zM4 26h56v12H4zm.4 21h-1l1.9-5h2.3zm55.2 0l-3.1-5h2.3l1.9 5z"/></g></svg>