<svg data-name="Слой 1" xmlns="http://www.w3.org/2000/svg" viewBox="0 0 74.35 80.67"><title>conditioner</title><path d="M73.92 50.67a3 3 0 0 0-4.12-1l-5.63 3.35-3.16-1.82 5.16-3.21a3 3 0 0 0-3.14-5.11l-8 4.91-3.09-1.78V34.65l3.09-1.78 8 4.91a3 3 0 0 0 3.14-5.11l-5.22-3.21 3.22-1.82 5.65 3.38a3 3 0 0 0 3.08-5.15l-2.79-1.67 1.06-.62a2.5 2.5 0 1 0-2.5-4.33l-1.09.63-.05-3.25a3 3 0 0 0-3-3h-.05a3 3 0 0 0-2.95 3l.12 6.7-3.15 1.8-.17-6.12a3.001 3.001 0 0 0-6 .17l.26 9.36-3.09 1.79-9.83-5.68v-3.57l8.24-4.45a3.009 3.009 0 0 0-2.85-5.3l-5.39 2.93v-3.65l5.75-3.2a3.001 3.001 0 0 0-2.91-5.25l-2.84 1.59V2.5a2.5 2.5 0 0 0-5 0v1.25l-2.84-1.58a3.001 3.001 0 0 0-2.91 5.25l5.75 3.2v3.65l-5.39-2.94a3 3 0 0 0-2.85 5.28l8.24 4.45v3.57l-9.83 5.7-3.09-1.78.26-9.36a3 3 0 0 0-2.92-3.08H19a3 3 0 0 0-3 2.92l-.17 6.12-3.14-1.82.11-6.58a3 3 0 0 0-3-3h-.05a3 3 0 0 0-3 3L6.7 20l-1.09-.63a2.5 2.5 0 0 0-2.44 4.21l1.09.63-2.78 1.67a3 3 0 1 0 3.08 5.15l5.61-3.39 3.16 1.82-5.16 3.21a3.001 3.001 0 0 0 3.15 5.11l8-4.91 3.09 1.78v11.36l-3.09 1.78-8-4.91a3.001 3.001 0 0 0-3.15 5.11l5.22 3.21-3.22 1.83-5.65-3.38a3 3 0 0 0-3.08 5.15l2.78 1.67-1.05.62a2.5 2.5 0 1 0 2.5 4.33l1.09-.63.05 3.25a3 3 0 0 0 3 3h.05a3 3 0 0 0 3-3l-.17-6.71 3.16-1.82.17 6.12a3 3 0 0 0 3 2.92h.09a3 3 0 0 0 2.91-3.08l-.26-9.36 3.08-1.78 9.83 5.68v3.57l-8.24 4.46a3.004 3.004 0 0 0 2.85 5.29l5.39-2.91v3.64l-5.75 3.2a3.001 3.001 0 0 0 2.91 5.25l2.84-1.58v1.25a2.5 2.5 0 1 0 5 0v-1.27l2.84 1.58a3.001 3.001 0 0 0 2.91-5.25l-5.75-3.2V66.4l5.39 2.93a3 3 0 0 0 2.85-5.28l-8.24-4.47v-3.57l9.83-5.68 3.09 1.78-.26 9.36a3 3 0 0 0 2.92 3.08h.09a3 3 0 0 0 3-2.92l.17-6.12 3.14 1.82-.11 6.58a3 3 0 0 0 2.95 3h.05a3 3 0 0 0 3-3l.05-3.25 1.09.63a2.5 2.5 0 1 0 2.49-4.21l-1.09-.63 2.79-1.67a3 3 0 0 0 1.05-4.11zM46 45.43l-8.83 5.1-8.83-5.1v-10.2l8.83-5.1 8.83 5.1z"/></svg>