<svg data-name="Слой 1" xmlns="http://www.w3.org/2000/svg" viewBox="0 0 301.15 308.27"><title>cup</title><path d="M84.25 2.77c8-5 16 6 9 12q-9 6-9 12c1 8 17 20 18 36 1 11-4 19-12 24s-16-8-8-12c5-3 7-5 6-11-1-14-16-21-17-37 0-8 3-16 13-24zM132.25 2.77c7-5 15 6 8 12-6 4-8 8-8 12 0 8 16 20 17 36q1.5 16.5-12 24c-8 5-15-8-7-12 4-3 6-5 6-11-1-14-17-21-18-37 0-8 3-16 14-24zM179.25 2.77c7-5 16 6 8 12-6 4-8 8-8 12 1 8 17 20 18 36q0 16.5-12 24c-8 5-16-8-8-12 5-3 7-5 6-11-1-14-16-21-17-37-1-8 2-16 13-24zM8.25 306.77c-9 0-9-14 0-14h57a88.69 88.69 0 0 1-48-79v-65c0-24 19-43 42-43h150c18 0 35 13 40 31 22 0 43 1 49 26 5 18-4 39-18 50a51.51 51.51 0 0 1-30 13c-4 30-23 54-48 67h58c9 0 9 14 0 14zm243-156v61c8-2 15-5 20-9 10-9 16-23 13-36-4-17-19-16-33-16zm-42-30h-150a28 28 0 0 0-28 28v65c0 41 34 75 76 75h54c42 0 76-34 76-75v-65a28 28 0 0 0-28-28z" stroke="#000" stroke-miterlimit="10" stroke-width="3"/><path d="M44.25 186.77a7 7 0 1 1 14 0c-1 25 0 50 22 66a7.211 7.211 0 1 1-8 12c-27-19-29-48-28-78zM51.25 153.77c10 0 10 18 0 18s-10-18 0-18z" stroke="#000" stroke-miterlimit="10" stroke-width="3"/></svg>