<svg xmlns="http://www.w3.org/2000/svg" width="60" height="40" viewBox="0 0 60 40"><defs><style>.cls-1{fill:#616379;fill-rule:evenodd;filter:url(#filter)}</style><filter id="filter" x="793" y="1979" width="60" height="40" filterUnits="userSpaceOnUse"><feFlood result="flood" flood-color="#00b3b3"/><feComposite result="composite" operator="in" in2="SourceGraphic"/><feBlend result="blend" in2="SourceGraphic"/></filter></defs><path id="icon" class="cls-1" d="M813 1994.55h-3a3.006 3.006 0 0 1-3-3v-3a3 3 0 0 1 3-3h3a3 3 0 0 1 3 3v3a3.006 3.006 0 0 1-3 3zm-3-7a1 1 0 0 0-1 1v3a1 1 0 0 0 1 1h3a1 1 0 0 0 1-1v-3a1 1 0 0 0-1-1h-3zm10 4h-3a3.006 3.006 0 0 1-3-3v-3a3 3 0 0 1 3-3h3a3 3 0 0 1 3 3v3a3.006 3.006 0 0 1-3 3zm-3-7a1 1 0 0 0-1 1v3a1 1 0 0 0 1 1h3a1 1 0 0 0 1-1v-3a1 1 0 0 0-1-1h-3zm6 34.45c-20.612 0-30-7.23-30-13.95 0-2.51 1.464-4.64 4.351-6.34a1 1 0 0 1 1.336 1.42 1.848 1.848 0 0 0-.174 1.18c0 .15.01.31.01.46v.1c0 4.1 10.468 8.68 24.477 8.68 13.966 0 24.411-4.56 24.476-8.64v-.08c0-.04 0-.1.007-.14v-.2a2.209 2.209 0 0 0-.233-1.36 1 1 0 0 1 1.336-1.42c2.933 1.73 4.419 3.86 4.419 6.34C853 2008.32 850.837 2019 823 2019zm-26.474-17.2a4.479 4.479 0 0 0-1.526 3.25c0 4.8 7.457 11.95 28 11.95 13.536 0 28-3.14 28-11.95a4.414 4.414 0 0 0-1.523-3.2v.02c0 5.89-11.878 10.68-26.477 10.68s-26.477-4.79-26.477-10.68l.003-.07zm32.474 8.75a4.008 4.008 0 0 1-4-4 1 1 0 0 1 2 0 2 2 0 1 0 4 0 1 1 0 0 1 2 0 4.008 4.008 0 0 1-4 4zm-6 2c-14.6 0-26.477-4.79-26.477-10.68a4.8 4.8 0 0 1 .749-2.5 1 1 0 1 1 1.711 1.04 2.778 2.778 0 0 0-.46 1.46c0 4.1 10.468 8.68 24.477 8.68s24.476-4.58 24.476-8.68a2.769 2.769 0 0 0-.46-1.46 1 1 0 1 1 1.711-1.04 4.789 4.789 0 0 1 .75 2.5c0 5.89-11.877 10.68-26.477 10.68zm6-2a4.008 4.008 0 0 1-4-4v-.34a3.435 3.435 0 0 1-1.5.34 3.5 3.5 0 0 1-3.5-3.5v-2.59c-13.241-.62-23.477-5.2-23.477-10.61a4.8 4.8 0 0 1 .749-2.5c3.374-4.94 13.942-8.35 25.728-8.35s22.353 3.41 25.7 8.3a4.858 4.858 0 0 1 .78 2.55c0 3.72-4.647 7.08-12.477 9.05v8.1a3 3 0 0 1-5.022 2.21 3.988 3.988 0 0 1-2.981 1.34zm-2-7.5v3.5a2 2 0 1 0 4 0 1 1 0 0 1 2 0v.45a1 1 0 0 0 2 0v-8.89a.987.987 0 0 1 .772-.97c7-1.64 11.7-4.57 11.7-7.29a2.8 2.8 0 0 0-.46-1.47c-2.5-3.64-11.567-7.38-24.016-7.38s-21.521 3.74-24.047 7.43a2.738 2.738 0 0 0-.43 1.42c0 3.76 9.243 8.23 22.508 8.64a1 1 0 0 1 .969 1v3.56a1.5 1.5 0 1 0 3 0 1 1 0 0 1 2.004 0zm-5.955 1.44h-.031c-13.733-.41-24.491-5.09-24.491-10.64a4.789 4.789 0 0 1 .75-2.5 1 1 0 0 1 .855-.48.994.994 0 0 1 .855.48c1.947 3.27 10.144 6.77 22.044 7.14a1 1 0 0 1 .969 1v3.56a1.428 1.428 0 0 0 .028.26 1.013 1.013 0 0 1-.225.84 1 1 0 0 1-.754.34zm-22.521-10.56c.128 3.64 8.858 7.92 21.476 8.52v-1.99c-9.547-.45-17.841-3.01-21.476-6.53zm37.476 9.18a1.007 1.007 0 0 1-1-1v-4a.987.987 0 0 1 .772-.97c5.663-1.33 9.865-3.49 11.237-5.79a1.044 1.044 0 0 1 1.717 0 4.781 4.781 0 0 1 .751 2.5c0 3.84-4.954 7.29-13.25 9.23a.879.879 0 0 1-.227.03zm1-4.21v1.93c6.255-1.66 10.394-4.37 10.476-6.91-2.093 2.04-5.762 3.79-10.476 4.98zm-14 9.65c-14.6 0-26.477-4.79-26.477-10.68a4.789 4.789 0 0 1 .75-2.5 1 1 0 1 1 1.709 1.04 2.822 2.822 0 0 0-.459 1.46c0 4.1 10.468 8.68 24.477 8.68.651 0 1.32-.01 2-.04v-3.46a1 1 0 0 1 2 0v3.5a2 2 0 0 0 .11.61.979.979 0 0 1-.126.87 1.015 1.015 0 0 1-.775.44c-1.116.05-2.165.08-3.209.08zm13-1.42a1 1 0 0 1-.227-1.97c7-1.64 11.7-4.57 11.7-7.29a2.82 2.82 0 0 0-.458-1.46 1 1 0 1 1 1.708-1.04 4.781 4.781 0 0 1 .751 2.5c0 3.85-4.954 7.3-13.25 9.23a.9.9 0 0 1-.224.03zm-9.422-11.36a1 1 0 1 1 0-2c9.265 0 16.187-2.77 16.187-5.25a1 1 0 1 1 2 0c0 4.71-9.371 7.25-18.188 7.25z" transform="translate(-793 -1979)"/></svg>