<svg xmlns="http://www.w3.org/2000/svg" width="60" height="40"><defs><filter id="a"><feFlood flood-color="#00B3B3" flood-opacity="1" result="floodOut"/><feComposite operator="atop" in="floodOut" in2="SourceGraphic" result="compOut"/><feBlend in="compOut" in2="SourceGraphic"/></filter></defs><path fill-rule="evenodd" fill="#616379" d="M56.28 20.159c2.46 1.646 3.72 3.62 3.72 5.888 0 3.274-2.163 13.952-30 13.952-20.612 0-30-7.232-30-13.952 0-2.309 1.261-4.298 3.719-5.931a4.45 4.45 0 0 1-.196-1.245c0-.659.201-1.316.508-1.965-.329-.668-.508-1.355-.508-2.058 0-.654.199-1.307.503-1.952-.326-.664-.503-1.348-.503-2.046 0-.84.252-1.681.749-2.502C7.646 3.413 18.214-.001 30-.001c11.786 0 22.353 3.414 25.697 8.303.528.867.78 1.708.78 2.548 0 .705-.169 1.397-.492 2.069.296.638.492 1.283.492 1.929 0 .709-.171 1.404-.499 2.079.301.642.499 1.292.499 1.944 0 .435-.073.864-.197 1.288zM54.016 9.385C51.52 5.738 42.449 1.999 30 1.999c-12.449 0-21.521 3.739-24.047 7.432-.279.463-.43.943-.43 1.419 0 3.282 7.055 7.11 17.682 8.3.025.003.049.007.075.009.697.077 1.413.141 2.14.194.072.006.141.013.214.018.784.055 1.582.097 2.397.122.54.018.969.46.969 1v3.554c0 .827.673 1.5 1.5 1.5s1.5-.673 1.5-1.5a1 1 0 1 1 2 0v3.5c0 .184.036.383.11.609.003.008 0 .016.002.024A1.997 1.997 0 0 0 36 29.547c1.102 0 2-.898 2-2a1 1 0 1 1 2 0v.452a1 1 0 0 0 2 0v-8.89c0-.466.32-.869.772-.974.63-.147 1.235-.308 1.827-.475.13-.037.261-.073.389-.111a36.075 36.075 0 0 0 1.602-.509c.132-.046.257-.094.387-.14a30.3 30.3 0 0 0 1.209-.466c.12-.05.247-.098.364-.148a23.567 23.567 0 0 0 1.635-.782c.388-.205.761-.413 1.101-.627.062-.039.116-.079.176-.117.333-.217.644-.437.926-.66.037-.03.077-.058.113-.088.316-.258.599-.52.843-.786l.036-.04c.249-.274.461-.552.629-.832.003-.006.011-.008.014-.014.295-.497.453-.997.453-1.49 0-.476-.15-.956-.46-1.465zM30 29.548c-11.024 0-20.487-2.733-24.465-6.605.122 4.077 10.539 8.604 24.465 8.604.838 0 1.662-.018 2.474-.05a65.428 65.428 0 0 0 2.233-.132c.045-.004.092-.005.136-.009a3.978 3.978 0 0 1-1.94-1.308c-.04-.049-.084-.096-.122-.148a4.266 4.266 0 0 1-.214-.332c-.014-.025-.026-.051-.041-.076-.862.034-1.701.056-2.526.056zm2-2.034v-.305a3.467 3.467 0 0 1-1.417.329c.468-.005.935-.009 1.417-.024zm-2 .034c.135 0 .278-.006.414-.007a3.502 3.502 0 0 1-3.112-2.084c-9.897-.411-18.143-3.035-21.777-6.577.014 4.094 10.476 8.668 24.475 8.668zm-3-4.096v-1.997a60.601 60.601 0 0 1-2.127-.139c-.271-.022-.538-.047-.806-.072-.422-.04-.84-.084-1.255-.133-.311-.035-.623-.07-.929-.11-.403-.053-.797-.114-1.192-.174a52.144 52.144 0 0 1-1.653-.281c-.246-.045-.493-.09-.735-.139-.373-.075-.74-.153-1.102-.235-.244-.055-.483-.113-.723-.171a39.936 39.936 0 0 1-2.519-.684c-.21-.065-.412-.134-.618-.202a36.92 36.92 0 0 1-1.139-.393c-.138-.051-.276-.101-.411-.153-2.671-1.019-4.835-2.253-6.267-3.639.128 3.644 8.858 7.921 21.476 8.522zm10.93 7.577c.64-.085 1.25-.19 1.861-.294a3.01 3.01 0 0 1-.813-.521c-.057.064-.129.113-.19.174l-.049.043a3.95 3.95 0 0 1-.794.587c-.006.003-.01.008-.015.011zM44 23.887v1.962c6.262-1.662 10.398-4.37 10.469-6.911C52.399 20.952 48.8 22.68 44 23.887zm10.471-8.945c-1.803 1.757-4.773 3.294-8.685 4.459l-.101.032c-.546.16-1.104.316-1.685.462v1.934c6.24-1.657 10.371-4.351 10.471-6.887zM44 27.909v.09c0 .797-.317 1.517-.825 2.055l.062-.015c.431-.106.853-.216 1.264-.331.133-.037.262-.075.393-.113.41-.119.815-.24 1.203-.367l.048-.016a30.741 30.741 0 0 0 2.237-.836c.129-.055.266-.108.392-.163.266-.117.517-.238.767-.359a19.771 19.771 0 0 0 1.159-.603c.187-.107.363-.215.537-.323.169-.105.343-.209.499-.316.276-.188.531-.378.767-.57.105-.085.198-.171.295-.256a8 8 0 0 0 .527-.505c.081-.087.15-.174.223-.261a5.273 5.273 0 0 0 .505-.719c.094-.167.169-.335.231-.503.026-.069.059-.138.08-.207.059-.203.084-.406.095-.608-2.071 2.006-5.675 3.723-10.459 4.926zm-14 5.638c-14.6 0-26.477-4.79-26.477-10.677l.003-.07C2.512 23.787 2 24.873 2 26.047c0 4.805 7.457 11.952 28 11.952 13.536 0 28-3.139 28-11.952 0-1.144-.511-2.214-1.523-3.197v.02c0 5.887-11.878 10.677-26.477 10.677zm3.577-16.773a1 1 0 1 1 0-2c9.265 0 16.187-2.777 16.187-5.259a1 1 0 1 1 2.001 0c0 4.715-9.371 7.259-18.188 7.259zM27 12.547h-3c-.353 0-.686-.072-1-.184v.184c0 1.654-1.346 3-3 3h-3c-1.654 0-3-1.346-3-3v-3c0-1.655 1.346-3 3-3h3c.352 0 .686.072 1 .184v-.184c0-1.654 1.346-3 3-3h3c1.654 0 3 1.346 3 3v3c0 1.654-1.346 3-3 3zm-6-3a1 1 0 0 0-1-1h-3a1 1 0 0 0-1 1v3a1 1 0 0 0 1 1h3a1 1 0 0 0 1-1v-3zm7-3a1 1 0 0 0-1-1h-3a1 1 0 0 0-1 1v3a1 1 0 0 0 1 1h3a1 1 0 0 0 1-1v-3z" filter="url(#a)"/></svg>