<svg xmlns="http://www.w3.org/2000/svg" width="57" height="55"><defs><filter id="a"><feFlood flood-color="#00B3B3" flood-opacity="1" result="floodOut"/><feComposite operator="atop" in="floodOut" in2="SourceGraphic" result="compOut"/><feBlend in="compOut" in2="SourceGraphic"/></filter></defs><path fill-rule="evenodd" fill="#616379" d="M57 25h-4v29.999H5V25H0V10.999h14.727a6.949 6.949 0 0 1-1.269-4.006c0-1.875.726-3.633 2.043-4.951a6.955 6.955 0 0 1 4.95-2.043c1.875 0 3.632.726 4.95 2.043l2.828 2.829 2.829-2.829a6.95 6.95 0 0 1 4.949-2.043c1.875 0 3.632.726 4.95 2.043A6.955 6.955 0 0 1 43 6.993c0 1.459-.452 2.84-1.269 4.006H57V25zM7 36.999h21V25H7v11.999zm23 0h21V25H30v11.999zm21 16v-14H30v14h21zm-23 0v-14H7v14h21zM2 13v9.999h26V13H2zm21.987-9.544a4.968 4.968 0 0 0-3.536-1.457c-1.34 0-2.596.518-3.536 1.457a4.969 4.969 0 0 0-1.457 3.537c0 1.339.518 2.595 1.457 3.535l.472.471h4.972c.28-.453.583-.842.92-1.179l3.536-3.535-2.828-2.829zm15.556 0a4.967 4.967 0 0 0-3.536-1.457c-1.34 0-2.596.518-3.535 1.457l-2.829 2.829-4.714 4.714h14.142l.472-.471A4.968 4.968 0 0 0 41 6.993a4.969 4.969 0 0 0-1.457-3.537zM55 13H30v9.999h25V13z" filter="url(#a)"/></svg>