<svg xmlns="http://www.w3.org/2000/svg" width="57" height="55" viewBox="0 0 57 55"><defs><style>.cls-1{fill:#616379;fill-rule:evenodd;filter:url(#filter)}</style><filter id="filter" x="1185" y="2214" width="57" height="55" filterUnits="userSpaceOnUse"><feFlood result="flood" flood-color="#00b3b3"/><feComposite result="composite" operator="in" in2="SourceGraphic"/><feBlend result="blend" in2="SourceGraphic"/></filter></defs><path id="icon" class="cls-1" d="M1242 2239h-57v-14h57v14zm-55-2h53v-10h-53v10zm37.9-10h-18.61l.76-1.46a6.771 6.771 0 0 1 1.23-1.72l7.78-7.78a7.026 7.026 0 0 1 9.9 0 7.026 7.026 0 0 1 0 9.9zm-14.97-2h14.14l.47-.47a5 5 0 0 0-7.07-7.07zm-1.38 2h-6.99l-1.06-1.06a7 7 0 0 1 9.9-9.9l4.24 4.25-4.95 4.94a5.219 5.219 0 0 0-.86 1.23zm-6.16-2h4.97a6.509 6.509 0 0 1 .92-1.18l3.53-3.53-2.82-2.83a5 5 0 0 0-7.07 7.07zm35.61 44h-48v-32h48v32zm-46-2h44v-28h-44v28zm22 2a1 1 0 0 1-1-1v-42a1 1 0 0 1 2 0v42a1 1 0 0 1-1 1zm23-16h-46a1 1 0 0 1 0-2h46a1 1 0 0 1 0 2z" transform="translate(-1185 -2214)"/></svg>