<svg xmlns="http://www.w3.org/2000/svg" width="52" height="60" viewBox="0 0 52 60"><defs><style>.cls-1{fill:#616379;fill-rule:evenodd;filter:url(#filter)}</style><filter id="filter" x="398" y="1969" width="52" height="60" filterUnits="userSpaceOnUse"><feFlood result="flood" flood-color="#00b3b3"/><feComposite result="composite" operator="in" in2="SourceGraphic"/><feBlend result="blend" in2="SourceGraphic"/></filter></defs><path id="icon" class="cls-1" d="M415.465 2012.54a4.54 4.54 0 0 1-3.207-7.75l2.5-2.5a1 1 0 0 1 1.414 0l2.5 2.5a4.54 4.54 0 0 1-3.207 7.75zm0-8.13l-1.793 1.8a2.528 2.528 0 0 0 0 3.58 2.593 2.593 0 0 0 3.586 0 2.534 2.534 0 0 0 0-3.58zm9.443 14.59h-1.816c-13.836 0-25.092-12.99-25.092-28.95V1984a1 1 0 0 1 2 0v6.05c0 14.86 10.359 26.95 23.092 26.95h1.816c12.732 0 23.092-12.09 23.092-26.95V1984a1 1 0 0 1 2 0v6.05c0 15.96-11.256 28.95-25.092 28.95zM415 2001a4.342 4.342 0 0 1-.8-.08 4.08 4.08 0 0 1-3.2-4.05v-.21a3.5 3.5 0 0 1-5-3.25v-12.22c-5.31-1.28-8-3.03-8-5.19 0-4.6 13.08-7 26-7s26 2.4 26 7c0 4.48-12.414 6.87-25 6.99v4.88a4.081 4.081 0 0 1-3.2 4.05 4.329 4.329 0 0 1-.8.08 3.988 3.988 0 0 1-2-.54v5.54a4.008 4.008 0 0 1-4 4zm-2-7.5v3.37a2.106 2.106 0 0 0 1.59 2.09A2 2 0 0 0 417 1997v-9a1 1 0 0 1 2 0 2 2 0 0 0 2 2 1.922 1.922 0 0 0 .409-.04 2.106 2.106 0 0 0 1.591-2.09V1982a1 1 0 0 1 1-1c15.757 0 24-3.26 24-5s-8.243-5-24-5-24 3.25-24 5c0 .63 1.519 2.16 7.271 3.43a1 1 0 0 1 .768 1.16 1.933 1.933 0 0 0-.039.37v12.45a1.565 1.565 0 0 0 1.08 1.53 1.514 1.514 0 0 0 1.92-1.44 1 1 0 0 1 2 0zm-6-7.1a.813.813 0 0 1-.218-.03c-5.827-1.3-8.782-3.1-8.782-5.37v-5a1 1 0 0 1 2 0c0 .63 1.519 2.16 7.271 3.43a1 1 0 0 1 .768 1.16 1.933 1.933 0 0 0-.039.37v4.44a1.007 1.007 0 0 1-.374.78 1.026 1.026 0 0 1-.626.22zm-7-7.48v2.08c0 .58 1.29 1.92 6 3.13v-2.94a19.821 19.821 0 0 1-6-2.27zm24 9.08a1 1 0 0 1-1-1v-5a1 1 0 0 1 1-1c15.757 0 24-3.26 24-5a1 1 0 0 1 2 0v5c0 4.6-13.08 7-26 7zm1-5.01v3c15.106-.13 23-3.28 23-4.99v-2.12c-4.007 2.62-13.454 4.02-23 4.11zm-1 46.01c-12.92 0-26-2.4-26-7v-46a1 1 0 0 1 2 0 .6.6 0 0 0 .013.11l.044.13-.057.05v.18l.133-.09-.133.12v.11l.2-.15c.04.06.065.09.1.13 0 0 .074.07.076.07.046.05.088.09.137.14l.084.07a1.7 1.7 0 0 0 .2.16l.125.09c.083.06.159.11.24.16l.14.09c.094.05.183.11.276.16l.163.08c.108.06.216.11.327.17l.181.08c.119.06.247.11.379.17l.179.07c.142.06.288.12.436.17l.183.07c.157.06.326.12.5.18l.17.06c.185.06.378.12.572.18l.145.04c.212.06.43.13.653.19l-.138 1 .26-.97c.243.07.492.13.747.19.357.09.644.16.939.22a1 1 0 0 1 .77 1.16 1.933 1.933 0 0 0-.039.37v12.45a1.565 1.565 0 0 0 1.08 1.53 1.514 1.514 0 0 0 1.92-1.44 1 1 0 0 1 2 0v3.37a2.106 2.106 0 0 0 1.59 2.09A2 2 0 0 0 417 1997v-9a1 1 0 0 1 2 0 2.008 2.008 0 0 0 2.409 1.96 2.106 2.106 0 0 0 1.591-2.09V1982a1 1 0 0 1 1-1c15.757 0 24-3.26 24-5a1 1 0 0 1 2 0v46c0 4.6-13.08 7-26 7zm-24-50.08V2022c0 1.74 8.243 5 24 5s24-3.26 24-5v-43.12c-4.007 2.62-13.454 4.02-23 4.11v4.88a4.081 4.081 0 0 1-3.2 4.05 4.012 4.012 0 0 1-2.8-.46v5.54a4.008 4.008 0 0 1-4 4 4.342 4.342 0 0 1-.8-.08 4.08 4.08 0 0 1-3.2-4.05v-.21a3.5 3.5 0 0 1-5-3.25v-12.22c-.025-.01-.048-.01-.073-.02a22.38 22.38 0 0 1-.864-.22l-.1-.03c-.261-.07-.494-.14-.722-.2l-.12-.04c-.247-.07-.455-.14-.657-.21l-.192-.06c-.175-.06-.358-.12-.535-.19l-.212-.08c-.156-.06-.319-.12-.478-.19l-.146-.06c-.2-.08-.348-.15-.489-.21l-.2-.1c-.134-.06-.265-.13-.392-.19l-.2-.11a5.306 5.306 0 0 1-.349-.2l-.18-.11a.473.473 0 0 0-.091-.05zm13-5.92a1 1 0 1 1-1-1 1 1 0 0 1 1 1zm-9 3a1 1 0 1 1-1-1 1 1 0 0 1 1 1zm9 3a1 1 0 1 1-1-1 1 1 0 0 1 1 1zm12 0a1 1 0 1 1-1-1 1 1 0 0 1 1 1zm-15-3a1 1 0 1 1-1-1 1 1 0 0 1 1 1zm9-3a1 1 0 1 1-1-1 1 1 0 0 1 1 1zm6 0a1 1 0 1 1-1-1 1 1 0 0 1 1 1zm-9 3a1 1 0 1 1-1-1 1 1 0 0 1 1 1zm3 3a1 1 0 1 1-1-1 1 1 0 0 1 1 1zm3-3a1 1 0 1 1-1-1 1 1 0 0 1 1 1zm9-3a1 1 0 1 1-1-1 1 1 0 0 1 1 1zm6 0a1 1 0 1 1-1-1 1 1 0 0 1 1 1zm-9 3a1 1 0 1 1-1-1 1 1 0 0 1 1 1zm3 3a1 1 0 1 1-1-1 1 1 0 0 1 1 1zm6 0a1 1 0 1 1-1-1 1 1 0 0 1 1 1zm-3-3a1 1 0 1 1-1-1 1 1 0 0 1 1 1zm6 0a1 1 0 1 1-1-1 1 1 0 0 1 1 1zm6 0a1 1 0 1 1-1-1 1 1 0 0 1 1 1z" transform="translate(-398 -1969)"/></svg>