<svg xmlns="http://www.w3.org/2000/svg" width="52" height="60"><defs><filter id="a"><feFlood flood-color="#00B3B3" flood-opacity="1" result="floodOut"/><feComposite operator="atop" in="floodOut" in2="SourceGraphic" result="compOut"/><feBlend in="compOut" in2="SourceGraphic"/></filter></defs><path fill-rule="evenodd" fill="#616379" d="M26 59.999c-12.92 0-26-2.404-26-7v-46C0 2.404 13.08 0 26 0s26 2.404 26 6.999v46c0 4.596-13.08 7-26 7zm-24-48c0 .58 1.29 1.926 6 3.131v-2.939l-.05-.013-.023-.005a37.038 37.038 0 0 1-.864-.222l-.103-.028-.161-.046c-.14-.039-.277-.078-.413-.118l-.148-.042-.12-.037c-.231-.07-.424-.13-.613-.192-.13-.043-.255-.087-.381-.13l-.39-.136-.212-.08-.14-.055c-.093-.036-.186-.072-.276-.109a4.08 4.08 0 0 1-.062-.024l-.146-.061c-.203-.086-.348-.151-.489-.214l-.109-.052c-.025-.012-.055-.023-.079-.035-.027-.012-.06-.024-.086-.036-.054-.027-.094-.055-.145-.081-.058-.03-.118-.057-.174-.087l-.199-.107a8.054 8.054 0 0 1-.349-.2l-.18-.11-.017-.01c-.021-.012-.045-.024-.064-.036L2 9.921v2.078zm24-10c-15.757 0-24 3.255-24 5 0 .037.006.077.017.12l.013.039c.029.091.083.193.166.305l.002-.002.055.071c.018.023.035.045.055.068l.062.062c.046.047.088.092.137.136l.084.07c.081.069.138.118.202.163l.125.089c.08.057.154.107.232.157.048.031.102.062.154.093.092.056.179.107.27.156l.053.028.128.068a8.08 8.08 0 0 0 .492.24c.119.055.246.111.377.166l.142.06.042.017c.141.058.284.114.431.169l.121.046.07.025c.155.057.321.115.491.173l.06.02.193.064c.16.052.322.103.487.154l.358.105c.143.041.286.083.435.123.167.046.342.091.519.137.103.026.203.054.308.08.316.078.645.155.99.232a.97.97 0 0 1 .315.137c.012.008.028.01.04.018a.987.987 0 0 1 .23.235c.009.012.024.02.032.033a.996.996 0 0 1 .142.337l.004.009c.026.124.029.256.005.388a2.001 2.001 0 0 0-.039.374V24.411c0 .72.454 1.363 1.08 1.532.985.264 1.92-.479 1.92-1.443a1 1 0 1 1 2 0v3.369c0 1.011.683 1.909 1.59 2.089A2.003 2.003 0 0 0 19 27.999v-9a1 1 0 1 1 2 0c0 .147.018.29.049.429.009.041.025.078.037.118.027.097.057.192.099.282.018.039.041.076.062.114.046.085.096.169.154.247.024.031.05.061.076.092a2.077 2.077 0 0 0 .294.284c.084.066.174.126.269.178.027.015.053.03.081.044.101.05.208.09.318.123.027.008.053.018.081.025.115.029.235.044.357.052.027.002.052.007.078.008.148.004.3-.007.454-.037.907-.18 1.591-1.078 1.591-2.09v-5.869a1 1 0 0 1 1-1c15.757 0 24-3.255 24-5s-8.243-5-24-5zm24 7.877c-.026.017-.058.032-.085.049l-.035.021c-.298.189-.629.37-.982.546l-.161.078c-.347.167-.716.329-1.109.484-.105.042-.204.085-.313.126-.427.16-.877.314-1.351.461-.071.022-.146.043-.22.064-.417.126-.851.247-1.3.363l-.19.047a42.885 42.885 0 0 1-2.005.457c-.568.115-1.15.224-1.751.325l-.058.009c-.59.099-1.197.19-1.814.276-.2.028-.402.054-.604.08-.472.062-.95.119-1.434.173l-.054.006c-.848.093-1.708.178-2.587.248l-.14.01a92.21 92.21 0 0 1-1.871.126c-.197.012-.395.022-.593.032-.528.028-1.058.051-1.591.07-.209.008-.417.016-.626.022-.707.022-1.416.038-2.126.045v3c15.106-.134 23-3.287 23-4.995V9.876zm0 5.123v-.131c-4.003 2.63-13.453 4.035-23.011 4.125a4.225 4.225 0 0 1-.933 2.547c-.014.016-.03.029-.043.045a3.99 3.99 0 0 1-.416.436c-.046.04-.1.072-.148.111-.125.1-.25.202-.387.287-.096.06-.203.104-.305.155-.099.05-.193.108-.297.149a3.76 3.76 0 0 1-.661.196c-.252.05-.506.074-.757.076-.014 0-.028.004-.042.004h-.001c-.048 0-.091-.017-.138-.018a4.056 4.056 0 0 1-1.041-.176 3.933 3.933 0 0 1-.82-.343v5.537a4.004 4.004 0 0 1-4.8 3.92c-1.854-.367-3.2-2.071-3.2-4.05v-.208a3.56 3.56 0 0 1-2.438.213C9.053 27.47 8 26.046 8 24.411v-7.233c-2.663-.646-4.669-1.407-6-2.281v6.155c0 14.859 10.359 26.947 23.092 26.947h1.816C39.64 47.999 50 35.911 50 21.052v-6.053zm0 17.37c-3.827 10.353-12.736 17.63-23.092 17.63h-1.816c-10.357 0-19.265-7.277-23.092-17.63v20.63c0 1.745 8.243 5 24 5s24-3.255 24-5v-20.63zM17.465 43.535a4.501 4.501 0 0 1-3.207-1.329 4.54 4.54 0 0 1 0-6.414l2.5-2.5a1 1 0 0 1 1.414 0l2.5 2.5a4.543 4.543 0 0 1 0 6.414 4.506 4.506 0 0 1-3.207 1.329zm1.793-6.329l-1.793-1.793-1.793 1.793a2.521 2.521 0 0 0-.743 1.793c0 .677.264 1.314.743 1.793.956.957 2.626.957 3.586 0a2.542 2.542 0 0 0 0-3.586zM47 7.999a1 1 0 1 1 0-2 1 1 0 0 1 0 2zm-6 0a1 1 0 1 1 0-2 1 1 0 0 1 0 2zm-3 3a1 1 0 1 1-.002-1.998A1 1 0 0 1 38 10.999zm0-6a1 1 0 1 1 0-2 1 1 0 0 1 0 2zm-3 3a1 1 0 1 1 0-2 1 1 0 0 1 0 2zm-3 3a1 1 0 1 1-.002-1.998A1 1 0 0 1 32 10.999zm0-6a1 1 0 1 1 0-2 1 1 0 0 1 0 2zm-3 3a1 1 0 1 1 0-2 1 1 0 0 1 0 2zm-3 3a1 1 0 1 1 0-2 1 1 0 0 1 0 2zm0-6a1 1 0 1 1 0-2 1 1 0 0 1 0 2zm-3 3a1 1 0 1 1 0-2 1 1 0 0 1 0 2zm-3 3a1 1 0 1 1-.002-1.998A1 1 0 0 1 20 10.999zm0-6a1 1 0 1 1 0-2 1 1 0 0 1 0 2zm-3 3a1 1 0 1 1 0-2 1 1 0 0 1 0 2zm-3 3a1 1 0 1 1-.002-1.998A1 1 0 0 1 14 10.999zm0-6a1 1 0 1 1 0-2 1 1 0 0 1 0 2zm-3 3a1 1 0 1 1 0-2 1 1 0 0 1 0 2zm-6 0a1 1 0 1 1 0-2 1 1 0 0 1 0 2z" filter="url(#a)"/></svg>