<svg xmlns="http://www.w3.org/2000/svg" width="23" height="17" viewBox="0 0 23 17"><defs><style>.cls-1{fill-rule:evenodd;filter:url(#filter)}</style><filter id="filter" x="779" y="3455" width="23" height="17" filterUnits="userSpaceOnUse"><feFlood result="flood" flood-color="#fff"/><feComposite result="composite" operator="in" in2="SourceGraphic"/><feBlend result="blend" in2="SourceGraphic"/></filter></defs><path id="_copy" data-name="“ copy" class="cls-1" d="M802 3456.73l-.941-1.74c-4.912 1.74-9.825 5.76-9.825 11.12 0 2.92 1.516 5.9 5.017 5.9 2.822 0 5.122-1.93 5.122-4.66a4.787 4.787 0 0 0-4.5-4.62c-.149-2.78 1.053-4.07 5.127-6zm-12.229 0l-.941-1.74c-4.912 1.74-9.825 5.76-9.825 11.12 0 2.92 1.516 5.9 5.017 5.9 2.822 0 5.122-1.93 5.122-4.66a4.787 4.787 0 0 0-4.5-4.62c-.144-2.78 1.056-4.07 5.13-6z" transform="translate(-779 -3455)"/></svg>