<svg xmlns="http://www.w3.org/2000/svg" width="615.52" height="615.52" viewBox="0 0 615.52 615.52"><path d="M602.531 549.736l-184.31-185.368c26.679-37.72 42.528-83.729 42.528-133.548C460.75 103.35 357.997 0 231.258 0 104.518 0 1.765 103.35 1.765 230.82s102.753 230.82 229.493 230.82c49.53 0 95.271-15.944 132.78-42.777l184.31 185.366a38.117 38.117 0 0 0 27.102 11.291c9.812 0 19.62-3.77 27.083-11.291 14.963-15.041 14.963-39.452-.002-54.493zM355.9 319.763l-15.042 21.273-21.158 15.138c-26.083 18.658-56.667 28.526-88.442 28.526-84.365 0-152.995-69.035-152.995-153.88 0-84.846 68.63-153.88 152.995-153.88s152.996 69.034 152.996 153.88c.017 31.949-9.792 62.706-28.354 88.943z"/></svg>