<svg xmlns="http://www.w3.org/2000/svg" width="50" height="49"><defs><filter id="a"><feFlood flood-color="#00B3B3" flood-opacity="1" result="floodOut"/><feComposite operator="atop" in="floodOut" in2="SourceGraphic" result="compOut"/><feBlend in="compOut" in2="SourceGraphic"/></filter></defs><path fill-rule="evenodd" fill="#616379" d="M38.187 48.097a3.546 3.546 0 0 1-1.666-.416l-10.815-5.686a1.619 1.619 0 0 0-1.472 0L13.42 47.681c-1.489.782-3.349.395-4.415-.871a3.51 3.51 0 0 1-.782-2.905l2.066-12.042a1.584 1.584 0 0 0-.456-1.4l-8.749-8.528a3.56 3.56 0 0 1-.906-3.671 3.558 3.558 0 0 1 2.891-2.438L15.16 14.07a1.583 1.583 0 0 0 1.191-.866l5.408-10.957A3.557 3.557 0 0 1 24.97.252c1.373 0 2.604.763 3.211 1.995l5.408 10.957c.23.467.675.79 1.19.866l12.092 1.756a3.561 3.561 0 0 1 2.892 2.438 3.56 3.56 0 0 1-.907 3.671l-8.749 8.528a1.584 1.584 0 0 0-.456 1.4l2.066 12.042a3.51 3.51 0 0 1-.782 2.905 3.59 3.59 0 0 1-2.748 1.287zM24.97 39.814c.578 0 1.155.143 1.667.411l10.815 5.687c.665.35 1.482.169 1.954-.391.3-.356.42-.809.34-1.278l-2.065-12.042a3.577 3.577 0 0 1 1.03-3.17l8.749-8.528a1.55 1.55 0 0 0 .4-1.621 1.552 1.552 0 0 0-1.276-1.077l-12.092-1.757a3.577 3.577 0 0 1-2.696-1.959L26.389 3.132a1.553 1.553 0 0 0-1.419-.881 1.55 1.55 0 0 0-1.418.881l-5.408 10.957a3.579 3.579 0 0 1-2.697 1.959L3.356 17.805a1.552 1.552 0 0 0-1.276 1.077 1.55 1.55 0 0 0 .4 1.621l8.749 8.528a3.58 3.58 0 0 1 1.031 3.17l-2.066 12.042c-.08.469.04.923.34 1.278.473.56 1.289.741 1.955.391l10.814-5.686a3.597 3.597 0 0 1 1.667-.412z" filter="url(#a)"/></svg>