<svg data-name="Layer 1" xmlns="http://www.w3.org/2000/svg" viewBox="0 0 95.99 94.47"><defs><clipPath id="a"><path fill="none" d="M0 0h95.99v94.47H0z"/></clipPath></defs><title>sun</title><g clip-path="url(#a)"><path d="M3.8 56.08A6.14 6.14 0 0 1 8 57.57a13.59 13.59 0 0 0 8.46 2.82 13.59 13.59 0 0 0 8.46-2.82 6.14 6.14 0 0 1 4.17-1.5 6.13 6.13 0 0 1 4.17 1.5 14.1 14.1 0 0 0 16.92 0 6.55 6.55 0 0 1 8.33 0 14.09 14.09 0 0 0 16.92 0 6.55 6.55 0 0 1 8.33 0 13.58 13.58 0 0 0 8.46 2.82 3.81 3.81 0 0 0 0-7.61A6.13 6.13 0 0 1 88 51.29a13.57 13.57 0 0 0-8.46-2.82A13.22 13.22 0 0 0 74 49.59a26.09 26.09 0 0 0-52.1.84c-.48.29-.92.59-1.32.86a6.14 6.14 0 0 1-4.17 1.49 6.14 6.14 0 0 1-4.17-1.49 13.59 13.59 0 0 0-8.44-2.82 3.805 3.805 0 1 0 0 7.61M48 33a18.54 18.54 0 0 1 18.51 18.49 3.76 3.76 0 0 0 .24 1.29 6.16 6.16 0 0 1-4-1.49 14.1 14.1 0 0 0-16.92 0 6.56 6.56 0 0 1-8.33 0 13.65 13.65 0 0 0-7.78-2.79A18.53 18.53 0 0 1 48 33M92.18 69.82A6.13 6.13 0 0 1 88 68.33a14.09 14.09 0 0 0-16.91 0 6.56 6.56 0 0 1-8.33 0 14.1 14.1 0 0 0-16.92 0 6.56 6.56 0 0 1-8.33 0 13.58 13.58 0 0 0-8.46-2.82 13.58 13.58 0 0 0-8.46 2.82 6.14 6.14 0 0 1-4.17 1.49 6.14 6.14 0 0 1-4.17-1.49 13.58 13.58 0 0 0-8.46-2.82 3.805 3.805 0 1 0 0 7.61A6.15 6.15 0 0 1 8 74.61a13.57 13.57 0 0 0 8.46 2.82 13.58 13.58 0 0 0 8.46-2.82 6.15 6.15 0 0 1 4.17-1.49 6.14 6.14 0 0 1 4.17 1.49 14.1 14.1 0 0 0 16.92 0 6.56 6.56 0 0 1 8.33 0 14.09 14.09 0 0 0 16.91 0 6.55 6.55 0 0 1 8.33 0 13.58 13.58 0 0 0 8.46 2.82 3.81 3.81 0 0 0 0-7.61M92.18 86.86A6.13 6.13 0 0 1 88 85.37a14.09 14.09 0 0 0-16.92 0 6.55 6.55 0 0 1-8.33 0 14.1 14.1 0 0 0-16.92 0 6.56 6.56 0 0 1-8.33 0 13.57 13.57 0 0 0-8.46-2.82 13.58 13.58 0 0 0-8.46 2.82 6.14 6.14 0 0 1-4.17 1.49 6.15 6.15 0 0 1-4.17-1.49 13.58 13.58 0 0 0-8.46-2.82 3.81 3.81 0 1 0 0 7.61A6.14 6.14 0 0 1 8 91.65a13.59 13.59 0 0 0 8.46 2.82 13.59 13.59 0 0 0 8.46-2.82 6.14 6.14 0 0 1 4.17-1.49 6.13 6.13 0 0 1 4.17 1.49 14.1 14.1 0 0 0 16.92 0 6.55 6.55 0 0 1 8.33 0 14.1 14.1 0 0 0 16.92 0 6.55 6.55 0 0 1 8.33 0 13.58 13.58 0 0 0 8.46 2.82 3.805 3.805 0 0 0 0-7.61M48 19a3.8 3.8 0 0 0 3.8-3.8V3.81a3.81 3.81 0 0 0-7.61 0v11.41A3.8 3.8 0 0 0 48 19M19.74 28.5a3.804 3.804 0 1 0 5.38-5.38L17.05 15a3.804 3.804 0 1 0-5.38 5.38zM73.55 29.61a3.79 3.79 0 0 0 2.69-1.11l8.07-8.07A3.822 3.822 0 0 0 78.93 15l-8.07 8.07a3.8 3.8 0 0 0 2.69 6.49"/></g></svg>