<svg data-name="Layer 1" xmlns="http://www.w3.org/2000/svg" viewBox="0 0 198.84 82.71"><defs><clipPath id="a"><path fill="none" d="M0 0h198.84v82.71H0z"/></clipPath></defs><title>two-adults_two-children</title><g clip-path="url(#a)"><path d="M19.3 0a8.4 8.4 0 1 1-8.4 8.4A8.4 8.4 0 0 1 19.3 0"/><path d="M38.56 46.05c-.3-1.87-2.92-18.36-3.54-21.12-1.53-6.86-7.61-6.86-10.88-6.86h-9.67c-3.27 0-9.36 0-10.89 6.86C3 27.69.34 44.18 0 46.05a3.675 3.675 0 0 0 7.26 1.15c.69-4.34 2.41-15 3.17-19.21v51.06a3.65 3.65 0 1 0 7.3 0V53.49h3.14v25.56a3.65 3.65 0 1 0 7.3 0V28c.76 4.22 2.48 14.87 3.17 19.21a3.65 3.65 0 0 0 7.21-1.15M67 0a8.4 8.4 0 1 1-8.4 8.4A8.4 8.4 0 0 1 67 0"/><path d="M86.22 46.05c-.3-1.87-2.92-18.36-3.54-21.12-1.53-6.86-7.61-6.86-10.89-6.86h-9.65c-3.27 0-9.36 0-10.89 6.86-.61 2.76-3.24 19.25-3.54 21.12a3.65 3.65 0 0 0 7.21 1.15c.69-4.34 2.4-15 3.17-19.21v51.06a3.65 3.65 0 1 0 7.3 0V53.49h3.14v25.56a3.65 3.65 0 1 0 7.3 0V28c.77 4.21 2.49 14.86 3.17 19.2a3.65 3.65 0 0 0 7.21-1.15M152 23.36a6 6 0 1 1-6 6 6 6 0 0 1 6-6"/><path d="M165.81 56.4c-.21-1.34-2.1-13.17-2.54-15.16-1.1-4.93-5.46-4.93-7.81-4.93h-6.93c-2.35 0-6.72 0-7.81 4.93-.44 2-2.33 13.81-2.54 15.16a2.622 2.622 0 0 0 5.18.82c.49-3.11 1.73-10.76 2.27-13.78v36.65a2.62 2.62 0 0 0 5.24 0V61.74h2.25v18.34a2.62 2.62 0 0 0 5.24 0V43.44c.55 3 1.78 10.67 2.27 13.78a2.62 2.62 0 0 0 2.58 2.21 2.66 2.66 0 0 0 .42 0 2.62 2.62 0 0 0 2.18-3M185 23.36a6 6 0 1 1-6 6 6 6 0 0 1 6-6"/><path d="M198.81 56.4c-.21-1.34-2.1-13.17-2.54-15.16-1.1-4.93-5.46-4.93-7.81-4.93h-6.93c-2.35 0-6.72 0-7.81 4.93-.44 2-2.33 13.81-2.54 15.16a2.622 2.622 0 0 0 5.18.82c.49-3.11 1.73-10.76 2.27-13.78v36.65a2.62 2.62 0 0 0 5.24 0V61.74h2.25v18.34a2.62 2.62 0 0 0 5.24 0V43.44c.55 3 1.78 10.67 2.27 13.78a2.62 2.62 0 0 0 2.58 2.21 2.66 2.66 0 0 0 .42 0 2.62 2.62 0 0 0 2.18-3M97.8 42h28.5v7.5H97.8z"/><path d="M108.3 31.5h7.5V60h-7.5z"/></g></svg>