<svg data-name="Слой 1" xmlns="http://www.w3.org/2000/svg" viewBox="0 0 91 58.97"><title>two-bed</title><path d="M80.08 15.92h-.84v-1.69A13.74 13.74 0 0 0 65.5.5h-40a13.74 13.74 0 0 0-13.73 13.73v1.74h-.84a10.42 10.42 0 0 0-4.07 20v2.36a8.87 8.87 0 0 0 2.59 6.27 4.44 4.44 0 0 0 1.86 8.48H16v3.9a1.52 1.52 0 1 0 3 0v-3.9h53.19v3.9a1.52 1.52 0 1 0 3 0v-3.9h4.45a4.44 4.44 0 0 0 1.86-8.48 8.87 8.87 0 0 0 2.59-6.27v-2.4a10.42 10.42 0 0 0-4.07-20zm-65.26-1.69A10.68 10.68 0 0 1 25.5 3.55h40a10.68 10.68 0 0 1 10.68 10.68v2.46a10.44 10.44 0 0 0-6.53 9.66v.51H21.32v-.51a10.43 10.43 0 0 0-6.53-9.66zM7.38 32.78a7.36 7.36 0 1 1 10.92-6.43v.51h-2.55a8.91 8.91 0 0 0-8.37 5.92zM79.7 49.99H11.3a1.4 1.4 0 1 1 0-2.8h68.4a1.4 1.4 0 1 1 0 2.8zm1.4-11.7a5.85 5.85 0 0 1-5.85 5.85h-59.5a5.85 5.85 0 0 1-5.85-5.85v-2.54a5.85 5.85 0 0 1 5.85-5.85h59.5a5.85 5.85 0 0 1 5.85 5.85zm2.53-5.51a8.91 8.91 0 0 0-8.38-5.93h-2.52v-.51a7.37 7.37 0 1 1 10.92 6.44z" stroke="#000" stroke-miterlimit="10"/><text transform="translate(30.8 24.74)" font-size="26.858" font-family="ProximaNova-Bold,Proxima Nova" font-weight="700">x2</text></svg>