<svg data-name="Слой 1" xmlns="http://www.w3.org/2000/svg" viewBox="0 0 86.27 82.71"><title>two-adults</title><circle cx="19.3" cy="8.4" r="8.4"/><path d="M38.56 46.05c-.3-1.87-2.92-18.36-3.54-21.12-1.53-6.86-7.61-6.86-10.89-6.86h-9.66c-3.27 0-9.36 0-10.89 6.86C2.96 27.69.34 44.18.04 46.05a3.65 3.65 0 0 0 7.21 1.15c.69-4.34 2.41-15 3.17-19.21v51.06a3.65 3.65 0 1 0 7.3 0V53.48h3.14v25.57a3.65 3.65 0 0 0 7.3 0V27.98c.76 4.22 2.48 14.87 3.17 19.21a3.65 3.65 0 0 0 7.21-1.15z"/><circle cx="66.97" cy="8.4" r="8.4"/><path d="M86.23 46.05c-.3-1.87-2.92-18.36-3.54-21.12-1.53-6.86-7.61-6.86-10.89-6.86h-9.66c-3.27 0-9.36 0-10.89 6.86-.62 2.76-3.24 19.25-3.54 21.12a3.65 3.65 0 0 0 7.21 1.15c.69-4.34 2.41-15 3.17-19.21v51.06a3.65 3.65 0 0 0 7.3 0V53.48h3.15v25.57a3.65 3.65 0 0 0 7.3 0V27.98c.76 4.22 2.48 14.87 3.17 19.21a3.65 3.65 0 0 0 7.21-1.15z"/></svg>