<svg data-name="Layer 1" xmlns="http://www.w3.org/2000/svg" viewBox="0 0 1379.65 1379.65"><defs><clipPath id="a"><path fill="none" d="M0 0h1379.65v1379.65H0z"/></clipPath></defs><title>vk-2</title><g clip-path="url(#a)"><path d="M1379.65 689.83c0 381-308.85 689.82-689.82 689.82S0 1070.81 0 689.83 308.84 0 689.82 0s689.82 308.84 689.82 689.82" fill="#fff"/><path d="M787.26 666.84s111.31-108.55 53.36-223.54-228.14-97.51-228.14-97.51H476.33c-75.43 0-59.79 130.63-59.79 130.63v548.27h287.93c115 0 184-118.67 184-211.58S787.26 666.84 787.26 666.84M610.64 455.26c68.07 0 123.27 12 123.27 71.75s-37.72 93.83-76.35 93.83H545.23V504s-2.67-48.76 65.4-48.76m46 460H545.32V780s-4.6-56.11 51.52-56.11 161.9-8.28 161.9 87.39-72.67 104-102.11 104M1118.12 955.39A79.42 79.42 0 1 1 1038.7 876a79.42 79.42 0 0 1 79.42 79.42" fill="#00b3b3"/></g></svg>