<svg xmlns="http://www.w3.org/2000/svg" width="84" height="76" viewBox="0 0 84 76"><defs><style>.cls-1{fill:#616379;fill-rule:evenodd;filter:url(#filter)}</style><filter id="filter" x="1063" y="2896" width="84" height="76" filterUnits="userSpaceOnUse"><feFlood result="flood" flood-color="#ffba00"/><feComposite result="composite" operator="in" in2="SourceGraphic"/><feBlend result="blend" in2="SourceGraphic"/></filter></defs><path id="Seaside_Sunset" data-name="Seaside Sunset" class="cls-1" d="M1105 2907.17a1.4 1.4 0 0 0 1.4-1.4v-8.37a1.4 1.4 0 1 0-2.8 0v8.37a1.4 1.4 0 0 0 1.4 1.4zm40.6 29.32h-8.4a1.4 1.4 0 1 0 0 2.79h8.4a1.4 1.4 0 1 0 0-2.79zm-81.2 2.79h8.4a1.4 1.4 0 1 0 0-2.79h-8.4a1.4 1.4 0 1 0 0 2.79zm63.37-22.71a1.36 1.36 0 0 0 .99-.41l8.03-8.01a1.382 1.382 0 0 0 0-1.97 1.412 1.412 0 0 0-1.98 0l-8.03 8.01a1.382 1.382 0 0 0 0 1.97 1.36 1.36 0 0 0 .99.41zm-46.53-.41a1.4 1.4 0 0 0 1.98 0 1.382 1.382 0 0 0 0-1.97l-8.03-8.01a1.412 1.412 0 0 0-1.98 0 1.382 1.382 0 0 0 0 1.97zm52.11 9.72a1.412 1.412 0 0 0 1.29.85 1.351 1.351 0 0 0 .55-.11l3.86-1.64a1.392 1.392 0 0 0 .75-1.83 1.411 1.411 0 0 0-1.84-.74l-3.87 1.64a1.4 1.4 0 0 0-.74 1.83zm-62.62-.3l3.89 1.57a1.372 1.372 0 0 0 .52.1 1.4 1.4 0 0 0 .53-2.69l-3.9-1.57a1.4 1.4 0 1 0-1.04 2.59zm20.4-16.71a1.4 1.4 0 0 0 1.29.85 1.351 1.351 0 0 0 .55-.11 1.4 1.4 0 0 0 .74-1.83l-1.64-3.86a1.4 1.4 0 0 0-2.58 1.09zm25.41.53a1.373 1.373 0 0 0 1.82-.77l1.57-3.88a1.4 1.4 0 0 0-2.59-1.05l-1.58 3.89a1.385 1.385 0 0 0 .78 1.81zm16.99 35.49a29.382 29.382 0 1 0-57.93-7.01 28.6 28.6 0 0 0 .92 7.17 14.845 14.845 0 0 0-13.13 4.43 1.4 1.4 0 0 0 2.02 1.94 12.138 12.138 0 0 1 8.79-3.76 11.977 11.977 0 0 1 3.44.5l.47.16c.46.16.9.34 1.34.54.01.01.03.02.04.03a10.967 10.967 0 0 1 1.12.61c.07.05.14.09.21.14.31.2.6.41.89.64.09.07.18.13.26.2a10.052 10.052 0 0 1 1.02.94l1.01 1.04 1.01-1.04a12.225 12.225 0 0 1 2.13-1.76l.37-.22a12.079 12.079 0 0 1 13.64.72l.38.29a10.783 10.783 0 0 1 1.06.97l1.01 1.04 1.01-1.04a10.783 10.783 0 0 1 1.06-.97l.38-.29a12.093 12.093 0 0 1 14.7 0l.38.29a10.783 10.783 0 0 1 1.06.97l1.01 1.04 1.01-1.04a10.718 10.718 0 0 1 .85-.8c.14-.12.29-.23.44-.35s.29-.23.44-.34c.2-.14.4-.26.6-.39l.33-.21c.23-.13.45-.25.68-.37.1-.05.2-.1.31-.15.23-.11.47-.21.71-.31l.33-.12c.24-.08.47-.16.71-.23a3.392 3.392 0 0 1 .43-.11c.21-.06.43-.12.65-.16s.47-.08.7-.11c.14-.01.27-.04.41-.06.4-.03.8-.05 1.2-.05a12.138 12.138 0 0 1 8.79 3.76 1.4 1.4 0 0 0 2.02-1.94 14.963 14.963 0 0 0-10.28-4.59zm-55.13-7.01a26.6 26.6 0 1 1 52.2 7.18c-.02 0-.05.01-.07.01a14.558 14.558 0 0 0-1.87.45 1.424 1.424 0 0 0-.16.05 14.837 14.837 0 0 0-3.03 1.33 22.053 22.053 0 0 0 1.93-9.02 22.4 22.4 0 0 0-44.8 0 22.139 22.139 0 0 0 2.35 9.89c-.32.24-.64.49-.95.76a15.011 15.011 0 0 0-4.32-2.62 26.122 26.122 0 0 1-1.28-8.03zm54.6 16.76a14.9 14.9 0 0 0-9.8 3.66 14.95 14.95 0 0 0-19.6 0 14.95 14.95 0 0 0-19.6 0 14.966 14.966 0 0 0-20.61.95 1.4 1.4 0 0 0 2.02 1.94 12.154 12.154 0 0 1 17.58 0l1.01 1.04 1.01-1.04a12.154 12.154 0 0 1 17.58 0l1.01 1.04 1.01-1.04a12.154 12.154 0 0 1 17.58 0l1.01 1.04 1.01-1.04a12.154 12.154 0 0 1 17.58 0 1.4 1.4 0 0 0 2.02-1.94 14.952 14.952 0 0 0-10.81-4.61zm0 9.77a14.9 14.9 0 0 0-9.8 3.66 14.95 14.95 0 0 0-19.6 0 14.95 14.95 0 0 0-19.6 0 14.966 14.966 0 0 0-20.61.95 1.4 1.4 0 1 0 2.02 1.94 12.154 12.154 0 0 1 17.58 0l1.01 1.04 1.01-1.04a12.154 12.154 0 0 1 17.58 0l1.01 1.04 1.01-1.04a12.154 12.154 0 0 1 17.58 0l1.01 1.04 1.01-1.04a12.154 12.154 0 0 1 17.58 0 1.4 1.4 0 0 0 2.02-1.94 14.991 14.991 0 0 0-10.81-4.61z" transform="translate(-1063 -2896)"/></svg>