<svg xmlns="http://www.w3.org/2000/svg" width="54.906" height="39.12" viewBox="0 0 54.906 39.12"><defs><style>.cls-1{fill:#616379;fill-rule:evenodd;filter:url(#filter)}</style><filter id="filter" x="795.125" y="2221.88" width="54.906" height="39.12" filterUnits="userSpaceOnUse"><feFlood result="flood" flood-color="#00b3b3"/><feComposite result="composite" operator="in" in2="SourceGraphic"/><feBlend result="blend" in2="SourceGraphic"/></filter></defs><path id="icon" class="cls-1" d="M849.013 2234.81a1.016 1.016 0 0 1-.707-.29 36.449 36.449 0 0 0-51.495 0 1 1 0 0 1-1.414-1.42 38.462 38.462 0 0 1 54.323 0 1.008 1.008 0 0 1 0 1.42 1.019 1.019 0 0 1-.707.29zm-47.03 5.88a.984.984 0 0 1-.707-.3.994.994 0 0 1 0-1.41 30.132 30.132 0 0 1 42.565 0 1 1 0 0 1 0 1.41.983.983 0 0 1-1.414 0 28.14 28.14 0 0 0-39.737 0 .984.984 0 0 1-.707.3zm35.272 5.88a.986.986 0 0 1-.707-.3 19.82 19.82 0 0 0-27.979 0 1 1 0 0 1-1.414-1.41 21.809 21.809 0 0 1 30.807 0 .994.994 0 0 1 0 1.41.984.984 0 0 1-.707.3zm-14.7 14.43a6.55 6.55 0 1 1 6.551-6.55 6.559 6.559 0 0 1-6.547 6.55zm0-11.1a4.55 4.55 0 1 0 4.551 4.55 4.555 4.555 0 0 0-4.547-4.55z" transform="translate(-795.125 -2221.88)"/></svg>