<svg xmlns="http://www.w3.org/2000/svg" width="56" height="40"><defs><filter id="a"><feFlood flood-color="#00B3B3" flood-opacity="1" result="floodOut"/><feComposite operator="atop" in="floodOut" in2="SourceGraphic" result="compOut"/><feBlend in="compOut" in2="SourceGraphic"/></filter></defs><path fill-rule="evenodd" fill="#616379" d="M54.72 13.517a1 1 0 0 1-1.414 0C46.439 6.65 37.296 2.869 27.559 2.869c-9.738 0-18.882 3.781-25.748 10.648a.999.999 0 1 1-1.414-1.414C7.641 4.858 17.287.87 27.559.87 37.83.87 47.477 4.858 54.72 12.103a1 1 0 0 1 0 1.414zm-5.879 4.464a1 1 0 0 1-1.414 1.414c-10.956-10.956-28.782-10.956-39.737 0a.997.997 0 0 1-1.414 0 .999.999 0 0 1 0-1.414c11.736-11.737 30.83-11.735 42.565 0zm-21.282-.493c5.825 0 11.295 2.263 15.403 6.372a.998.998 0 0 1 0 1.413.994.994 0 0 1-1.414 0c-3.73-3.73-8.699-5.784-13.989-5.784-5.291 0-10.259 2.054-13.99 5.784a.999.999 0 1 1-1.414-1.413c4.108-4.109 9.579-6.372 15.404-6.372zm0 9.408a6.559 6.559 0 0 1 6.551 6.551 6.56 6.56 0 0 1-6.551 6.552 6.56 6.56 0 0 1-6.552-6.552 6.559 6.559 0 0 1 6.552-6.551zm0 11.103a4.557 4.557 0 0 0 4.551-4.552 4.557 4.557 0 0 0-4.551-4.552 4.557 4.557 0 0 0-4.552 4.552 4.557 4.557 0 0 0 4.552 4.552z" filter="url(#a)"/></svg>