<svg data-name="Layer 1" xmlns="http://www.w3.org/2000/svg" viewBox="0 0 90 63.37"><defs><clipPath id="a"><path fill="none" d="M0 0h90v63.37H0z"/></clipPath></defs><title>wifi</title><g clip-path="url(#a)"><path d="M71.57 34.33a37.73 37.73 0 0 0-53.29 0l-1.07 1.07c-1 1.26-.38 3.8 1.46 5.65l1.43 1.43c1.85 1.85 4.18 2.3 5.17 1l1.08-1.08a26.31 26.31 0 0 1 37.15 0l1.08 1.08c1 1.3 3.32.85 5.17-1l1.43-1.43c1.85-1.85 2.51-4.4 1.47-5.65z"/><path d="M38.2 47.13a9.51 9.51 0 1 1 0 13.45 9.51 9.51 0 0 1 0-13.45M89.73 19.57l-.73-.76-.94-1a61.08 61.08 0 0 0-86.28 0l-.56.57-.86.89c-.89 1-.1 3.35 1.75 5.19l1.37 1.37c1.85 1.85 4.1 2.5 5 1.44l.89-.92.47-.47a49.65 49.65 0 0 1 70.14 0l1 1 .71.76c.74.86 2.86.06 4.71-1.79l1.37-1.37c1.85-1.85 2.75-4.07 2-4.92"/></g></svg>