<?xml version="1.0" encoding="utf-8"?><svg xmlns="http://www.w3.org/2000/svg" xmlns:xlink="http://www.w3.org/1999/xlink"><symbol viewBox="0 0 57.969 58.15" id="alarm-clock" xmlns="http://www.w3.org/2000/svg"><defs><style>.acls-1{fill:#616379;fill-rule:evenodd;filter:url(#afilter)}</style><filter id="afilter" x="395.031" y="2211.91" width="57.969" height="58.15" filterUnits="userSpaceOnUse"><feFlood result="flood" flood-color="#00b3b3"/><feComposite result="composite" operator="in" in2="SourceGraphic"/><feBlend result="blend" in2="SourceGraphic"/></filter></defs><path id="aicon" class="acls-1" d="M435 2243.06h-8a1 1 0 0 1 0-2h8a1 1 0 0 1 0 2zm-11-3a1 1 0 0 1-1-1v-11a1 1 0 0 1 2 0v11a1 1 0 0 1-1 1zm-16 30a1 1 0 0 1-.707-1.71l3.932-3.93a1 1 0 0 1 1.414 1.41l-3.932 3.94a1.016 1.016 0 0 1-.707.29zm32 0a1.016 1.016 0 0 1-.707-.29l-3.963-3.97a1 1 0 0 1 1.414-1.41l3.963 3.96a1 1 0 0 1-.707 1.71zm9.914-44a1.029 1.029 0 0 1-.707-.29l-10.071-10.07a1.018 1.018 0 0 1-.293-.71 1 1 0 0 1 .293-.71 8.123 8.123 0 1 1 11.485 11.49 1.031 1.031 0 0 1-.707.29zm-8.6-11.01l8.542 8.54a6.129 6.129 0 0 0-4.978-9.69 6.033 6.033 0 0 0-3.564 1.15zm.779 9.22a.974.974 0 0 1-.707-.29.994.994 0 0 1 0-1.41l3-3a1 1 0 0 1 1.414 1.41l-3 3a.974.974 0 0 1-.707.29zm-44.007 1.79a1.029 1.029 0 0 1-.707-.29 8.123 8.123 0 1 1 11.485-11.49 1 1 0 0 1 .292.71 1.022 1.022 0 0 1-.292.71l-10.071 10.07a1.031 1.031 0 0 1-.707.29zm5.035-12.16a6.129 6.129 0 0 0-4.978 9.69l8.542-8.54a6.028 6.028 0 0 0-3.564-1.15zm2.785 10.37a.977.977 0 0 1-.707-.29l-3-3a1 1 0 0 1 1.415-1.41l3 3a1 1 0 0 1 0 1.41.978.978 0 0 1-.708.29zM424 2269.06a27 27 0 1 1 27-27 27.029 27.029 0 0 1-27 27zm0-52a25 25 0 1 0 25 25 25.025 25.025 0 0 0-25-25zm0 29a4 4 0 1 1 4-4 4 4 0 0 1-4 4zm0-6a2 2 0 1 0 2 2 2 2 0 0 0-2-2zm0 25a23 23 0 1 1 23-23 23.028 23.028 0 0 1-23 23zm0-44a21 21 0 1 0 21 21 21.023 21.023 0 0 0-21-21zm0 2a1 1 0 0 1-1-1v-2a1 1 0 0 1 2 0v2a1 1 0 0 1-1 1zm0 42a1 1 0 0 1-1-1v-2a1 1 0 0 1 2 0v2a1 1 0 0 1-1 1zm22-22h-2a1 1 0 0 1 0-2h2a1 1 0 0 1 0 2zm-42 0h-2a1 1 0 0 1 0-2h2a1 1 0 0 1 0 2zm10-17.32a1 1 0 0 1-.867-.5l-1-1.73a1 1 0 1 1 1.732-1l1 1.73a1 1 0 0 1-.865 1.5zm21 36.37a1 1 0 0 1-.867-.5l-1-1.73a1 1 0 1 1 1.732-1l1 1.73a1 1 0 0 1-.865 1.5zm-28.323-29.05a1 1 0 0 1-.5-.13l-1.732-1a1 1 0 0 1 1-1.74l1.732 1a1 1 0 0 1-.499 1.87zm36.374 21a1 1 0 0 1-.5-.13l-1.732-1a1 1 0 0 1 1-1.74l1.733 1a1 1 0 0 1-.5 1.87zm-38.1 0a1 1 0 0 1-.5-1.87l1.732-1a1 1 0 0 1 1 1.74l-1.732 1a1 1 0 0 1-.503.13zm36.373-21a1 1 0 0 1-.5-1.87l1.732-1a1 1 0 0 1 1 1.74l-1.733 1a1 1 0 0 1-.502.13zM413 2262.11a1 1 0 0 1-.865-1.5l1-1.73a1 1 0 1 1 1.732 1l-1 1.73a1 1 0 0 1-.867.5zm21-36.37a1 1 0 0 1-.865-1.5l1-1.73a1 1 0 0 1 1.366-.37 1.006 1.006 0 0 1 .366 1.37l-1 1.73a1 1 0 0 1-.867.5z" transform="translate(-395.031 -2211.91)"/></symbol><symbol viewBox="0 0 32 35" id="calendar" xmlns="http://www.w3.org/2000/svg"><title>calendar</title><path d="M1 4h30v30H1zM0 35h32V3H0z" fill="#b8b8b8"/><path fill="#fff" d="M5.5.5h5v6h-5z"/><path d="M6 1h4v5H6zM5 7h6V0H5z" fill="#b8b8b8"/><path fill="#fff" d="M21.5.5h5v6h-5z"/><path d="M22 1h4v5h-4zm-1 6h6V0h-6zM5 9h6v6H5zm8 0h6v6h-6zm8 0h6v6h-6zM5 17h6v6H5zm8 0h6v6h-6zm8 0h6v6h-6zM5 25h6v6H5zm8 0h6v6h-6zm8 0h6v6h-6z" fill="#b8b8b8"/></symbol><symbol viewBox="0 0 60 40" id="food" xmlns="http://www.w3.org/2000/svg"><defs><style>.ccls-1{fill:#616379;fill-rule:evenodd;filter:url(#cfilter)}</style><filter id="cfilter" x="793" y="1979" width="60" height="40" filterUnits="userSpaceOnUse"><feFlood result="flood" flood-color="#00b3b3"/><feComposite result="composite" operator="in" in2="SourceGraphic"/><feBlend result="blend" in2="SourceGraphic"/></filter></defs><path id="cicon" class="ccls-1" d="M813 1994.55h-3a3.006 3.006 0 0 1-3-3v-3a3 3 0 0 1 3-3h3a3 3 0 0 1 3 3v3a3.006 3.006 0 0 1-3 3zm-3-7a1 1 0 0 0-1 1v3a1 1 0 0 0 1 1h3a1 1 0 0 0 1-1v-3a1 1 0 0 0-1-1h-3zm10 4h-3a3.006 3.006 0 0 1-3-3v-3a3 3 0 0 1 3-3h3a3 3 0 0 1 3 3v3a3.006 3.006 0 0 1-3 3zm-3-7a1 1 0 0 0-1 1v3a1 1 0 0 0 1 1h3a1 1 0 0 0 1-1v-3a1 1 0 0 0-1-1h-3zm6 34.45c-20.612 0-30-7.23-30-13.95 0-2.51 1.464-4.64 4.351-6.34a1 1 0 0 1 1.336 1.42 1.848 1.848 0 0 0-.174 1.18c0 .15.01.31.01.46v.1c0 4.1 10.468 8.68 24.477 8.68 13.966 0 24.411-4.56 24.476-8.64v-.08c0-.04 0-.1.007-.14v-.2a2.209 2.209 0 0 0-.233-1.36 1 1 0 0 1 1.336-1.42c2.933 1.73 4.419 3.86 4.419 6.34C853 2008.32 850.837 2019 823 2019zm-26.474-17.2a4.479 4.479 0 0 0-1.526 3.25c0 4.8 7.457 11.95 28 11.95 13.536 0 28-3.14 28-11.95a4.414 4.414 0 0 0-1.523-3.2v.02c0 5.89-11.878 10.68-26.477 10.68s-26.477-4.79-26.477-10.68l.003-.07zm32.474 8.75a4.008 4.008 0 0 1-4-4 1 1 0 0 1 2 0 2 2 0 1 0 4 0 1 1 0 0 1 2 0 4.008 4.008 0 0 1-4 4zm-6 2c-14.6 0-26.477-4.79-26.477-10.68a4.8 4.8 0 0 1 .749-2.5 1 1 0 1 1 1.711 1.04 2.778 2.778 0 0 0-.46 1.46c0 4.1 10.468 8.68 24.477 8.68s24.476-4.58 24.476-8.68a2.769 2.769 0 0 0-.46-1.46 1 1 0 1 1 1.711-1.04 4.789 4.789 0 0 1 .75 2.5c0 5.89-11.877 10.68-26.477 10.68zm6-2a4.008 4.008 0 0 1-4-4v-.34a3.435 3.435 0 0 1-1.5.34 3.5 3.5 0 0 1-3.5-3.5v-2.59c-13.241-.62-23.477-5.2-23.477-10.61a4.8 4.8 0 0 1 .749-2.5c3.374-4.94 13.942-8.35 25.728-8.35s22.353 3.41 25.7 8.3a4.858 4.858 0 0 1 .78 2.55c0 3.72-4.647 7.08-12.477 9.05v8.1a3 3 0 0 1-5.022 2.21 3.988 3.988 0 0 1-2.981 1.34zm-2-7.5v3.5a2 2 0 1 0 4 0 1 1 0 0 1 2 0v.45a1 1 0 0 0 2 0v-8.89a.987.987 0 0 1 .772-.97c7-1.64 11.7-4.57 11.7-7.29a2.8 2.8 0 0 0-.46-1.47c-2.5-3.64-11.567-7.38-24.016-7.38s-21.521 3.74-24.047 7.43a2.738 2.738 0 0 0-.43 1.42c0 3.76 9.243 8.23 22.508 8.64a1 1 0 0 1 .969 1v3.56a1.5 1.5 0 1 0 3 0 1 1 0 0 1 2.004 0zm-5.955 1.44h-.031c-13.733-.41-24.491-5.09-24.491-10.64a4.789 4.789 0 0 1 .75-2.5 1 1 0 0 1 .855-.48.994.994 0 0 1 .855.48c1.947 3.27 10.144 6.77 22.044 7.14a1 1 0 0 1 .969 1v3.56a1.428 1.428 0 0 0 .028.26 1.013 1.013 0 0 1-.225.84 1 1 0 0 1-.754.34zm-22.521-10.56c.128 3.64 8.858 7.92 21.476 8.52v-1.99c-9.547-.45-17.841-3.01-21.476-6.53zm37.476 9.18a1.007 1.007 0 0 1-1-1v-4a.987.987 0 0 1 .772-.97c5.663-1.33 9.865-3.49 11.237-5.79a1.044 1.044 0 0 1 1.717 0 4.781 4.781 0 0 1 .751 2.5c0 3.84-4.954 7.29-13.25 9.23a.879.879 0 0 1-.227.03zm1-4.21v1.93c6.255-1.66 10.394-4.37 10.476-6.91-2.093 2.04-5.762 3.79-10.476 4.98zm-14 9.65c-14.6 0-26.477-4.79-26.477-10.68a4.789 4.789 0 0 1 .75-2.5 1 1 0 1 1 1.709 1.04 2.822 2.822 0 0 0-.459 1.46c0 4.1 10.468 8.68 24.477 8.68.651 0 1.32-.01 2-.04v-3.46a1 1 0 0 1 2 0v3.5a2 2 0 0 0 .11.61.979.979 0 0 1-.126.87 1.015 1.015 0 0 1-.775.44c-1.116.05-2.165.08-3.209.08zm13-1.42a1 1 0 0 1-.227-1.97c7-1.64 11.7-4.57 11.7-7.29a2.82 2.82 0 0 0-.458-1.46 1 1 0 1 1 1.708-1.04 4.781 4.781 0 0 1 .751 2.5c0 3.85-4.954 7.3-13.25 9.23a.9.9 0 0 1-.224.03zm-9.422-11.36a1 1 0 1 1 0-2c9.265 0 16.187-2.77 16.187-5.25a1 1 0 1 1 2 0c0 4.71-9.371 7.25-18.188 7.25z" transform="translate(-793 -1979)"/></symbol><symbol viewBox="0 0 57 55" id="gift" xmlns="http://www.w3.org/2000/svg"><defs><style>.dcls-1{fill:#616379;fill-rule:evenodd;filter:url(#dfilter)}</style><filter id="dfilter" x="1185" y="2214" width="57" height="55" filterUnits="userSpaceOnUse"><feFlood result="flood" flood-color="#00b3b3"/><feComposite result="composite" operator="in" in2="SourceGraphic"/><feBlend result="blend" in2="SourceGraphic"/></filter></defs><path id="dicon" class="dcls-1" d="M1242 2239h-57v-14h57v14zm-55-2h53v-10h-53v10zm37.9-10h-18.61l.76-1.46a6.771 6.771 0 0 1 1.23-1.72l7.78-7.78a7.026 7.026 0 0 1 9.9 0 7.026 7.026 0 0 1 0 9.9zm-14.97-2h14.14l.47-.47a5 5 0 0 0-7.07-7.07zm-1.38 2h-6.99l-1.06-1.06a7 7 0 0 1 9.9-9.9l4.24 4.25-4.95 4.94a5.219 5.219 0 0 0-.86 1.23zm-6.16-2h4.97a6.509 6.509 0 0 1 .92-1.18l3.53-3.53-2.82-2.83a5 5 0 0 0-7.07 7.07zm35.61 44h-48v-32h48v32zm-46-2h44v-28h-44v28zm22 2a1 1 0 0 1-1-1v-42a1 1 0 0 1 2 0v42a1 1 0 0 1-1 1zm23-16h-46a1 1 0 0 1 0-2h46a1 1 0 0 1 0 2z" transform="translate(-1185 -2214)"/></symbol><symbol viewBox="0 0 52 60" id="paint" xmlns="http://www.w3.org/2000/svg"><defs><style>.ecls-1{fill:#616379;fill-rule:evenodd;filter:url(#efilter)}</style><filter id="efilter" x="398" y="1969" width="52" height="60" filterUnits="userSpaceOnUse"><feFlood result="flood" flood-color="#00b3b3"/><feComposite result="composite" operator="in" in2="SourceGraphic"/><feBlend result="blend" in2="SourceGraphic"/></filter></defs><path id="eicon" class="ecls-1" d="M415.465 2012.54a4.54 4.54 0 0 1-3.207-7.75l2.5-2.5a1 1 0 0 1 1.414 0l2.5 2.5a4.54 4.54 0 0 1-3.207 7.75zm0-8.13l-1.793 1.8a2.528 2.528 0 0 0 0 3.58 2.593 2.593 0 0 0 3.586 0 2.534 2.534 0 0 0 0-3.58zm9.443 14.59h-1.816c-13.836 0-25.092-12.99-25.092-28.95V1984a1 1 0 0 1 2 0v6.05c0 14.86 10.359 26.95 23.092 26.95h1.816c12.732 0 23.092-12.09 23.092-26.95V1984a1 1 0 0 1 2 0v6.05c0 15.96-11.256 28.95-25.092 28.95zM415 2001a4.342 4.342 0 0 1-.8-.08 4.08 4.08 0 0 1-3.2-4.05v-.21a3.5 3.5 0 0 1-5-3.25v-12.22c-5.31-1.28-8-3.03-8-5.19 0-4.6 13.08-7 26-7s26 2.4 26 7c0 4.48-12.414 6.87-25 6.99v4.88a4.081 4.081 0 0 1-3.2 4.05 4.329 4.329 0 0 1-.8.08 3.988 3.988 0 0 1-2-.54v5.54a4.008 4.008 0 0 1-4 4zm-2-7.5v3.37a2.106 2.106 0 0 0 1.59 2.09A2 2 0 0 0 417 1997v-9a1 1 0 0 1 2 0 2 2 0 0 0 2 2 1.922 1.922 0 0 0 .409-.04 2.106 2.106 0 0 0 1.591-2.09V1982a1 1 0 0 1 1-1c15.757 0 24-3.26 24-5s-8.243-5-24-5-24 3.25-24 5c0 .63 1.519 2.16 7.271 3.43a1 1 0 0 1 .768 1.16 1.933 1.933 0 0 0-.039.37v12.45a1.565 1.565 0 0 0 1.08 1.53 1.514 1.514 0 0 0 1.92-1.44 1 1 0 0 1 2 0zm-6-7.1a.813.813 0 0 1-.218-.03c-5.827-1.3-8.782-3.1-8.782-5.37v-5a1 1 0 0 1 2 0c0 .63 1.519 2.16 7.271 3.43a1 1 0 0 1 .768 1.16 1.933 1.933 0 0 0-.039.37v4.44a1.007 1.007 0 0 1-.374.78 1.026 1.026 0 0 1-.626.22zm-7-7.48v2.08c0 .58 1.29 1.92 6 3.13v-2.94a19.821 19.821 0 0 1-6-2.27zm24 9.08a1 1 0 0 1-1-1v-5a1 1 0 0 1 1-1c15.757 0 24-3.26 24-5a1 1 0 0 1 2 0v5c0 4.6-13.08 7-26 7zm1-5.01v3c15.106-.13 23-3.28 23-4.99v-2.12c-4.007 2.62-13.454 4.02-23 4.11zm-1 46.01c-12.92 0-26-2.4-26-7v-46a1 1 0 0 1 2 0 .6.6 0 0 0 .013.11l.044.13-.057.05v.18l.133-.09-.133.12v.11l.2-.15c.04.06.065.09.1.13 0 0 .074.07.076.07.046.05.088.09.137.14l.084.07a1.7 1.7 0 0 0 .2.16l.125.09c.083.06.159.11.24.16l.14.09c.094.05.183.11.276.16l.163.08c.108.06.216.11.327.17l.181.08c.119.06.247.11.379.17l.179.07c.142.06.288.12.436.17l.183.07c.157.06.326.12.5.18l.17.06c.185.06.378.12.572.18l.145.04c.212.06.43.13.653.19l-.138 1 .26-.97c.243.07.492.13.747.19.357.09.644.16.939.22a1 1 0 0 1 .77 1.16 1.933 1.933 0 0 0-.039.37v12.45a1.565 1.565 0 0 0 1.08 1.53 1.514 1.514 0 0 0 1.92-1.44 1 1 0 0 1 2 0v3.37a2.106 2.106 0 0 0 1.59 2.09A2 2 0 0 0 417 1997v-9a1 1 0 0 1 2 0 2.008 2.008 0 0 0 2.409 1.96 2.106 2.106 0 0 0 1.591-2.09V1982a1 1 0 0 1 1-1c15.757 0 24-3.26 24-5a1 1 0 0 1 2 0v46c0 4.6-13.08 7-26 7zm-24-50.08V2022c0 1.74 8.243 5 24 5s24-3.26 24-5v-43.12c-4.007 2.62-13.454 4.02-23 4.11v4.88a4.081 4.081 0 0 1-3.2 4.05 4.012 4.012 0 0 1-2.8-.46v5.54a4.008 4.008 0 0 1-4 4 4.342 4.342 0 0 1-.8-.08 4.08 4.08 0 0 1-3.2-4.05v-.21a3.5 3.5 0 0 1-5-3.25v-12.22c-.025-.01-.048-.01-.073-.02a22.38 22.38 0 0 1-.864-.22l-.1-.03c-.261-.07-.494-.14-.722-.2l-.12-.04c-.247-.07-.455-.14-.657-.21l-.192-.06c-.175-.06-.358-.12-.535-.19l-.212-.08c-.156-.06-.319-.12-.478-.19l-.146-.06c-.2-.08-.348-.15-.489-.21l-.2-.1c-.134-.06-.265-.13-.392-.19l-.2-.11a5.306 5.306 0 0 1-.349-.2l-.18-.11a.473.473 0 0 0-.091-.05zm13-5.92a1 1 0 1 1-1-1 1 1 0 0 1 1 1zm-9 3a1 1 0 1 1-1-1 1 1 0 0 1 1 1zm9 3a1 1 0 1 1-1-1 1 1 0 0 1 1 1zm12 0a1 1 0 1 1-1-1 1 1 0 0 1 1 1zm-15-3a1 1 0 1 1-1-1 1 1 0 0 1 1 1zm9-3a1 1 0 1 1-1-1 1 1 0 0 1 1 1zm6 0a1 1 0 1 1-1-1 1 1 0 0 1 1 1zm-9 3a1 1 0 1 1-1-1 1 1 0 0 1 1 1zm3 3a1 1 0 1 1-1-1 1 1 0 0 1 1 1zm3-3a1 1 0 1 1-1-1 1 1 0 0 1 1 1zm9-3a1 1 0 1 1-1-1 1 1 0 0 1 1 1zm6 0a1 1 0 1 1-1-1 1 1 0 0 1 1 1zm-9 3a1 1 0 1 1-1-1 1 1 0 0 1 1 1zm3 3a1 1 0 1 1-1-1 1 1 0 0 1 1 1zm6 0a1 1 0 1 1-1-1 1 1 0 0 1 1 1zm-3-3a1 1 0 1 1-1-1 1 1 0 0 1 1 1zm6 0a1 1 0 1 1-1-1 1 1 0 0 1 1 1zm6 0a1 1 0 1 1-1-1 1 1 0 0 1 1 1z" transform="translate(-398 -1969)"/></symbol><symbol viewBox="0 0 23 17" id="quot" xmlns="http://www.w3.org/2000/svg"><defs><style>.fcls-1{fill-rule:evenodd;filter:url(#ffilter)}</style><filter id="ffilter" x="779" y="3455" width="23" height="17" filterUnits="userSpaceOnUse"><feFlood result="flood" flood-color="#fff"/><feComposite result="composite" operator="in" in2="SourceGraphic"/><feBlend result="blend" in2="SourceGraphic"/></filter></defs><path id="f_copy" data-name="“ copy" class="fcls-1" d="M802 3456.73l-.941-1.74c-4.912 1.74-9.825 5.76-9.825 11.12 0 2.92 1.516 5.9 5.017 5.9 2.822 0 5.122-1.93 5.122-4.66a4.787 4.787 0 0 0-4.5-4.62c-.149-2.78 1.053-4.07 5.127-6zm-12.229 0l-.941-1.74c-4.912 1.74-9.825 5.76-9.825 11.12 0 2.92 1.516 5.9 5.017 5.9 2.822 0 5.122-1.93 5.122-4.66a4.787 4.787 0 0 0-4.5-4.62c-.144-2.78 1.056-4.07 5.13-6z" transform="translate(-779 -3455)"/></symbol><symbol viewBox="0 0 21 20" id="rating-star" xmlns="http://www.w3.org/2000/svg"><defs><style>.gcls-1{fill:#ceba45;fill-rule:evenodd;filter:url(#gfilter)}</style><filter id="gfilter" x="920" y="3360" width="21" height="20" filterUnits="userSpaceOnUse"><feFlood result="flood" flood-color="#cecece"/><feComposite result="composite" operator="in" in2="SourceGraphic"/><feBlend result="blend" in2="SourceGraphic"/></filter></defs><path id="gstar" class="gcls-1" d="M930.5 3360l3.46 6.28 7.039 1.36-4.9 5.24.89 7.12-6.489-3.05-6.489 3.05.89-7.12-4.9-5.24 7.038-1.36 3.461-6.28" transform="translate(-920 -3360)"/></symbol><symbol viewBox="0 0 21 20" id="rating-star-active" xmlns="http://www.w3.org/2000/svg"><defs><style>.hcls-1{fill:#ceba45;fill-rule:evenodd;filter:url(#hfilter)}</style><filter id="hfilter" x="896" y="3360" width="21" height="20" filterUnits="userSpaceOnUse"><feFlood result="flood" flood-color="#ffc600"/><feComposite result="composite" operator="in" in2="SourceGraphic"/><feBlend result="blend" in2="SourceGraphic"/></filter></defs><path id="hstar" class="hcls-1" d="M906.5 3360l3.46 6.28 7.039 1.36-4.9 5.24.889 7.12-6.488-3.05-6.489 3.05.89-7.12-4.9-5.24 7.038-1.36 3.461-6.28" transform="translate(-896 -3360)"/></symbol><symbol viewBox="0 0 615.52 615.52" id="search" xmlns="http://www.w3.org/2000/svg"><path d="M602.531 549.736l-184.31-185.368c26.679-37.72 42.528-83.729 42.528-133.548C460.75 103.35 357.997 0 231.258 0 104.518 0 1.765 103.35 1.765 230.82s102.753 230.82 229.493 230.82c49.53 0 95.271-15.944 132.78-42.777l184.31 185.366a38.117 38.117 0 0 0 27.102 11.291c9.812 0 19.62-3.77 27.083-11.291 14.963-15.041 14.963-39.452-.002-54.493zM355.9 319.763l-15.042 21.273-21.158 15.138c-26.083 18.658-56.667 28.526-88.442 28.526-84.365 0-152.995-69.035-152.995-153.88 0-84.846 68.63-153.88 152.995-153.88s152.996 69.034 152.996 153.88c.017 31.949-9.792 62.706-28.354 88.943z"/></symbol><symbol viewBox="0 0 22 13" id="select-down" xmlns="http://www.w3.org/2000/svg"><defs><style>.jcls-1{fill:#616379;fill-rule:evenodd;filter:url(#jfilter)}</style><filter id="jfilter" x="915" y="527" width="22" height="13" filterUnits="userSpaceOnUse"><feFlood result="flood" flood-color="#b9b9b9"/><feComposite result="composite" operator="in" in2="SourceGraphic"/><feBlend result="blend" in2="SourceGraphic"/></filter></defs><path id="jDown" class="jcls-1" d="M926 540l-11-11.453.524-.545L926 538.912 936.472 528l.528.549zm0-1l-11-11.453.524-.545L926 537.912 936.472 527l.528.549z" transform="translate(-915 -527)"/></symbol><symbol viewBox="0 0 49.94 47.84" id="star" xmlns="http://www.w3.org/2000/svg"><defs><style>.kcls-1{fill:#616379;fill-rule:evenodd;filter:url(#kfilter)}</style><filter id="kfilter" x="1189" y="1975.25" width="49.94" height="47.84" filterUnits="userSpaceOnUse"><feFlood result="flood" flood-color="#00b3b3"/><feComposite result="composite" operator="in" in2="SourceGraphic"/><feBlend result="blend" in2="SourceGraphic"/></filter></defs><path id="kicon" class="kcls-1" d="M1227.19 2023.1a3.537 3.537 0 0 1-1.67-.42l-10.81-5.68a1.611 1.611 0 0 0-1.48 0l-10.81 5.68a3.625 3.625 0 0 1-4.42-.87 3.525 3.525 0 0 1-.78-2.9l2.07-12.05a1.568 1.568 0 0 0-.46-1.4l-8.75-8.53a3.578 3.578 0 0 1 1.99-6.1l12.09-1.76a1.582 1.582 0 0 0 1.19-.87l5.41-10.95a3.576 3.576 0 0 1 6.42 0l5.41 10.95a1.582 1.582 0 0 0 1.19.87l12.09 1.76a3.578 3.578 0 0 1 1.99 6.1l-8.75 8.53a1.568 1.568 0 0 0-.46 1.4l2.07 12.05a3.534 3.534 0 0 1-.78 2.9 3.6 3.6 0 0 1-2.75 1.29zm-13.22-8.29a3.744 3.744 0 0 1 1.67.41l10.81 5.69a1.606 1.606 0 0 0 1.96-.39 1.552 1.552 0 0 0 .34-1.28l-2.07-12.04a3.59 3.59 0 0 1 1.03-3.17l8.75-8.53a1.55 1.55 0 0 0 .4-1.62 1.57 1.57 0 0 0-1.28-1.08l-12.09-1.75a3.574 3.574 0 0 1-2.69-1.96l-5.41-10.96a1.586 1.586 0 0 0-2.84 0l-5.41 10.96a3.574 3.574 0 0 1-2.69 1.96l-12.09 1.75a1.57 1.57 0 0 0-1.28 1.08 1.55 1.55 0 0 0 .4 1.62l8.75 8.53a3.59 3.59 0 0 1 1.03 3.17l-2.07 12.04a1.543 1.543 0 0 0 .34 1.28 1.606 1.606 0 0 0 1.96.39l10.81-5.68a3.627 3.627 0 0 1 1.67-.42z" transform="translate(-1189 -1975.25)"/></symbol><symbol viewBox="0 0 1379.65 1379.65" id="vk" xmlns="http://www.w3.org/2000/svg"><title>vk</title><circle cx="689.82" cy="689.82" r="689.82" fill="#fff"/><path d="M963.55 685.13s109.06-153.84 119.9-204.39c3.61-18.05-4.33-28.17-23.11-28.17h-94.61c-21.67 0-29.61 9.39-36.11 23.11 0 0-51.15 109-113.39 177.68-20 22.2-30.14 28.89-41.17 28.89-8.89 0-13-7.42-13-27.45V479.3c0-24.55-2.89-31.78-23.11-31.78H587.27c-11.56 0-18.78 6.72-18.78 15.89 0 23.13 35.39 28.35 35.39 91v129.28c0 26-1.44 36.11-13.72 36.11-32.5 0-109.78-111.95-153.11-239.06-8.67-26-18.06-33.22-42.61-33.22h-94.61c-13.72 0-23.83 9.39-23.83 23.11 0 25.28 29.61 142.28 145.9 299 78 105.45 180.56 162.5 273 162.5 56.34 0 70.06-9.39 70.06-33.22v-80.89c0-20.22 7.94-28.89 19.5-28.89 13 0 35.94 4.18 89.56 57.06 63.56 60.67 67.89 85.95 102.56 85.95h106.17c10.83 0 20.95-5.05 20.95-23.11 0-23.84-31.06-66.45-78.73-117-19.5-26-51.28-54.17-61.39-67.17-14.47-15.18-10.14-23.85-.03-39.73z" fill="#00b3b3"/></symbol><symbol viewBox="0 0 1379.65 1379.65" id="vk-2" xmlns="http://www.w3.org/2000/svg"><defs><clipPath id="ma"><path fill="none" d="M0 0h1379.65v1379.65H0z"/></clipPath></defs><title>vk-2</title><g clip-path="url(#ma)"><path d="M1379.65 689.83c0 381-308.85 689.82-689.82 689.82S0 1070.81 0 689.83 308.84 0 689.82 0s689.82 308.84 689.82 689.82" fill="#fff"/><path d="M787.26 666.84s111.31-108.55 53.36-223.54-228.14-97.51-228.14-97.51H476.33c-75.43 0-59.79 130.63-59.79 130.63v548.27h287.93c115 0 184-118.67 184-211.58S787.26 666.84 787.26 666.84M610.64 455.26c68.07 0 123.27 12 123.27 71.75s-37.72 93.83-76.35 93.83H545.23V504s-2.67-48.76 65.4-48.76m46 460H545.32V780s-4.6-56.11 51.52-56.11 161.9-8.28 161.9 87.39-72.67 104-102.11 104m461.49 40.11A79.42 79.42 0 1 1 1038.7 876a79.42 79.42 0 0 1 79.42 79.42" fill="#00b3b3"/></g></symbol><symbol viewBox="0 0 84 76" id="weather-sun" xmlns="http://www.w3.org/2000/svg"><defs><style>.ncls-1{fill:#616379;fill-rule:evenodd;filter:url(#nfilter)}</style><filter id="nfilter" x="1063" y="2896" width="84" height="76" filterUnits="userSpaceOnUse"><feFlood result="flood" flood-color="#ffba00"/><feComposite result="composite" operator="in" in2="SourceGraphic"/><feBlend result="blend" in2="SourceGraphic"/></filter></defs><path id="nSeaside_Sunset" data-name="Seaside Sunset" class="ncls-1" d="M1105 2907.17a1.4 1.4 0 0 0 1.4-1.4v-8.37a1.4 1.4 0 1 0-2.8 0v8.37a1.4 1.4 0 0 0 1.4 1.4zm40.6 29.32h-8.4a1.4 1.4 0 1 0 0 2.79h8.4a1.4 1.4 0 1 0 0-2.79zm-81.2 2.79h8.4a1.4 1.4 0 1 0 0-2.79h-8.4a1.4 1.4 0 1 0 0 2.79zm63.37-22.71a1.36 1.36 0 0 0 .99-.41l8.03-8.01a1.382 1.382 0 0 0 0-1.97 1.412 1.412 0 0 0-1.98 0l-8.03 8.01a1.382 1.382 0 0 0 0 1.97 1.36 1.36 0 0 0 .99.41zm-46.53-.41a1.4 1.4 0 0 0 1.98 0 1.382 1.382 0 0 0 0-1.97l-8.03-8.01a1.412 1.412 0 0 0-1.98 0 1.382 1.382 0 0 0 0 1.97zm52.11 9.72a1.412 1.412 0 0 0 1.29.85 1.351 1.351 0 0 0 .55-.11l3.86-1.64a1.392 1.392 0 0 0 .75-1.83 1.411 1.411 0 0 0-1.84-.74l-3.87 1.64a1.4 1.4 0 0 0-.74 1.83zm-62.62-.3l3.89 1.57a1.372 1.372 0 0 0 .52.1 1.4 1.4 0 0 0 .53-2.69l-3.9-1.57a1.4 1.4 0 1 0-1.04 2.59zm20.4-16.71a1.4 1.4 0 0 0 1.29.85 1.351 1.351 0 0 0 .55-.11 1.4 1.4 0 0 0 .74-1.83l-1.64-3.86a1.4 1.4 0 0 0-2.58 1.09zm25.41.53a1.373 1.373 0 0 0 1.82-.77l1.57-3.88a1.4 1.4 0 0 0-2.59-1.05l-1.58 3.89a1.385 1.385 0 0 0 .78 1.81zm16.99 35.49a29.382 29.382 0 1 0-57.93-7.01 28.6 28.6 0 0 0 .92 7.17 14.845 14.845 0 0 0-13.13 4.43 1.4 1.4 0 0 0 2.02 1.94 12.138 12.138 0 0 1 8.79-3.76 11.977 11.977 0 0 1 3.44.5l.47.16c.46.16.9.34 1.34.54.01.01.03.02.04.03a10.967 10.967 0 0 1 1.12.61c.07.05.14.09.21.14.31.2.6.41.89.64.09.07.18.13.26.2a10.052 10.052 0 0 1 1.02.94l1.01 1.04 1.01-1.04a12.225 12.225 0 0 1 2.13-1.76l.37-.22a12.079 12.079 0 0 1 13.64.72l.38.29a10.783 10.783 0 0 1 1.06.97l1.01 1.04 1.01-1.04a10.783 10.783 0 0 1 1.06-.97l.38-.29a12.093 12.093 0 0 1 14.7 0l.38.29a10.783 10.783 0 0 1 1.06.97l1.01 1.04 1.01-1.04a10.718 10.718 0 0 1 .85-.8c.14-.12.29-.23.44-.35s.29-.23.44-.34c.2-.14.4-.26.6-.39l.33-.21c.23-.13.45-.25.68-.37.1-.05.2-.1.31-.15.23-.11.47-.21.71-.31l.33-.12c.24-.08.47-.16.71-.23a3.392 3.392 0 0 1 .43-.11c.21-.06.43-.12.65-.16s.47-.08.7-.11c.14-.01.27-.04.41-.06.4-.03.8-.05 1.2-.05a12.138 12.138 0 0 1 8.79 3.76 1.4 1.4 0 0 0 2.02-1.94 14.963 14.963 0 0 0-10.28-4.59zm-55.13-7.01a26.6 26.6 0 1 1 52.2 7.18c-.02 0-.05.01-.07.01a14.558 14.558 0 0 0-1.87.45 1.424 1.424 0 0 0-.16.05 14.837 14.837 0 0 0-3.03 1.33 22.053 22.053 0 0 0 1.93-9.02 22.4 22.4 0 0 0-44.8 0 22.139 22.139 0 0 0 2.35 9.89c-.32.24-.64.49-.95.76a15.011 15.011 0 0 0-4.32-2.62 26.122 26.122 0 0 1-1.28-8.03zm54.6 16.76a14.9 14.9 0 0 0-9.8 3.66 14.95 14.95 0 0 0-19.6 0 14.95 14.95 0 0 0-19.6 0 14.966 14.966 0 0 0-20.61.95 1.4 1.4 0 0 0 2.02 1.94 12.154 12.154 0 0 1 17.58 0l1.01 1.04 1.01-1.04a12.154 12.154 0 0 1 17.58 0l1.01 1.04 1.01-1.04a12.154 12.154 0 0 1 17.58 0l1.01 1.04 1.01-1.04a12.154 12.154 0 0 1 17.58 0 1.4 1.4 0 0 0 2.02-1.94 14.952 14.952 0 0 0-10.81-4.61zm0 9.77a14.9 14.9 0 0 0-9.8 3.66 14.95 14.95 0 0 0-19.6 0 14.95 14.95 0 0 0-19.6 0 14.966 14.966 0 0 0-20.61.95 1.4 1.4 0 1 0 2.02 1.94 12.154 12.154 0 0 1 17.58 0l1.01 1.04 1.01-1.04a12.154 12.154 0 0 1 17.58 0l1.01 1.04 1.01-1.04a12.154 12.154 0 0 1 17.58 0l1.01 1.04 1.01-1.04a12.154 12.154 0 0 1 17.58 0 1.4 1.4 0 0 0 2.02-1.94 14.991 14.991 0 0 0-10.81-4.61z" transform="translate(-1063 -2896)"/></symbol><symbol viewBox="0 0 54.906 39.12" id="wi-fi" xmlns="http://www.w3.org/2000/svg"><defs><style>.ocls-1{fill:#616379;fill-rule:evenodd;filter:url(#ofilter)}</style><filter id="ofilter" x="795.125" y="2221.88" width="54.906" height="39.12" filterUnits="userSpaceOnUse"><feFlood result="flood" flood-color="#00b3b3"/><feComposite result="composite" operator="in" in2="SourceGraphic"/><feBlend result="blend" in2="SourceGraphic"/></filter></defs><path id="oicon" class="ocls-1" d="M849.013 2234.81a1.016 1.016 0 0 1-.707-.29 36.449 36.449 0 0 0-51.495 0 1 1 0 0 1-1.414-1.42 38.462 38.462 0 0 1 54.323 0 1.008 1.008 0 0 1 0 1.42 1.019 1.019 0 0 1-.707.29zm-47.03 5.88a.984.984 0 0 1-.707-.3.994.994 0 0 1 0-1.41 30.132 30.132 0 0 1 42.565 0 1 1 0 0 1 0 1.41.983.983 0 0 1-1.414 0 28.14 28.14 0 0 0-39.737 0 .984.984 0 0 1-.707.3zm35.272 5.88a.986.986 0 0 1-.707-.3 19.82 19.82 0 0 0-27.979 0 1 1 0 0 1-1.414-1.41 21.809 21.809 0 0 1 30.807 0 .994.994 0 0 1 0 1.41.984.984 0 0 1-.707.3zm-14.7 14.43a6.55 6.55 0 1 1 6.551-6.55 6.559 6.559 0 0 1-6.547 6.55zm0-11.1a4.55 4.55 0 1 0 4.551 4.55 4.555 4.555 0 0 0-4.547-4.55z" transform="translate(-795.125 -2221.88)"/></symbol></svg>